SplineFontDB: 3.0
FontName: Arapey-Regular
FullName: Arapey Regular
FamilyName: Arapey
Weight: Regular
Copyright: Copyright (c) 2011, Eduardo Tunni (http://www.tipo.net.ar), with Reserved Font Name "Arapey"
Version: 001.002
ItalicAngle: 0
UnderlinePosition: -50
UnderlineWidth: 50
Ascent: 800
Descent: 200
sfntRevision: 0x00010083
LayerCount: 2
Layer: 0 1 "Back"  1
Layer: 1 1 "Fore"  0
NeedsXUIDChange: 1
XUID: [1021 288 713564382 8056525]
FSType: 0
OS2Version: 2
OS2_WeightWidthSlopeOnly: 0
OS2_UseTypoMetrics: 1
CreationTime: 1319811167
ModificationTime: 1319836459
PfmFamily: 17
TTFWeight: 400
TTFWidth: 5
LineGap: 0
VLineGap: 0
Panose: 2 0 0 0 0 0 0 0 0 0
OS2TypoAscent: 68
OS2TypoAOffset: 1
OS2TypoDescent: -28
OS2TypoDOffset: 1
OS2TypoLinegap: 0
OS2WinAscent: 0
OS2WinAOffset: 1
OS2WinDescent: 0
OS2WinDOffset: 1
HheadAscent: 0
HheadAOffset: 1
HheadDescent: 0
HheadDOffset: 1
OS2SubXSize: 700
OS2SubYSize: 650
OS2SubXOff: 0
OS2SubYOff: 140
OS2SupXSize: 700
OS2SupYSize: 650
OS2SupXOff: 0
OS2SupYOff: 477
OS2StrikeYSize: 50
OS2StrikeYPos: 250
OS2Vendor: 'TIPO'
OS2CodePages: 20000001.00000000
OS2UnicodeRanges: 800000af.4000204a.00000000.00000000
Lookup: 4 0 1 "'liga' Standard Ligatures in Latin lookup 0"  {"'liga' Standard Ligatures in Latin lookup 0 subtable"  } ['liga' ('latn' <'dflt' > ) ]
Lookup: 257 0 0 "'cpsp' Capital Spacing in Latin lookup 0"  {"'cpsp' Capital Spacing in Latin lookup 0 subtable"  } ['cpsp' ('latn' <'dflt' > ) ]
Lookup: 257 0 0 "'case' Case-Sensitive Forms in Latin lookup 1"  {"'case' Case-Sensitive Forms in Latin lookup 1 per glyph data 0"  "'case' Case-Sensitive Forms in Latin lookup 1 per glyph data 1"  } ['case' ('latn' <'dflt' > ) ]
Lookup: 258 0 0 "'kern' Horizontal Kerning in Latin lookup 2"  {"'kern' Horizontal Kerning in Latin lookup 2 per glyph data 0"  "'kern' Horizontal Kerning in Latin lookup 2 per glyph data 1"  "'kern' Horizontal Kerning in Latin lookup 2 kerning class 2"  } ['kern' ('latn' <'dflt' > ) ]
MarkAttachClasses: 1
DEI: 91125

StartChar: o
Encoding: 111 111 1
Width: 485
Flags: HMW
HStem: -12 22<207 277 207 300.5> 422 22<207 277>
VStem: 40 76<150.5 281.5 150.5 288.5> 369 76<150.5 281.5>
LayerCount: 2
Fore
SplineSet
40 216 m 128,-1,1
 40 322 40 322 96 383 c 128,-1,2
 152 444 152 444 242 444 c 128,-1,3
 332 444 332 444 388.5 383 c 128,-1,4
 445 322 445 322 445 216 c 128,-1,5
 445 110 445 110 388.5 49 c 128,-1,6
 332 -12 332 -12 242 -12 c 128,-1,7
 152 -12 152 -12 96 49 c 128,-1,0
 40 110 40 110 40 216 c 128,-1,1
116 216 m 128,-1,9
 116 121 116 121 152 65.5 c 128,-1,10
 188 10 188 10 242 10 c 128,-1,11
 296 10 296 10 332.5 65.5 c 128,-1,12
 369 121 369 121 369 216 c 128,-1,13
 369 311 369 311 332.5 366.5 c 128,-1,14
 296 422 296 422 242 422 c 128,-1,15
 188 422 188 422 152 366.5 c 128,-1,8
 116 311 116 311 116 216 c 128,-1,9
EndSplineSet
EndChar

StartChar: h
Encoding: 104 104 2
Width: 528
Flags: HMW
HStem: 0 21G<30 210 30 30 318 498 318 318> 405 39<283 306.5> 610 20G<30 77 30 30> 634 20G<163 163>
VStem: 91 72<30 32 32 167 302 616 616 620> 365 72<30 292>
LayerCount: 2
Fore
SplineSet
437 292 m 2,0,-1
 437 30 l 2,1,2
 437 18 437 18 451 18 c 2,3,-1
 498 18 l 1,4,-1
 498 0 l 1,5,-1
 318 0 l 1,6,-1
 318 18 l 1,7,-1
 351 18 l 2,8,9
 365 18 365 18 365 30 c 2,10,-1
 365 305 l 2,11,12
 365 356 365 356 342.5 380.5 c 128,-1,13
 320 405 320 405 283 405 c 0,14,15
 231 405 231 405 197 343.5 c 128,-1,16
 163 282 163 282 163 167 c 2,17,-1
 163 32 l 2,18,19
 163 18 163 18 177 18 c 2,20,-1
 210 18 l 1,21,-1
 210 0 l 1,22,-1
 30 0 l 1,23,-1
 30 18 l 1,24,-1
 77 18 l 2,25,26
 91 18 91 18 91 30 c 2,27,-1
 91 616 l 2,28,29
 91 630 91 630 77 630 c 2,30,-1
 30 630 l 1,31,-1
 30 648 l 1,32,-1
 79 648 l 2,33,34
 139 648 139 648 163 654 c 1,35,-1
 163 302 l 1,36,37
 197 444 197 444 313 444 c 0,38,39
 365 444 365 444 401 406.5 c 128,-1,40
 437 369 437 369 437 292 c 2,0,-1
EndSplineSet
EndChar

StartChar: c
Encoding: 99 99 3
Width: 421
Flags: HMW
HStem: -12 24<204.5 276 204.5 277.5> 420 24<206.5 266.5>
VStem: 40 76<151.5 280.5 151.5 288.5> 309 71<334 364 317 364.5>
LayerCount: 2
Fore
SplineSet
244 420 m 0,0,1
 187 420 187 420 151.5 365.5 c 128,-1,2
 116 311 116 311 116 216 c 128,-1,3
 116 121 116 121 150.5 66.5 c 128,-1,4
 185 12 185 12 239.5 12 c 0,5,6
 294 12 294 12 329 40 c 128,-1,7
 364 68 364 68 377 120 c 1,8,-1
 396 116 l 1,9,10
 384 55 384 55 341 21.5 c 128,-1,11
 298 -12 298 -12 242 -12 c 0,12,13
 155 -12 155 -12 97.5 49 c 128,-1,14
 40 110 40 110 40 216 c 128,-1,15
 40 322 40 322 98 383 c 128,-1,16
 156 444 156 444 244 444 c 0,17,18
 312 444 312 444 346 413.5 c 128,-1,19
 380 383 380 383 380 332 c 0,20,21
 380 266 380 266 343 266 c 0,22,23
 313 266 313 266 295 282 c 1,24,25
 309 312 309 312 309 344.5 c 0,26,27
 309 377 309 377 292.5 398.5 c 128,-1,28
 276 420 276 420 244 420 c 0,0,1
EndSplineSet
EndChar

StartChar: i
Encoding: 105 105 4
Width: 269
Flags: HMW
HStem: 0 21G<45 239 45 45> 412 20G<45 94 94 112> 603 20G<129 155>
VStem: 106 72<32 400 400 404>
LayerCount: 2
Fore
SplineSet
106 32 m 2,0,-1
 106 400 l 2,1,2
 106 414 106 414 92 414 c 2,3,-1
 45 414 l 1,4,-1
 45 432 l 1,5,-1
 94 432 l 2,6,7
 154 432 154 432 178 438 c 1,8,-1
 178 30 l 2,9,10
 178 18 178 18 192 18 c 2,11,-1
 239 18 l 1,12,-1
 239 0 l 1,13,-1
 45 0 l 1,14,-1
 45 18 l 1,15,-1
 92 18 l 2,16,17
 106 18 106 18 106 32 c 2,0,-1
95 576 m 128,-1,19
 95 596 95 596 108.5 609.5 c 128,-1,20
 122 623 122 623 142 623 c 128,-1,21
 162 623 162 623 175.5 609.5 c 128,-1,22
 189 596 189 596 189 576 c 128,-1,23
 189 556 189 556 175.5 542.5 c 128,-1,24
 162 529 162 529 142 529 c 128,-1,25
 122 529 122 529 108.5 542.5 c 128,-1,18
 95 556 95 556 95 576 c 128,-1,19
EndSplineSet
EndChar

StartChar: l
Encoding: 108 108 5
Width: 254
Flags: HMW
HStem: 0 21G<30 224 30 30> 610 20G<30 77 30 30> 634 20G<163 163>
VStem: 91 72<32 616 616 620>
LayerCount: 2
Fore
SplineSet
91 32 m 2,0,-1
 91 616 l 2,1,2
 91 630 91 630 77 630 c 2,3,-1
 30 630 l 1,4,-1
 30 648 l 1,5,-1
 79 648 l 2,6,7
 139 648 139 648 163 654 c 1,8,-1
 163 32 l 2,9,10
 163 18 163 18 177 18 c 2,11,-1
 224 18 l 1,12,-1
 224 0 l 1,13,-1
 30 0 l 1,14,-1
 30 18 l 1,15,-1
 77 18 l 2,16,17
 91 18 91 18 91 32 c 2,0,-1
EndSplineSet
EndChar

StartChar: m
Encoding: 109 109 6
Width: 802
Flags: HMW
HStem: 0 21G<45 225 45 45 323 503 323 323 587 767 587 587> 405 39<292 314.5 555.5 578.5> 412 20G<45 94 94 112>
VStem: 106 72<30 32 32 155 304 400 400 404> 370 72<30 32 32 155> 634 72<30 292>
CounterMasks: 1 1c
LayerCount: 2
Fore
SplineSet
706 292 m 2,0,-1
 706 30 l 2,1,2
 706 18 706 18 720 18 c 2,3,-1
 767 18 l 1,4,-1
 767 0 l 1,5,-1
 587 0 l 1,6,-1
 587 18 l 1,7,-1
 620 18 l 2,8,9
 634 18 634 18 634 30 c 2,10,-1
 634 305 l 2,11,12
 634 356 634 356 613 380.5 c 128,-1,13
 592 405 592 405 556 405 c 0,14,15
 506 405 506 405 474 340.5 c 128,-1,16
 442 276 442 276 442 155 c 2,17,-1
 442 32 l 2,18,19
 442 18 442 18 456 18 c 2,20,-1
 503 18 l 1,21,-1
 503 0 l 1,22,-1
 323 0 l 1,23,-1
 323 18 l 1,24,-1
 356 18 l 2,25,26
 370 18 370 18 370 30 c 2,27,-1
 370 305 l 2,28,29
 370 356 370 356 349 380.5 c 128,-1,30
 328 405 328 405 292 405 c 0,31,32
 242 405 242 405 210 340.5 c 128,-1,33
 178 276 178 276 178 155 c 2,34,-1
 178 32 l 2,35,36
 178 18 178 18 192 18 c 2,37,-1
 225 18 l 1,38,-1
 225 0 l 1,39,-1
 45 0 l 1,40,-1
 45 18 l 1,41,-1
 92 18 l 2,42,43
 106 18 106 18 106 30 c 2,44,-1
 106 400 l 2,45,46
 106 414 106 414 92 414 c 2,47,-1
 45 414 l 1,48,-1
 45 432 l 1,49,-1
 94 432 l 2,50,51
 154 432 154 432 178 438 c 1,52,-1
 178 304 l 1,53,54
 211 444 211 444 320 444 c 0,55,56
 368 444 368 444 403.5 409 c 128,-1,57
 439 374 439 374 442 303 c 1,58,59
 475 444 475 444 584 444 c 0,60,61
 634 444 634 444 670 406.5 c 128,-1,62
 706 369 706 369 706 292 c 2,0,-1
EndSplineSet
EndChar

StartChar: r
Encoding: 114 114 7
Width: 388
Flags: HMW
HStem: 0 21G<45 259 45 45> 405 39<270 281> 412 20G<45 94 94 112>
VStem: 106 72<32 165 310 400 400 404> 316 67<342.5 361.5 317.5 375>
LayerCount: 2
Fore
SplineSet
358.5 411 m 128,-1,1
 383 378 383 378 383 328 c 128,-1,2
 383 278 383 278 341.5 278 c 0,3,4
 318 278 318 278 303 293 c 1,5,6
 316 322 316 322 316 352 c 0,7,8
 316 405 316 405 272 405 c 0,9,10
 235 405 235 405 206.5 343.5 c 128,-1,11
 178 282 178 282 178 165 c 2,12,-1
 178 32 l 2,13,14
 178 18 178 18 192 18 c 2,15,-1
 259 18 l 1,16,-1
 259 0 l 1,17,-1
 45 0 l 1,18,-1
 45 18 l 1,19,-1
 92 18 l 2,20,21
 106 18 106 18 106 32 c 2,22,-1
 106 400 l 2,23,24
 106 414 106 414 92 414 c 2,25,-1
 45 414 l 1,26,-1
 45 432 l 1,27,-1
 94 432 l 2,28,29
 154 432 154 432 178 438 c 1,30,-1
 178 310 l 1,31,32
 194 379 194 379 225 411.5 c 128,-1,33
 256 444 256 444 295 444 c 128,-1,0
 334 444 334 444 358.5 411 c 128,-1,1
EndSplineSet
EndChar

StartChar: a
Encoding: 97 97 8
Width: 459
Flags: HMW
HStem: -12 33<381.5 389> 208 21<198 237.5 159.5 262> 420 24<188.5 240.5>
VStem: 40 68<78 121 78 129> 72 69<330 356> 287 72<102 120 120 120 267 280>
LayerCount: 2
Fore
SplineSet
286 233 m 1,0,-1
 287 268 l 1,1,-1
 287 303 l 2,2,3
 287 420 287 420 211 420 c 0,4,5
 178 420 178 420 159.5 397.5 c 128,-1,6
 141 375 141 375 141 345 c 128,-1,7
 141 315 141 315 149 293 c 1,8,9
 132 278 132 278 102 278 c 128,-1,10
 72 278 72 278 72 327 c 128,-1,11
 72 376 72 376 110.5 410 c 128,-1,12
 149 444 149 444 220 444 c 0,13,14
 359 444 359 444 359 280 c 2,15,-1
 359 75 l 2,16,17
 359 21 359 21 389 21 c 0,18,19
 403 21 403 21 413.5 34 c 128,-1,20
 424 47 424 47 424 64 c 128,-1,21
 424 81 424 81 421 96 c 1,22,-1
 440 99 l 1,23,24
 444 84 444 84 444 66 c 0,25,26
 444 30 444 30 422.5 9 c 128,-1,27
 401 -12 401 -12 366 -12 c 128,-1,28
 331 -12 331 -12 309 16.5 c 128,-1,29
 287 45 287 45 287 102 c 2,30,-1
 287 120 l 1,31,32
 270 52 270 52 233 20 c 128,-1,33
 196 -12 196 -12 147.5 -12 c 128,-1,34
 99 -12 99 -12 69.5 18.5 c 128,-1,35
 40 49 40 49 40 99.5 c 128,-1,36
 40 150 40 150 87 189.5 c 128,-1,37
 134 229 134 229 222 229 c 0,38,39
 241 229 241 229 286 224 c 1,40,-1
 286 233 l 1,0,-1
170 26 m 0,41,42
 212 26 212 26 245.5 73.5 c 128,-1,43
 279 121 279 121 285 207 c 1,44,45
 275 208 275 208 257 208 c 0,46,47
 177 208 177 208 142.5 174.5 c 128,-1,48
 108 141 108 141 108 97 c 0,49,50
 108 68 108 68 125 47 c 128,-1,51
 142 26 142 26 170 26 c 0,41,42
EndSplineSet
EndChar

StartChar: u
Encoding: 117 117 9
Width: 518
Flags: HMW
HStem: -12 39<211.5 234.5> 0 21G<421 439 439 488> 412 20G<20 69 69 87 294 343 343 361> 418 20G<153 153 427 427>
VStem: 81 72<140 400 400 404> 355 72<28 32 32 129 129 129 277 400 400 404>
LayerCount: 2
Fore
SplineSet
427 438 m 1,0,-1
 427 32 l 2,1,2
 427 18 427 18 441 18 c 2,3,-1
 488 18 l 1,4,-1
 488 0 l 1,5,-1
 439 0 l 2,6,7
 379 0 379 0 355 -6 c 1,8,-1
 355 129 l 1,9,10
 321 -12 321 -12 205 -12 c 0,11,12
 153 -12 153 -12 117 25.5 c 128,-1,13
 81 63 81 63 81 140 c 2,14,-1
 81 400 l 2,15,16
 81 414 81 414 67 414 c 2,17,-1
 20 414 l 1,18,-1
 20 432 l 1,19,-1
 69 432 l 2,20,21
 129 432 129 432 153 438 c 1,22,-1
 153 127 l 2,23,24
 153 76 153 76 175.5 51.5 c 128,-1,25
 198 27 198 27 235 27 c 0,26,27
 288 27 288 27 321.5 91.5 c 128,-1,28
 355 156 355 156 355 277 c 2,29,-1
 355 400 l 2,30,31
 355 414 355 414 341 414 c 2,32,-1
 294 414 l 1,33,-1
 294 432 l 1,34,-1
 343 432 l 2,35,36
 403 432 403 432 427 438 c 1,0,-1
EndSplineSet
EndChar

StartChar: p
Encoding: 112 112 10
Width: 500
Flags: HMW
HStem: -216 21G<30 244 30 30> -12 25<245 292 241 320> 406 38<272.5 310.5> 412 20G<30 79 79 97>
VStem: 91 72<-184 15 42 177 298 400 400 404> 384 76<149.5 278.5>
LayerCount: 2
Fore
SplineSet
91 -184 m 2,0,-1
 91 400 l 2,1,2
 91 414 91 414 77 414 c 2,3,-1
 30 414 l 1,4,-1
 30 432 l 1,5,-1
 79 432 l 2,6,7
 139 432 139 432 163 438 c 1,8,-1
 163 298 l 1,9,10
 180 370 180 370 217.5 407 c 128,-1,11
 255 444 255 444 301 444 c 0,12,13
 364 444 364 444 412 381 c 128,-1,14
 460 318 460 318 460 214 c 128,-1,15
 460 110 460 110 405.5 49 c 128,-1,16
 351 -12 351 -12 263 -12 c 0,17,18
 208 -12 208 -12 163 15 c 1,19,-1
 163 -184 l 2,20,21
 163 -198 163 -198 177 -198 c 2,22,-1
 244 -198 l 1,23,-1
 244 -216 l 1,24,-1
 30 -216 l 1,25,-1
 30 -198 l 1,26,-1
 77 -198 l 2,27,28
 91 -198 91 -198 91 -184 c 2,0,-1
355 355.5 m 128,-1,30
 326 406 326 406 281.5 406 c 128,-1,31
 237 406 237 406 200 347 c 128,-1,32
 163 288 163 288 163 177 c 2,33,-1
 163 42 l 1,34,35
 207 13 207 13 259.5 13 c 128,-1,36
 312 13 312 13 348 66 c 128,-1,37
 384 119 384 119 384 212 c 128,-1,29
 384 305 384 305 355 355.5 c 128,-1,30
EndSplineSet
EndChar

StartChar: b
Encoding: 98 98 11
Width: 495
Flags: HMW
HStem: -12 25<234 287 234 315> -8 21G 406 38<267.5 305.5> 610 20G<25 72 25 25> 634 20G<158 158>
VStem: 86 72<41 165 298 616 616 620> 379 76<149.5 278.5>
LayerCount: 2
Fore
SplineSet
258 -12 m 128,-1,1
 170 -12 170 -12 111 54 c 1,2,-1
 103 -8 l 1,3,-1
 86 -8 l 1,4,-1
 86 616 l 2,5,6
 86 630 86 630 72 630 c 2,7,-1
 25 630 l 1,8,-1
 25 648 l 1,9,-1
 74 648 l 2,10,11
 134 648 134 648 158 654 c 1,12,-1
 158 298 l 1,13,14
 175 370 175 370 212.5 407 c 128,-1,15
 250 444 250 444 296 444 c 0,16,17
 359 444 359 444 407 381 c 128,-1,18
 455 318 455 318 455 214 c 0,19,20
 455 110 455 110 400.5 49 c 128,-1,0
 346 -12 346 -12 258 -12 c 128,-1,1
281 406 m 0,21,22
 231 406 231 406 194.5 344 c 128,-1,23
 158 282 158 282 158 165 c 2,24,-1
 158 41 l 1,25,26
 200 13 200 13 253.5 13 c 0,27,28
 307 13 307 13 343 66 c 128,-1,29
 379 119 379 119 379 212 c 0,30,31
 379 305 379 305 350 355.5 c 128,-1,32
 321 406 321 406 281 406 c 0,21,22
EndSplineSet
EndChar

StartChar: q
Encoding: 113 113 12
Width: 495
Flags: HMW
HStem: -222 21G<337 337> -12 38<193.5 224.5> 414 30<208 260.5> 420 20G<393 409 409 409>
VStem: 40 76<153 281 153 287> 337 72<-188 -184 -184 98 98 98 153 387 387 387>
LayerCount: 2
Fore
SplineSet
96 382 m 128,-1,1
 152 444 152 444 237.5 444 c 128,-1,2
 323 444 323 444 383 378 c 1,3,-1
 393 440 l 1,4,-1
 409 440 l 1,5,-1
 409 -184 l 2,6,7
 409 -198 409 -198 423 -198 c 2,8,-1
 470 -198 l 1,9,-1
 470 -216 l 1,10,-1
 421 -216 l 2,11,12
 361 -216 361 -216 337 -222 c 1,13,-1
 337 98 l 1,14,15
 314 44 314 44 277 16 c 128,-1,16
 240 -12 240 -12 198 -12 c 0,17,18
 134 -12 134 -12 87 50 c 128,-1,19
 40 112 40 112 40 216 c 128,-1,0
 40 320 40 320 96 382 c 128,-1,1
146.5 76 m 128,-1,21
 177 26 177 26 216.5 26 c 128,-1,22
 256 26 256 26 288 58.5 c 128,-1,23
 320 91 320 91 337 153 c 1,24,-1
 337 387 l 1,25,26
 293 414 293 414 240.5 414 c 128,-1,27
 188 414 188 414 152 362.5 c 128,-1,28
 116 311 116 311 116 218.5 c 128,-1,20
 116 126 116 126 146.5 76 c 128,-1,21
EndSplineSet
EndChar

StartChar: t
Encoding: 116 116 13
Width: 273
Flags: HMW
HStem: -12 21G<138 183> 412 20G<20 69 69 81 153 253 253 253> 518 20G<138 153 153 153>
VStem: 81 72<102 400 400 404>
LayerCount: 2
Fore
SplineSet
138 538 m 1,0,-1
 153 538 l 1,1,-1
 153 432 l 1,2,-1
 253 432 l 1,3,-1
 253 414 l 1,4,-1
 153 414 l 1,5,-1
 153 75 l 2,6,7
 153 21 153 21 183 21 c 0,8,9
 197 21 197 21 207.5 34 c 128,-1,10
 218 47 218 47 218 64 c 0,11,12
 218 81 218 81 215 96 c 1,13,-1
 234 99 l 1,14,15
 238 84 238 84 238 66 c 0,16,17
 238 30 238 30 216.5 9 c 128,-1,18
 195 -12 195 -12 160 -12 c 0,19,20
 125 -12 125 -12 103 16.5 c 128,-1,21
 81 45 81 45 81 102 c 2,22,-1
 81 400 l 2,23,24
 81 414 81 414 67 414 c 2,25,-1
 20 414 l 1,26,-1
 20 432 l 1,27,-1
 69 432 l 2,28,29
 101 432 101 432 138 538 c 1,0,-1
EndSplineSet
EndChar

StartChar: e
Encoding: 101 101 15
Width: 441
Flags: HMW
HStem: -12 24<204.5 276 204.5 277.5> 223 20<117 318 117 389 116 318> 420 24<200.5 263>
VStem: 40 76<151.5 216 216 223 151.5 288.5> 322 69<288.5 324 256.5 336>
LayerCount: 2
Fore
SplineSet
242 444 m 0,0,1
 311 444 311 444 351 398 c 128,-1,2
 391 352 391 352 391 263 c 0,3,4
 391 245 391 245 389 223 c 1,5,-1
 116 223 l 1,6,-1
 116 216 l 2,7,8
 116 121 116 121 150.5 66.5 c 128,-1,9
 185 12 185 12 239.5 12 c 128,-1,10
 294 12 294 12 329 40 c 128,-1,11
 364 68 364 68 377 120 c 1,12,-1
 396 116 l 1,13,14
 384 55 384 55 341 21.5 c 128,-1,15
 298 -12 298 -12 242 -12 c 0,16,17
 155 -12 155 -12 97.5 49 c 128,-1,18
 40 110 40 110 40 215.5 c 128,-1,19
 40 321 40 321 98 382.5 c 128,-1,20
 156 444 156 444 242 444 c 0,0,1
322 297 m 0,21,22
 322 420 322 420 230.5 420 c 0,23,24
 184 420 184 420 151.5 370 c 128,-1,25
 119 320 119 320 117 243 c 1,26,-1
 318 243 l 1,27,28
 322 277 322 277 322 297 c 0,21,22
EndSplineSet
EndChar

StartChar: f
Encoding: 102 102 16
Width: 299
Flags: HMW
HStem: 0 21G<45 259 45 45> 412 20G<45 107 107 107 178 278 278 278> 637 23<217 247>
VStem: 107 71<432 432>
LayerCount: 2
Fore
SplineSet
178 552 m 2,0,-1
 178 432 l 1,1,-1
 278 432 l 1,2,-1
 278 414 l 1,3,-1
 178 414 l 1,4,-1
 178 30 l 2,5,6
 178 18 178 18 194 18 c 2,7,-1
 259 18 l 1,8,-1
 259 0 l 1,9,-1
 45 0 l 1,10,-1
 45 18 l 1,11,-1
 92 18 l 2,12,13
 106 18 106 18 106 32 c 2,14,-1
 106 400 l 2,15,16
 106 414 106 414 92 414 c 2,17,-1
 45 414 l 1,18,-1
 45 432 l 1,19,-1
 107 432 l 1,20,21
 113 548 113 548 150.5 604 c 128,-1,22
 188 660 188 660 240.5 660 c 128,-1,23
 293 660 293 660 317 634.5 c 128,-1,24
 341 609 341 609 341 580 c 0,25,26
 341 520 341 520 306 520 c 0,27,28
 277 520 277 520 259 535 c 1,29,30
 274 565 274 565 274 588.5 c 0,31,32
 274 637 274 637 233 637 c 0,33,34
 178 637 178 637 178 552 c 2,0,-1
EndSplineSet
EndChar

StartChar: d
Encoding: 100 100 17
Width: 500
Flags: HMW
HStem: -12 38<191 228> 0 21G<403 421 421 470> 414 30<208 255 181.5 259> 610 20G<276 323 276 276> 634 20G<409 409>
VStem: 40 76<154.5 281 154.5 287> 337 72<28 32 32 80 80 80 117 386 386 386 417 616 616 620>
LayerCount: 2
Fore
SplineSet
337 -6 m 1,0,-1
 337 80 l 1,1,2
 281 -12 281 -12 204.5 -12 c 128,-1,3
 128 -12 128 -12 84 49 c 128,-1,4
 40 110 40 110 40 215 c 128,-1,5
 40 320 40 320 96 382 c 128,-1,6
 152 444 152 444 237 444 c 0,7,8
 292 444 292 444 337 417 c 1,9,-1
 337 616 l 2,10,11
 337 630 337 630 323 630 c 2,12,-1
 276 630 l 1,13,-1
 276 648 l 1,14,-1
 325 648 l 2,15,16
 385 648 385 648 409 654 c 1,17,-1
 409 32 l 2,18,19
 409 18 409 18 423 18 c 2,20,-1
 470 18 l 1,21,-1
 470 0 l 1,22,-1
 421 0 l 2,23,24
 361 0 361 0 337 -6 c 1,0,-1
152 362.5 m 128,-1,26
 116 311 116 311 116 219 c 128,-1,27
 116 127 116 127 145.5 76.5 c 128,-1,28
 175 26 175 26 220 26 c 0,29,30
 285 26 285 26 337 117 c 1,31,-1
 337 386 l 1,32,33
 291 414 291 414 239.5 414 c 128,-1,25
 188 414 188 414 152 362.5 c 128,-1,26
EndSplineSet
EndChar

StartChar: j
Encoding: 106 106 18
Width: 245
Flags: HMW
HStem: -228 23<22 52 22 64.5> 412 20G<30 79 79 97> 603 20G<114 140>
VStem: 91 71<-55.5 32 -55.5 400> 91 83
LayerCount: 2
Fore
SplineSet
80 576 m 128,-1,1
 80 596 80 596 94 609.5 c 128,-1,2
 108 623 108 623 127 623 c 128,-1,3
 146 623 146 623 160 609.5 c 128,-1,4
 174 596 174 596 174 576 c 128,-1,5
 174 556 174 556 160 542.5 c 128,-1,6
 146 529 146 529 127 529 c 128,-1,7
 108 529 108 529 94 542.5 c 128,-1,0
 80 556 80 556 80 576 c 128,-1,1
163 438 m 1,8,-1
 162 32 l 2,9,10
 162 -94 162 -94 124 -161 c 128,-1,11
 86 -228 86 -228 31 -228 c 128,-1,12
 -24 -228 -24 -228 -48 -202.5 c 128,-1,13
 -72 -177 -72 -177 -72 -148 c 0,14,15
 -72 -88 -72 -88 -37 -88 c 0,16,17
 -8 -88 -8 -88 10 -103 c 1,18,19
 -5 -133 -5 -133 -5 -156.5 c 0,20,21
 -5 -205 -5 -205 36 -205 c 0,22,23
 91 -205 91 -205 91 -120 c 2,24,-1
 91 400 l 2,25,26
 91 414 91 414 77 414 c 2,27,-1
 30 414 l 1,28,-1
 30 432 l 1,29,-1
 79 432 l 2,30,31
 139 432 139 432 163 438 c 1,8,-1
EndSplineSet
EndChar

StartChar: v
Encoding: 118 118 19
Width: 407
Flags: HMW
HStem: 0 21G<190 217 190 190> 412 20G<-10 160 160 160 290 417 417 417>
LayerCount: 2
Fore
SplineSet
290 432 m 1,0,-1
 417 432 l 1,1,-1
 417 414 l 1,2,-1
 380 414 l 2,3,4
 371 414 371 414 366 400 c 2,5,-1
 217 0 l 1,6,-1
 190 0 l 1,7,-1
 41 400 l 2,8,9
 36 414 36 414 27 414 c 2,10,-1
 -10 414 l 1,11,-1
 -10 432 l 1,12,-1
 160 432 l 1,13,-1
 160 414 l 1,14,-1
 110 414 l 1,15,-1
 225 98 l 1,16,-1
 341 414 l 1,17,-1
 290 414 l 1,18,-1
 290 432 l 1,0,-1
EndSplineSet
EndChar

StartChar: w
Encoding: 119 119 20
Width: 586
Flags: HMW
HStem: 0 21G<165 192 165 165 394 421 394 394> 412 20G<-10 159 159 159 469 596 596 596>
LayerCount: 2
Fore
SplineSet
469 432 m 1,0,-1
 596 432 l 1,1,-1
 596 414 l 1,2,-1
 559 414 l 2,3,4
 550 414 550 414 545 400 c 2,5,-1
 421 0 l 1,6,-1
 394 0 l 1,7,-1
 293 309 l 1,8,-1
 192 0 l 1,9,-1
 165 0 l 1,10,-1
 41 400 l 1,11,12
 38 414 38 414 27 414 c 2,13,-1
 -10 414 l 1,14,-1
 -10 432 l 1,15,-1
 159 432 l 1,16,-1
 159 414 l 1,17,-1
 109 414 l 1,18,-1
 199 107 l 1,19,-1
 298 414 l 1,20,-1
 328 414 l 1,21,-1
 427 109 l 1,22,-1
 520 414 l 1,23,-1
 469 414 l 1,24,-1
 469 432 l 1,0,-1
EndSplineSet
EndChar

StartChar: k
Encoding: 107 107 21
Width: 451
Flags: HMW
HStem: -6 21G<342 342> 0 21G<30 224 30 30 396 414 414 461> 412 20G<297 431 431 431> 610 20G<30 77 30 30> 634 20G<163 163>
VStem: 91 72<32 616 616 620>
LayerCount: 2
Fore
SplineSet
91 32 m 2,0,-1
 91 616 l 2,1,2
 91 630 91 630 77 630 c 2,3,-1
 30 630 l 1,4,-1
 30 648 l 1,5,-1
 79 648 l 2,6,7
 139 648 139 648 163 654 c 1,8,-1
 163 30 l 2,9,10
 163 18 163 18 177 18 c 2,11,-1
 224 18 l 1,12,-1
 224 0 l 1,13,-1
 30 0 l 1,14,-1
 30 18 l 1,15,-1
 77 18 l 2,16,17
 91 18 91 18 91 32 c 2,0,-1
297 432 m 1,18,-1
 431 432 l 1,19,-1
 431 414 l 1,20,-1
 394 414 l 2,21,22
 386 414 386 414 376 404 c 2,23,-1
 247 257 l 1,24,-1
 406 26 l 2,25,26
 411 18 411 18 420 18 c 2,27,-1
 461 18 l 1,28,-1
 461 0 l 1,29,-1
 414 0 l 2,30,31
 366 0 366 0 342 -6 c 1,32,-1
 182 227 l 1,33,-1
 348 414 l 1,34,-1
 297 414 l 1,35,-1
 297 432 l 1,18,-1
EndSplineSet
EndChar

StartChar: x
Encoding: 120 120 22
Width: 430
Flags: HMW
HStem: -6 21G<306 306> 0 21G<5 139 5 5 360 378 378 425> 412 20G<10 57 57 75 286 420 420 420> 418 20G<129 129>
LayerCount: 2
Fore
SplineSet
286 432 m 1,0,-1
 420 432 l 1,1,-1
 420 414 l 1,2,-1
 383 414 l 2,3,4
 372 414 372 414 365 404 c 2,5,-1
 250 231 l 1,6,-1
 370 26 l 2,7,8
 375 18 375 18 384 18 c 2,9,-1
 425 18 l 1,10,-1
 425 0 l 1,11,-1
 378 0 l 2,12,13
 330 0 330 0 306 -6 c 1,14,-1
 196 182 l 1,15,-1
 88 18 l 1,16,-1
 139 18 l 1,17,-1
 139 0 l 1,18,-1
 5 0 l 1,19,-1
 5 18 l 1,20,-1
 42 18 l 2,21,22
 53 18 53 18 60 28 c 2,23,-1
 180 209 l 1,24,-1
 65 406 l 2,25,26
 60 414 60 414 51 414 c 2,27,-1
 10 414 l 1,28,-1
 10 432 l 1,29,-1
 57 432 l 2,30,31
 105 432 105 432 129 438 c 1,32,-1
 234 258 l 1,33,-1
 337 414 l 1,34,-1
 286 414 l 1,35,-1
 286 432 l 1,0,-1
EndSplineSet
EndChar

StartChar: y
Encoding: 121 121 23
Width: 407
Flags: HMW
HStem: -228 21G<86.5 116.5> 412 20G<-10 160 160 160 290 417 417 417>
LayerCount: 2
Fore
SplineSet
290 432 m 1,0,-1
 417 432 l 1,1,-1
 417 414 l 1,2,-1
 380 414 l 2,3,4
 371 414 371 414 366 400 c 2,5,-1
 193 -63 l 2,6,7
 190 -72 190 -72 183 -90 c 2,8,-1
 172.5 -117 l 2,9,10
 169 -126 169 -126 163 -141.5 c 128,-1,11
 157 -157 157 -157 153 -165.5 c 128,-1,12
 149 -174 149 -174 143 -186 c 0,13,14
 135.727272727 -200.545454545 135.727272727 -200.545454545 123.055944056 -214.272727273 c 128,-1,15
 110.384615385 -228 110.384615385 -228 96.1923076923 -228 c 128,-1,16
 82 -228 82 -228 66.5 -210.5 c 128,-1,17
 51 -193 51 -193 48 -173 c 1,18,19
 139 -134 139 -134 172 -43 c 2,20,-1
 189 3 l 1,21,-1
 41 400 l 2,22,23
 36 414 36 414 27 414 c 2,24,-1
 -10 414 l 1,25,-1
 -10 432 l 1,26,-1
 160 432 l 1,27,-1
 160 414 l 1,28,-1
 110 414 l 1,29,-1
 225 98 l 1,30,-1
 341 414 l 1,31,-1
 290 414 l 1,32,-1
 290 432 l 1,0,-1
EndSplineSet
EndChar

StartChar: z
Encoding: 122 122 24
Width: 405
Flags: HMW
HStem: -6 21G 0 21G<30 293 30 30> 412 20G<121 364 364 364> 418 20G
LayerCount: 2
Fore
SplineSet
111 18 m 1,0,-1
 308 18 l 2,1,2
 323 18 323 18 326 32 c 2,3,-1
 341 128 l 1,4,-1
 359 128 l 1,5,-1
 359 78 l 2,6,7
 359 18 359 18 365 -6 c 1,8,9
 341 0 341 0 293 0 c 2,10,-1
 30 0 l 1,11,-1
 30 18 l 1,12,-1
 283 414 l 1,13,-1
 106 414 l 2,14,15
 91 414 91 414 88 400 c 2,16,-1
 73 304 l 1,17,-1
 55 304 l 1,18,-1
 55 354 l 2,19,20
 55 414 55 414 49 438 c 1,21,22
 73 432 73 432 121 432 c 2,23,-1
 364 432 l 1,24,-1
 364 414 l 1,25,-1
 111 18 l 1,0,-1
EndSplineSet
EndChar

StartChar: g
Encoding: 103 103 25
Width: 454
Flags: HMW
HStem: -228 24<168 256 168 270.5> -12 66<136 303 136 303 128 303> 422 22<202.5 239.5 181 247.5> 498 20G<365 414>
VStem: 40 44<89.5 95> 40 56 73 71<263.5 336 256 343> 307 71<256 322 249 336> 379 45<-84 -53>
LayerCount: 2
Fore
SplineSet
428 420 m 1,0,-1
 420 421 l 1,1,2
 411 483 411 483 375 483 c 0,3,4
 357 483 357 483 342 464 c 128,-1,5
 327 445 327 445 324 414 c 1,6,7
 378 373 378 373 378 300 c 128,-1,8
 378 227 378 227 335.5 187.5 c 128,-1,9
 293 148 293 148 225 148 c 2,10,-1
 136 148 l 2,11,12
 111 148 111 148 97.5 134 c 128,-1,13
 84 120 84 120 84 101 c 128,-1,14
 84 82 84 82 97.5 68 c 128,-1,15
 111 54 111 54 136 54 c 2,16,-1
 303 54 l 2,17,18
 363 54 363 54 393.5 26.5 c 128,-1,19
 424 -1 424 -1 424 -43 c 0,20,21
 424 -110 424 -110 361 -169 c 128,-1,22
 298 -228 298 -228 204 -228 c 0,23,24
 132 -228 132 -228 87 -194 c 128,-1,25
 42 -160 42 -160 42 -108 c 128,-1,26
 42 -56 42 -56 97 -8 c 1,27,28
 71 -1 71 -1 55.5 21.5 c 128,-1,29
 40 44 40 44 40 77 c 128,-1,30
 40 110 40 110 64 136.5 c 128,-1,31
 88 163 88 163 136 163 c 2,32,-1
 151 163 l 1,33,34
 73 199 73 199 73 296 c 0,35,36
 73 365 73 365 115 404.5 c 128,-1,37
 157 444 157 444 225 444 c 0,38,39
 270 444 270 444 304 426 c 1,40,41
 311 466 311 466 332.5 492 c 128,-1,42
 354 518 354 518 389.5 518 c 128,-1,43
 425 518 425 518 448.5 499 c 128,-1,44
 472 480 472 480 472 458.5 c 0,45,46
 472 420 472 420 428 420 c 1,0,-1
303 -12 m 2,47,-1
 128 -12 l 1,48,49
 96 -49 96 -49 96 -96 c 128,-1,50
 96 -143 96 -143 124 -173.5 c 128,-1,51
 152 -204 152 -204 214.5 -204 c 128,-1,52
 277 -204 277 -204 328 -160 c 128,-1,53
 379 -116 379 -116 379 -69 c 0,54,55
 379 -44 379 -44 360 -28 c 128,-1,56
 341 -12 341 -12 303 -12 c 2,47,-1
144 296 m 128,-1,58
 144 238 144 238 167 204 c 128,-1,59
 190 170 190 170 225 170 c 128,-1,60
 260 170 260 170 283.5 204 c 128,-1,61
 307 238 307 238 307 296 c 128,-1,62
 307 354 307 354 283.5 388 c 128,-1,63
 260 422 260 422 225 422 c 128,-1,64
 190 422 190 422 167 388 c 128,-1,57
 144 354 144 354 144 296 c 128,-1,58
EndSplineSet
EndChar

StartChar: period
Encoding: 46 46 26
Width: 192
Flags: HMW
HStem: -12 21G<80.5 111.5> 80 20G<80.5 111.5>
VStem: 40 112<28.5 59.5>
LayerCount: 2
Fore
SplineSet
40 44 m 128,-1,1
 40 67 40 67 56.5 83.5 c 128,-1,2
 73 100 73 100 96 100 c 128,-1,3
 119 100 119 100 135.5 83.5 c 128,-1,4
 152 67 152 67 152 44 c 128,-1,5
 152 21 152 21 135.5 4.5 c 128,-1,6
 119 -12 119 -12 96 -12 c 128,-1,7
 73 -12 73 -12 56.5 4.5 c 128,-1,0
 40 21 40 21 40 44 c 128,-1,1
EndSplineSet
EndChar

StartChar: s
Encoding: 115 115 27
Width: 395
Flags: HMW
HStem: -12 24<164.5 220.5 164.5 242.5> 417 27<174.5 223.5>
VStem: 59 56<326.5 342.5> 291 59<92.5 112>
LayerCount: 2
Fore
SplineSet
170 271 m 2,0,-1
 274 232 l 2,1,2
 311 218 311 218 330.5 189.5 c 128,-1,3
 350 161 350 161 350 126 c 0,4,5
 350 72 350 72 307 30 c 128,-1,6
 264 -12 264 -12 191.5 -12 c 0,7,8
 119 -12 119 -12 55 15 c 1,9,10
 61 39 61 39 61 99 c 2,11,-1
 61 139 l 1,12,-1
 79 139 l 1,13,-1
 86 87 l 1,14,15
 95 12 95 12 191 12 c 0,16,17
 234 12 234 12 262.5 38.5 c 128,-1,18
 291 65 291 65 291 99 c 0,19,20
 291 146 291 146 234 167 c 2,21,-1
 130 206 l 2,22,23
 95 219 95 219 77 247 c 128,-1,24
 59 275 59 275 59 310 c 0,25,26
 59 363 59 363 97 403.5 c 128,-1,27
 135 444 135 444 192.5 444 c 0,28,29
 250 444 250 444 322 417 c 1,30,31
 316 393 316 393 316 333 c 2,32,-1
 316 293 l 1,33,-1
 298 293 l 1,34,-1
 291 345 l 1,35,36
 283 417 283 417 200 417 c 0,37,38
 163 417 163 417 139 394 c 128,-1,39
 115 371 115 371 115 340 c 0,40,41
 115 292 115 292 170 271 c 2,0,-1
EndSplineSet
EndChar

StartChar: hyphen
Encoding: 45 45 28
Width: 312
Flags: HMW
HStem: 211 40<30 282 30 282>
LayerCount: 2
Fore
SplineSet
30 211 m 1,0,-1
 30 251 l 1,1,-1
 282 251 l 1,2,-1
 282 211 l 1,3,-1
 30 211 l 1,0,-1
EndSplineSet
Position2: "'case' Case-Sensitive Forms in Latin lookup 1 per glyph data 0" dx=0 dy=70 dh=0 dv=0
EndChar

StartChar: comma
Encoding: 44 44 29
Width: 192
Flags: HMW
HStem: -125 21G<42 42> 80 20G<81 115.5>
VStem: 78 73<-37 57>
LayerCount: 2
Fore
SplineSet
31 -111 m 1,0,1
 78 -69 78 -69 78 -25.5 c 128,-1,2
 78 18 78 18 42 43 c 1,3,4
 43 67 43 67 58.5 83.5 c 128,-1,5
 74 100 74 100 96 100 c 0,6,7
 151 100 151 100 151 40 c 0,8,9
 151 -1 151 -1 120.5 -49.5 c 128,-1,10
 90 -98 90 -98 42 -125 c 1,11,-1
 31 -111 l 1,0,1
EndSplineSet
EndChar

StartChar: H
Encoding: 72 72 30
Width: 648
Flags: HMW
HStem: 0 21G<35 239 35 35 409 409 409 613> 301 28<178 470 178 470> 610 20G<35 239 239 239 409 613 613 613>
VStem: 96 82<32 301 329 598> 470 82<32 301 301 301 329 598 598 600>
LayerCount: 2
Fore
SplineSet
470 32 m 2,0,-1
 470 301 l 1,1,-1
 178 301 l 1,2,-1
 178 32 l 2,3,4
 178 18 178 18 192 18 c 2,5,-1
 239 18 l 1,6,-1
 239 0 l 1,7,-1
 35 0 l 1,8,-1
 35 18 l 1,9,-1
 82 18 l 2,10,11
 96 18 96 18 96 32 c 2,12,-1
 96 600 l 2,13,14
 96 612 96 612 82 612 c 2,15,-1
 35 612 l 1,16,-1
 35 630 l 1,17,-1
 239 630 l 1,18,-1
 239 612 l 1,19,-1
 192 612 l 2,20,21
 178 612 178 612 178 598 c 2,22,-1
 178 329 l 1,23,-1
 470 329 l 1,24,-1
 470 598 l 2,25,26
 470 612 470 612 456 612 c 2,27,-1
 409 612 l 1,28,-1
 409 630 l 1,29,-1
 613 630 l 1,30,-1
 613 612 l 1,31,-1
 566 612 l 2,32,33
 552 612 552 612 552 600 c 2,34,-1
 552 32 l 2,35,36
 552 18 552 18 566 18 c 2,37,-1
 613 18 l 1,38,-1
 613 0 l 1,39,-1
 409 0 l 1,40,-1
 409 18 l 1,41,-1
 456 18 l 2,42,43
 470 18 470 18 470 32 c 2,0,-1
EndSplineSet
Position2: "'cpsp' Capital Spacing in Latin lookup 0 subtable" dx=7 dy=0 dh=35 dv=0
EndChar

StartChar: I
Encoding: 73 73 31
Width: 274
Flags: HMW
HStem: 0 21G<35 239 35 35> 610 20G<35 239 239 239>
VStem: 96 82<32 600>
LayerCount: 2
Fore
SplineSet
96 32 m 2,0,-1
 96 600 l 2,1,2
 96 612 96 612 82 612 c 2,3,-1
 35 612 l 1,4,-1
 35 630 l 1,5,-1
 239 630 l 1,6,-1
 239 612 l 1,7,-1
 192 612 l 2,8,9
 178 612 178 612 178 600 c 2,10,-1
 178 32 l 2,11,12
 178 18 178 18 192 18 c 2,13,-1
 239 18 l 1,14,-1
 239 0 l 1,15,-1
 35 0 l 1,16,-1
 35 18 l 1,17,-1
 82 18 l 2,18,19
 96 18 96 18 96 32 c 2,0,-1
EndSplineSet
Position2: "'cpsp' Capital Spacing in Latin lookup 0 subtable" dx=7 dy=0 dh=35 dv=0
EndChar

StartChar: N
Encoding: 78 78 32
Width: 629
Flags: HMW
HStem: 0 21G<35 191 35 35 506 538 506 506> 610 20G<35 182 182 182 443 599 599 599>
VStem: 96 34<32 558> 504 34<154 598 598 600 0 602>
LayerCount: 2
Fore
SplineSet
506 0 m 1,0,-1
 130 558 l 1,1,-1
 130 32 l 2,2,3
 130 18 130 18 144 18 c 2,4,-1
 191 18 l 1,5,-1
 191 0 l 1,6,-1
 35 0 l 1,7,-1
 35 18 l 1,8,-1
 82 18 l 2,9,10
 96 18 96 18 96 32 c 2,11,-1
 96 600 l 2,12,13
 96 612 96 612 82 612 c 2,14,-1
 35 612 l 1,15,-1
 35 630 l 1,16,-1
 182 630 l 1,17,-1
 504 154 l 1,18,-1
 504 598 l 2,19,20
 504 612 504 612 490 612 c 2,21,-1
 443 612 l 1,22,-1
 443 630 l 1,23,-1
 599 630 l 1,24,-1
 599 612 l 1,25,-1
 552 612 l 2,26,27
 538 612 538 612 538 600 c 2,28,-1
 538 0 l 1,29,-1
 506 0 l 1,0,-1
EndSplineSet
Position2: "'cpsp' Capital Spacing in Latin lookup 0 subtable" dx=7 dy=0 dh=35 dv=0
EndChar

StartChar: E
Encoding: 69 69 33
Width: 517
Flags: HMW
HStem: -9 21G 0 28<178 366> 301 28<178 379 178 379> 602 28<178 352 352 380 178 178> 619 20G
VStem: 96 82<32 301 329 600 600 602>
LayerCount: 2
Fore
SplineSet
35 0 m 1,0,-1
 35 18 l 1,1,-1
 82 18 l 2,2,3
 96 18 96 18 96 32 c 2,4,-1
 96 600 l 2,5,6
 96 612 96 612 82 612 c 2,7,-1
 35 612 l 1,8,-1
 35 630 l 1,9,-1
 352 630 l 2,10,11
 431 630 431 630 463 639 c 1,12,13
 454 598 454 598 454 525 c 2,14,-1
 454 478 l 1,15,-1
 431 478 l 1,16,-1
 416 580 l 1,17,18
 414 602 414 602 388 602 c 2,19,-1
 178 602 l 1,20,-1
 178 329 l 1,21,-1
 379 329 l 2,22,23
 391 329 391 329 393 343 c 2,24,-1
 398 405 l 1,25,-1
 416 405 l 1,26,-1
 416 225 l 1,27,-1
 398 225 l 1,28,-1
 393 287 l 2,29,30
 391 301 391 301 379 301 c 2,31,-1
 178 301 l 1,32,-1
 178 28 l 1,33,-1
 402 28 l 2,34,35
 428 28 428 28 430 50 c 2,36,-1
 445 167 l 1,37,-1
 468 167 l 1,38,-1
 468 120 l 2,39,40
 468 32 468 32 477 -9 c 1,41,42
 445 0 445 0 366 0 c 2,43,-1
 35 0 l 1,0,-1
EndSplineSet
Position2: "'cpsp' Capital Spacing in Latin lookup 0 subtable" dx=7 dy=0 dh=35 dv=0
EndChar

StartChar: L
Encoding: 76 76 34
Width: 452
Flags: HMW
HStem: -9 21G 0 28<178 341> 610 20G<35 239 239 239>
VStem: 96 82<32 600 28 603.5>
LayerCount: 2
Fore
SplineSet
35 0 m 1,0,-1
 35 18 l 1,1,-1
 82 18 l 2,2,3
 96 18 96 18 96 32 c 2,4,-1
 96 600 l 2,5,6
 96 612 96 612 82 612 c 2,7,-1
 35 612 l 1,8,-1
 35 630 l 1,9,-1
 239 630 l 1,10,-1
 239 612 l 1,11,-1
 192 612 l 2,12,13
 178 612 178 612 178 600 c 2,14,-1
 178 28 l 1,15,-1
 377 28 l 2,16,17
 403 28 403 28 405 50 c 2,18,-1
 420 167 l 1,19,-1
 443 167 l 1,20,-1
 443 120 l 2,21,22
 443 32 443 32 452 -9 c 1,23,24
 420 0 420 0 341 0 c 2,25,-1
 35 0 l 1,0,-1
EndSplineSet
Position2: "'cpsp' Capital Spacing in Latin lookup 0 subtable" dx=7 dy=0 dh=35 dv=0
EndChar

StartChar: F
Encoding: 70 70 35
Width: 467
Flags: HMW
HStem: 0 21G<35 279 35 35> 301 28<178 375 178 375> 602 28<178 346 346 374 178 178> 619 20G
VStem: 96 82<32 301 329 600 600 602>
LayerCount: 2
Fore
SplineSet
35 612 m 1,0,-1
 35 630 l 1,1,-1
 346 630 l 2,2,3
 425 630 425 630 457 639 c 1,4,5
 448 598 448 598 448 525 c 2,6,-1
 448 478 l 1,7,-1
 425 478 l 1,8,-1
 410 580 l 1,9,10
 408 602 408 602 382 602 c 2,11,-1
 178 602 l 1,12,-1
 178 329 l 1,13,-1
 375 329 l 2,14,15
 385 329 385 329 387 343 c 2,16,-1
 392 405 l 1,17,-1
 410 405 l 1,18,-1
 410 225 l 1,19,-1
 392 225 l 1,20,-1
 387 287 l 2,21,22
 385 301 385 301 375 301 c 2,23,-1
 178 301 l 1,24,-1
 178 32 l 2,25,26
 178 18 178 18 192 18 c 2,27,-1
 279 18 l 1,28,-1
 279 0 l 1,29,-1
 35 0 l 1,30,-1
 35 18 l 1,31,-1
 82 18 l 2,32,33
 96 18 96 18 96 32 c 2,34,-1
 96 600 l 2,35,36
 96 612 96 612 82 612 c 2,37,-1
 35 612 l 1,0,-1
EndSplineSet
Position2: "'cpsp' Capital Spacing in Latin lookup 0 subtable" dx=7 dy=0 dh=35 dv=0
EndChar

StartChar: T
Encoding: 84 84 36
Width: 500
Flags: HMW
HStem: 0 21G<108 392 108 108> 602 28<116 209 291 384 384 412 291 291> 619 20G
VStem: 209 82<30 602>
LayerCount: 2
Fore
SplineSet
291 602 m 1,0,-1
 291 30 l 2,1,2
 291 18 291 18 305 18 c 2,3,-1
 392 18 l 1,4,-1
 392 0 l 1,5,-1
 108 0 l 1,6,-1
 108 18 l 1,7,-1
 195 18 l 2,8,9
 209 18 209 18 209 30 c 2,10,-1
 209 602 l 1,11,-1
 80 602 l 2,12,13
 54 602 54 602 52 580 c 2,14,-1
 37 463 l 1,15,-1
 14 463 l 1,16,-1
 14 510 l 2,17,18
 14 598 14 598 5 639 c 1,19,20
 37 630 37 630 116 630 c 2,21,-1
 384 630 l 2,22,23
 463 630 463 630 495 639 c 1,24,25
 486 598 486 598 486 510 c 2,26,-1
 486 463 l 1,27,-1
 463 463 l 1,28,-1
 448 580 l 2,29,30
 446 602 446 602 420 602 c 2,31,-1
 291 602 l 1,0,-1
EndSplineSet
Position2: "'cpsp' Capital Spacing in Latin lookup 0 subtable" dx=7 dy=0 dh=35 dv=0
EndChar

StartChar: O
Encoding: 79 79 37
Width: 643
Flags: HMW
HStem: -12 26<266 376 266 404> 616 26<266 376>
VStem: 35 85<219 411 219 419> 523 85<219 411>
LayerCount: 2
Fore
SplineSet
35 315 m 128,-1,1
 35 468 35 468 114.5 555 c 128,-1,2
 194 642 194 642 321.5 642 c 0,3,4
 449 642 449 642 528.5 555 c 128,-1,5
 608 468 608 468 608 315 c 128,-1,6
 608 162 608 162 528.5 75 c 128,-1,7
 449 -12 449 -12 321.5 -12 c 0,8,9
 194 -12 194 -12 114.5 75 c 128,-1,0
 35 162 35 162 35 315 c 128,-1,1
120 315 m 128,-1,11
 120 176 120 176 177.5 95 c 128,-1,12
 235 14 235 14 321 14 c 128,-1,13
 407 14 407 14 465 95 c 128,-1,14
 523 176 523 176 523 315 c 128,-1,15
 523 454 523 454 465 535 c 128,-1,16
 407 616 407 616 321 616 c 128,-1,17
 235 616 235 616 177.5 535 c 128,-1,10
 120 454 120 454 120 315 c 128,-1,11
EndSplineSet
Position2: "'cpsp' Capital Spacing in Latin lookup 0 subtable" dx=7 dy=0 dh=35 dv=0
EndChar

StartChar: A
Encoding: 65 65 38
Width: 566
Flags: HMW
HStem: 0 21G<-10 141 -10 -10 371 576 371 371> 211 28<157 356 157 366 146 356> 610 20G<266 300 300 300>
LayerCount: 2
Fore
SplineSet
576 0 m 1,0,-1
 371 0 l 1,1,-1
 371 18 l 1,2,-1
 436 18 l 1,3,-1
 366 211 l 1,4,-1
 146 211 l 1,5,-1
 76 18 l 1,6,-1
 141 18 l 1,7,-1
 141 0 l 1,8,-1
 -10 0 l 1,9,-1
 -10 18 l 1,10,-1
 27 18 l 2,11,12
 41 18 41 18 46 32 c 2,13,-1
 266 630 l 1,14,-1
 300 630 l 1,15,-1
 520 32 l 2,16,17
 525 18 525 18 539 18 c 2,18,-1
 576 18 l 1,19,-1
 576 0 l 1,0,-1
257 512 m 1,20,-1
 157 239 l 1,21,-1
 356 239 l 1,22,-1
 257 512 l 1,20,-1
EndSplineSet
Position2: "'cpsp' Capital Spacing in Latin lookup 0 subtable" dx=7 dy=0 dh=35 dv=0
EndChar

StartChar: V
Encoding: 86 86 39
Width: 566
Flags: HMW
HStem: 0 21G<266 300 266 266> 610 20G<5 195 195 195 425 561 561 561>
LayerCount: 2
Fore
SplineSet
5 630 m 1,0,-1
 195 630 l 1,1,-1
 195 612 l 1,2,-1
 145 612 l 1,3,-1
 308 124 l 1,4,-1
 475 612 l 1,5,-1
 425 612 l 1,6,-1
 425 630 l 1,7,-1
 561 630 l 1,8,-1
 561 612 l 1,9,-1
 524 612 l 2,10,11
 510 612 510 612 505 598 c 2,12,-1
 300 0 l 1,13,-1
 266 0 l 1,14,-1
 61 598 l 2,15,16
 56 612 56 612 42 612 c 2,17,-1
 5 612 l 1,18,-1
 5 630 l 1,0,-1
EndSplineSet
Position2: "'cpsp' Capital Spacing in Latin lookup 0 subtable" dx=7 dy=0 dh=35 dv=0
EndChar

StartChar: W
Encoding: 87 87 40
Width: 885
Flags: HMW
HStem: 0 21G<246 280 246 246 605 639 605 605> 610 20G<5 195 195 195 354 544 544 544 744 880 880 880>
LayerCount: 2
Fore
SplineSet
744 630 m 1,0,-1
 880 630 l 1,1,-1
 880 612 l 1,2,-1
 843 612 l 2,3,4
 829 612 829 612 824 598 c 2,5,-1
 639 0 l 1,6,-1
 605 0 l 1,7,-1
 442 498 l 1,8,-1
 280 0 l 1,9,-1
 246 0 l 1,10,-1
 61 598 l 2,11,12
 56 612 56 612 42 612 c 2,13,-1
 5 612 l 1,14,-1
 5 630 l 1,15,-1
 195 630 l 1,16,-1
 195 612 l 1,17,-1
 145 612 l 1,18,-1
 288 129 l 1,19,-1
 425 551 l 1,20,-1
 410 598 l 2,21,22
 405 612 405 612 391 612 c 2,23,-1
 354 612 l 1,24,-1
 354 630 l 1,25,-1
 544 630 l 1,26,-1
 544 612 l 1,27,-1
 494 612 l 1,28,-1
 645 132 l 1,29,-1
 794 612 l 1,30,-1
 744 612 l 1,31,-1
 744 630 l 1,0,-1
EndSplineSet
Position2: "'cpsp' Capital Spacing in Latin lookup 0 subtable" dx=7 dy=0 dh=35 dv=0
EndChar

StartChar: U
Encoding: 85 85 41
Width: 604
Flags: HMW
HStem: -12 35<276 362 276 371> 610 20G<25 229 229 229 433 589 589 589>
VStem: 86 82<195 600> 494 34<195 600>
LayerCount: 2
Fore
SplineSet
589 630 m 1,0,-1
 589 612 l 1,1,-1
 542 612 l 2,2,3
 528 612 528 612 528 600 c 2,4,-1
 528 195 l 2,5,6
 528 91 528 91 468 39.5 c 128,-1,7
 408 -12 408 -12 307 -12 c 128,-1,8
 206 -12 206 -12 146 39.5 c 128,-1,9
 86 91 86 91 86 195 c 2,10,-1
 86 600 l 2,11,12
 86 612 86 612 72 612 c 2,13,-1
 25 612 l 1,14,-1
 25 630 l 1,15,-1
 229 630 l 1,16,-1
 229 612 l 1,17,-1
 182 612 l 2,18,19
 168 612 168 612 168 600 c 2,20,-1
 168 188 l 2,21,22
 168 104 168 104 209.5 63.5 c 128,-1,23
 251 23 251 23 322.5 23 c 0,24,25
 394 23 394 23 444 63.5 c 128,-1,26
 494 104 494 104 494 195 c 2,27,-1
 494 600 l 2,28,29
 494 612 494 612 480 612 c 2,30,-1
 433 612 l 1,31,-1
 433 630 l 1,32,-1
 589 630 l 1,0,-1
EndSplineSet
Position2: "'cpsp' Capital Spacing in Latin lookup 0 subtable" dx=7 dy=0 dh=35 dv=0
EndChar

StartChar: P
Encoding: 80 80 42
Width: 486
Flags: HMW
HStem: 0 21G<35 259 35 35> 250 28<178 274 274 279 178 274> 602 28<178 274 178 178>
VStem: 96 82<32 250 278 600 600 602> 401 80<400 480>
LayerCount: 2
Fore
SplineSet
35 612 m 1,0,-1
 35 630 l 1,1,-1
 279 630 l 2,2,3
 364 630 364 630 422.5 578.5 c 128,-1,4
 481 527 481 527 481 440 c 128,-1,5
 481 353 481 353 422.5 301.5 c 128,-1,6
 364 250 364 250 279 250 c 2,7,-1
 178 250 l 1,8,-1
 178 32 l 2,9,10
 178 18 178 18 192 18 c 2,11,-1
 259 18 l 1,12,-1
 259 0 l 1,13,-1
 35 0 l 1,14,-1
 35 18 l 1,15,-1
 82 18 l 2,16,17
 96 18 96 18 96 32 c 2,18,-1
 96 600 l 2,19,20
 96 612 96 612 82 612 c 2,21,-1
 35 612 l 1,0,-1
274 602 m 2,22,-1
 178 602 l 1,23,-1
 178 278 l 1,24,-1
 274 278 l 2,25,26
 333 278 333 278 367 326.5 c 128,-1,27
 401 375 401 375 401 440 c 128,-1,28
 401 505 401 505 367 553.5 c 128,-1,29
 333 602 333 602 274 602 c 2,22,-1
EndSplineSet
Position2: "'cpsp' Capital Spacing in Latin lookup 0 subtable" dx=7 dy=0 dh=35 dv=0
EndChar

StartChar: quotedblleft
Encoding: 8220 8220 43
Width: 335
Flags: HMW
HStem: 443 21G<75.5 110 220.5 255> 648 20G<149 149 294 294>
VStem: 40 73<486 580> 185 73<486 580>
LayerCount: 2
Fore
SplineSet
160 654 m 1,0,1
 113 612 113 612 113 568.5 c 128,-1,2
 113 525 113 525 149 500 c 1,3,4
 148 476 148 476 132.5 459.5 c 128,-1,5
 117 443 117 443 95 443 c 0,6,7
 40 443 40 443 40 503 c 0,8,9
 40 544 40 544 70.5 592.5 c 128,-1,10
 101 641 101 641 149 668 c 1,11,-1
 160 654 l 1,0,1
305 654 m 1,12,13
 258 612 258 612 258 568.5 c 128,-1,14
 258 525 258 525 294 500 c 1,15,16
 293 476 293 476 277.5 459.5 c 128,-1,17
 262 443 262 443 240 443 c 0,18,19
 185 443 185 443 185 503 c 0,20,21
 185 544 185 544 215.5 592.5 c 128,-1,22
 246 641 246 641 294 668 c 1,23,-1
 305 654 l 1,12,13
EndSplineSet
EndChar

StartChar: quotedblright
Encoding: 8221 8221 44
Width: 335
Flags: HMW
HStem: 443 21G<41 41 186 186> 648 20G<80 114.5 225 259.5>
VStem: 77 73<531 625> 222 73<531 625>
LayerCount: 2
Fore
SplineSet
175 457 m 1,0,1
 222 499 222 499 222 542.5 c 128,-1,2
 222 586 222 586 186 611 c 1,3,4
 187 635 187 635 202.5 651.5 c 128,-1,5
 218 668 218 668 240 668 c 0,6,7
 295 668 295 668 295 608 c 0,8,9
 295 567 295 567 264.5 518.5 c 128,-1,10
 234 470 234 470 186 443 c 1,11,-1
 175 457 l 1,0,1
30 457 m 1,12,13
 77 499 77 499 77 542.5 c 128,-1,14
 77 586 77 586 41 611 c 1,15,16
 42 635 42 635 57.5 651.5 c 128,-1,17
 73 668 73 668 95 668 c 0,18,19
 150 668 150 668 150 608 c 0,20,21
 150 567 150 567 119.5 518.5 c 128,-1,22
 89 470 89 470 41 443 c 1,23,-1
 30 457 l 1,12,13
EndSplineSet
EndChar

StartChar: R
Encoding: 82 82 45
Width: 530
Flags: HMW
HStem: -12 30 0 21G 291 29<178 243 178 279> 602 28<178 279 178 178>
VStem: 96 82<32 291 320 600 600 602> 375 76<66.5 133.5 66.5 152.5> 406 80<426 496.5>
LayerCount: 2
Fore
SplineSet
483 21 m 0,0,1
 498 21 498 21 507.5 33.5 c 128,-1,2
 517 46 517 46 517 63.5 c 128,-1,3
 517 81 517 81 514 96 c 1,4,-1
 533 99 l 1,5,6
 537 84 537 84 537 66 c 0,7,8
 537 30 537 30 515.5 9 c 128,-1,9
 494 -12 494 -12 460 -12 c 0,10,11
 375 -12 375 -12 375 91 c 128,-1,12
 375 194 375 194 349 242.5 c 128,-1,13
 323 291 323 291 243 291 c 2,14,-1
 178 291 l 1,15,-1
 178 32 l 2,16,17
 178 18 178 18 192 18 c 2,18,-1
 259 18 l 1,19,-1
 259 0 l 1,20,-1
 35 0 l 1,21,-1
 35 18 l 1,22,-1
 82 18 l 2,23,24
 96 18 96 18 96 32 c 2,25,-1
 96 600 l 2,26,27
 96 612 96 612 82 612 c 2,28,-1
 35 612 l 1,29,-1
 35 630 l 1,30,-1
 284 630 l 2,31,32
 368 630 368 630 427 584 c 128,-1,33
 486 538 486 538 486 461 c 0,34,35
 486 399 486 399 447.5 356.5 c 128,-1,36
 409 314 409 314 346 298 c 1,37,38
 416.558702369 273.808444902 416.558702369 273.808444902 435.5 212 c 0,39,40
 451 161.421052632 451 161.421052632 451 91.2105263158 c 128,-1,41
 451 21 451 21 483 21 c 0,0,1
279 602 m 2,42,-1
 178 602 l 1,43,-1
 178 320 l 1,44,-1
 279 320 l 2,45,46
 339 320 339 320 372.5 362 c 128,-1,47
 406 404 406 404 406 461 c 128,-1,48
 406 518 406 518 372.5 560 c 128,-1,49
 339 602 339 602 279 602 c 2,42,-1
EndSplineSet
Position2: "'cpsp' Capital Spacing in Latin lookup 0 subtable" dx=7 dy=0 dh=35 dv=0
EndChar

StartChar: M
Encoding: 77 77 46
Width: 760
Flags: HMW
HStem: 0 21G<35 191 35 35 339 373 339 339 521 725 521 521> 610 20G<35 178 178 178 582 725 725 725>
VStem: 96 34<32 526> 582 82<30 541 541 541>
LayerCount: 2
Fore
SplineSet
521 0 m 1,0,-1
 521 18 l 1,1,-1
 568 18 l 2,2,3
 582 18 582 18 582 30 c 2,4,-1
 582 541 l 1,5,-1
 373 0 l 1,6,-1
 339 0 l 1,7,-1
 130 526 l 1,8,-1
 130 32 l 2,9,10
 130 18 130 18 144 18 c 2,11,-1
 191 18 l 1,12,-1
 191 0 l 1,13,-1
 35 0 l 1,14,-1
 35 18 l 1,15,-1
 82 18 l 2,16,17
 96 18 96 18 96 32 c 2,18,-1
 96 600 l 2,19,20
 96 612 96 612 82 612 c 2,21,-1
 35 612 l 1,22,-1
 35 630 l 1,23,-1
 178 630 l 1,24,-1
 382 113 l 1,25,-1
 582 630 l 1,26,-1
 725 630 l 1,27,-1
 725 612 l 1,28,-1
 678 612 l 2,29,30
 664 612 664 612 664 598 c 2,31,-1
 664 30 l 2,32,33
 664 18 664 18 678 18 c 2,34,-1
 725 18 l 1,35,-1
 725 0 l 1,36,-1
 521 0 l 1,0,-1
EndSplineSet
Position2: "'cpsp' Capital Spacing in Latin lookup 0 subtable" dx=7 dy=0 dh=35 dv=0
EndChar

StartChar: D
Encoding: 68 68 47
Width: 611
Flags: HMW
HStem: 0 28<178 289 178 289> 602 28<178 289 178 178>
VStem: 96 82<30 600 600 602 28 603.5> 491 85<223.5 406.5>
LayerCount: 2
Fore
SplineSet
35 612 m 1,0,-1
 35 630 l 1,1,-1
 289 630 l 2,2,3
 416 630 416 630 496 546 c 128,-1,4
 576 462 576 462 576 315 c 128,-1,5
 576 168 576 168 496 84 c 128,-1,6
 416 0 416 0 289 0 c 2,7,-1
 35 0 l 1,8,-1
 35 18 l 1,9,-1
 82 18 l 2,10,11
 96 18 96 18 96 30 c 2,12,-1
 96 600 l 2,13,14
 96 612 96 612 82 612 c 2,15,-1
 35 612 l 1,0,-1
289 602 m 2,16,-1
 178 602 l 1,17,-1
 178 28 l 1,18,-1
 289 28 l 2,19,20
 375 28 375 28 433 105 c 128,-1,21
 491 182 491 182 491 315 c 128,-1,22
 491 448 491 448 433 525 c 128,-1,23
 375 602 375 602 289 602 c 2,16,-1
EndSplineSet
Position2: "'cpsp' Capital Spacing in Latin lookup 0 subtable" dx=7 dy=0 dh=35 dv=0
EndChar

StartChar: B
Encoding: 66 66 48
Width: 511
Flags: HMW
HStem: 0 28<178 289 289 294> 321 25<178 254 254 289 178 254> 602 28<178 248 178 178>
VStem: 96 82<30 321 28 346 346 600 600 602> 371 80<449.5 512.5> 416 35 416 80<138.5 211.5>
LayerCount: 2
Fore
SplineSet
35 0 m 1,0,-1
 35 18 l 1,1,-1
 82 18 l 2,2,3
 96 18 96 18 96 30 c 2,4,-1
 96 600 l 2,5,6
 96 612 96 612 82 612 c 2,7,-1
 35 612 l 1,8,-1
 35 630 l 1,9,-1
 269 630 l 2,10,11
 344 630 344 630 397.5 589 c 128,-1,12
 451 548 451 548 451 483 c 0,13,14
 451 433 451 433 424.5 395.5 c 128,-1,15
 398 358 398 358 354 339 c 1,16,17
 417 325 417 325 456.5 282 c 128,-1,18
 496 239 496 239 496 167.5 c 0,19,20
 496 96 496 96 437 48 c 128,-1,21
 378 0 378 0 294 0 c 2,22,-1
 35 0 l 1,0,-1
289 321 m 2,23,-1
 178 321 l 1,24,-1
 178 28 l 1,25,-1
 289 28 l 2,26,27
 349 28 349 28 382.5 72 c 128,-1,28
 416 116 416 116 416 175 c 128,-1,29
 416 234 416 234 382.5 277.5 c 128,-1,30
 349 321 349 321 289 321 c 2,23,-1
248 602 m 2,31,-1
 178 602 l 1,32,-1
 178 346 l 1,33,-1
 254 346 l 2,34,35
 313 346 313 346 342 386 c 128,-1,36
 371 426 371 426 371 479.5 c 0,37,38
 371 533 371 533 341 567.5 c 128,-1,39
 311 602 311 602 248 602 c 2,31,-1
EndSplineSet
Position2: "'cpsp' Capital Spacing in Latin lookup 0 subtable" dx=7 dy=0 dh=35 dv=0
EndChar

StartChar: K
Encoding: 75 75 49
Width: 539
Flags: HMW
HStem: -12 30 0 21G 610 20G<35 239 239 239 383 519 519 519>
VStem: 96 82<32 600>
LayerCount: 2
Fore
SplineSet
96 32 m 2,0,-1
 96 600 l 2,1,2
 96 612 96 612 82 612 c 2,3,-1
 35 612 l 1,4,-1
 35 630 l 1,5,-1
 239 630 l 1,6,-1
 239 612 l 1,7,-1
 192 612 l 2,8,9
 178 612 178 612 178 600 c 2,10,-1
 178 32 l 2,11,12
 178 18 178 18 192 18 c 2,13,-1
 239 18 l 1,14,-1
 239 0 l 1,15,-1
 35 0 l 1,16,-1
 35 18 l 1,17,-1
 82 18 l 2,18,19
 96 18 96 18 96 32 c 2,0,-1
412 175 m 2,20,-1
 435 83 l 2,21,22
 450 21 450 21 483 21 c 0,23,24
 500 21 500 21 509.5 33.5 c 128,-1,25
 519 46 519 46 519 63.5 c 0,26,27
 519 81 519 81 516 96 c 1,28,-1
 535 99 l 1,29,30
 539 84 539 84 539 66 c 0,31,32
 539 30 539 30 517.5 9 c 128,-1,33
 496 -12 496 -12 462 -12 c 0,34,35
 378 -12 378 -12 352 95 c 2,36,-1
 329 187 l 2,37,38
 312 252 312 252 282 277.5 c 128,-1,39
 252 303 252 303 197 303 c 1,40,-1
 197 325 l 1,41,-1
 433 612 l 1,42,-1
 383 612 l 1,43,-1
 383 630 l 1,44,-1
 519 630 l 1,45,-1
 519 612 l 1,46,-1
 492 612 l 2,47,48
 476 612 476 612 464 598 c 2,49,-1
 240 327 l 1,50,51
 317 326 317 326 356 285 c 128,-1,52
 395 244 395 244 412 175 c 2,20,-1
EndSplineSet
Position2: "'cpsp' Capital Spacing in Latin lookup 0 subtable" dx=7 dy=0 dh=35 dv=0
EndChar

StartChar: Y
Encoding: 89 89 50
Width: 527
Flags: HMW
HStem: 0 21G<145 399 145 145> 610 20G<5 196 196 196 386 522 522 522>
VStem: 231 82<32 229>
LayerCount: 2
Fore
SplineSet
386 630 m 1,0,-1
 522 630 l 1,1,-1
 522 612 l 1,2,-1
 485 612 l 2,3,4
 471 612 471 612 466 598 c 2,5,-1
 313 229 l 1,6,-1
 313 32 l 2,7,8
 313 18 313 18 327 18 c 2,9,-1
 399 18 l 1,10,-1
 399 0 l 1,11,-1
 145 0 l 1,12,-1
 145 18 l 1,13,-1
 217 18 l 2,14,15
 231 18 231 18 231 32 c 2,16,-1
 231 230 l 1,17,-1
 61 598 l 2,18,19
 54 612 54 612 42 612 c 2,20,-1
 5 612 l 1,21,-1
 5 630 l 1,22,-1
 196 630 l 1,23,-1
 196 612 l 1,24,-1
 146 612 l 1,25,-1
 299 280 l 1,26,-1
 436 612 l 1,27,-1
 386 612 l 1,28,-1
 386 630 l 1,0,-1
EndSplineSet
Position2: "'cpsp' Capital Spacing in Latin lookup 0 subtable" dx=7 dy=0 dh=35 dv=0
EndChar

StartChar: acute
Encoding: 180 180 51
Width: 150
Flags: HMW
HStem: 468 21G<16 16> 628 20G<106 122>
LayerCount: 2
Fore
SplineSet
0 480 m 1,0,-1
 71 614 l 2,1,2
 89 648 89 648 114 648 c 0,3,4
 128 648 128 648 139 636.5 c 128,-1,5
 150 625 150 625 150 602 c 1,6,-1
 16 468 l 1,7,-1
 0 480 l 1,0,-1
EndSplineSet
EndChar

StartChar: eacute
Encoding: 233 233 53
Width: 441
Flags: HMW
HStem: -12 24<204.5 276 204.5 277.5> 223 20<117 318 117 389 116 318> 420 24<200.5 263> 468 21G<188 188> 628 20G<278 294>
VStem: 40 76<151.5 216 216 223 151.5 288.5> 322 69<288.5 324 256.5 336>
LayerCount: 2
Fore
SplineSet
242 444 m 0,0,1
 311 444 311 444 351 398 c 128,-1,2
 391 352 391 352 391 263 c 0,3,4
 391 245 391 245 389 223 c 1,5,-1
 116 223 l 1,6,-1
 116 216 l 2,7,8
 116 121 116 121 150.5 66.5 c 128,-1,9
 185 12 185 12 239.5 12 c 128,-1,10
 294 12 294 12 329 40 c 128,-1,11
 364 68 364 68 377 120 c 1,12,-1
 396 116 l 1,13,14
 384 55 384 55 341 21.5 c 128,-1,15
 298 -12 298 -12 242 -12 c 0,16,17
 155 -12 155 -12 97.5 49 c 128,-1,18
 40 110 40 110 40 215.5 c 128,-1,19
 40 321 40 321 98 382.5 c 128,-1,20
 156 444 156 444 242 444 c 0,0,1
322 297 m 0,21,22
 322 420 322 420 230.5 420 c 0,23,24
 184 420 184 420 151.5 370 c 128,-1,25
 119 320 119 320 117 243 c 1,26,-1
 318 243 l 1,27,28
 322 277 322 277 322 297 c 0,21,22
172 480 m 1,29,-1
 243 614 l 2,30,31
 261 648 261 648 286 648 c 0,32,33
 300 648 300 648 311 636.5 c 128,-1,34
 322 625 322 625 322 602 c 1,35,-1
 188 468 l 1,36,-1
 172 480 l 1,29,-1
EndSplineSet
EndChar

StartChar: uacute
Encoding: 250 250 55
Width: 518
Flags: HMW
HStem: -12 39<211.5 234.5> 0 21G<421 439 439 488> 412 20G<20 69 69 87 294 343 343 361> 418 20G<153 153 427 427> 468 21G<227 227> 628 20G<317 333>
VStem: 81 72<140 400 400 404> 355 72<28 32 32 129 129 129 277 400 400 404>
LayerCount: 2
Fore
SplineSet
427 438 m 1,0,-1
 427 32 l 2,1,2
 427 18 427 18 441 18 c 2,3,-1
 488 18 l 1,4,-1
 488 0 l 1,5,-1
 439 0 l 2,6,7
 379 0 379 0 355 -6 c 1,8,-1
 355 129 l 1,9,10
 321 -12 321 -12 205 -12 c 0,11,12
 153 -12 153 -12 117 25.5 c 128,-1,13
 81 63 81 63 81 140 c 2,14,-1
 81 400 l 2,15,16
 81 414 81 414 67 414 c 2,17,-1
 20 414 l 1,18,-1
 20 432 l 1,19,-1
 69 432 l 2,20,21
 129 432 129 432 153 438 c 1,22,-1
 153 127 l 2,23,24
 153 76 153 76 175.5 51.5 c 128,-1,25
 198 27 198 27 235 27 c 0,26,27
 288 27 288 27 321.5 91.5 c 128,-1,28
 355 156 355 156 355 277 c 2,29,-1
 355 400 l 2,30,31
 355 414 355 414 341 414 c 2,32,-1
 294 414 l 1,33,-1
 294 432 l 1,34,-1
 343 432 l 2,35,36
 403 432 403 432 427 438 c 1,0,-1
211 480 m 1,37,-1
 282 614 l 2,38,39
 300 648 300 648 325 648 c 0,40,41
 339 648 339 648 350 636.5 c 128,-1,42
 361 625 361 625 361 602 c 1,43,-1
 227 468 l 1,44,-1
 211 480 l 1,37,-1
EndSplineSet
EndChar

StartChar: dotlessi
Encoding: 305 305 56
Width: 269
Flags: HMW
HStem: 0 21G<45 239 45 45> 412 20G<45 94 94 112> 418 20G<178 178>
VStem: 106 72<32 400 400 404>
LayerCount: 2
Fore
SplineSet
106 32 m 2,0,-1
 106 400 l 2,1,2
 106 414 106 414 92 414 c 2,3,-1
 45 414 l 1,4,-1
 45 432 l 1,5,-1
 94 432 l 2,6,7
 154 432 154 432 178 438 c 1,8,-1
 178 32 l 2,9,10
 178 18 178 18 192 18 c 2,11,-1
 239 18 l 1,12,-1
 239 0 l 1,13,-1
 45 0 l 1,14,-1
 45 18 l 1,15,-1
 92 18 l 2,16,17
 106 18 106 18 106 32 c 2,0,-1
EndSplineSet
EndChar

StartChar: dieresis
Encoding: 168 168 58
Width: 268
Flags: HMW
HStem: 529 21G<34 60 208 234> 603 20G<34 60 208 234>
LayerCount: 2
Fore
SplineSet
0 576 m 128,-1,1
 0 596 0 596 14 609.5 c 128,-1,2
 28 623 28 623 47 623 c 128,-1,3
 66 623 66 623 80 609.5 c 128,-1,4
 94 596 94 596 94 576 c 128,-1,5
 94 556 94 556 80 542.5 c 128,-1,6
 66 529 66 529 47 529 c 128,-1,7
 28 529 28 529 14 542.5 c 128,-1,0
 0 556 0 556 0 576 c 128,-1,1
174 576 m 128,-1,9
 174 596 174 596 188 609.5 c 128,-1,10
 202 623 202 623 221 623 c 128,-1,11
 240 623 240 623 254 609.5 c 128,-1,12
 268 596 268 596 268 576 c 128,-1,13
 268 556 268 556 254 542.5 c 128,-1,14
 240 529 240 529 221 529 c 128,-1,15
 202 529 202 529 188 542.5 c 128,-1,8
 174 556 174 556 174 576 c 128,-1,9
EndSplineSet
EndChar

StartChar: udieresis
Encoding: 252 252 60
Width: 518
Flags: HMW
HStem: -12 39<211.5 234.5> 0 21G<421 439 439 488> 412 20G<20 69 69 87 294 343 343 361> 418 20G<153 153 427 427> 529 21G<159 185 333 359> 603 20G<159 185 333 359>
VStem: 81 72<140 400 400 404> 355 72<28 32 32 129 129 129 277 400 400 404>
LayerCount: 2
Fore
SplineSet
427 438 m 1,0,-1
 427 32 l 2,1,2
 427 18 427 18 441 18 c 2,3,-1
 488 18 l 1,4,-1
 488 0 l 1,5,-1
 439 0 l 2,6,7
 379 0 379 0 355 -6 c 1,8,-1
 355 129 l 1,9,10
 321 -12 321 -12 205 -12 c 0,11,12
 153 -12 153 -12 117 25.5 c 128,-1,13
 81 63 81 63 81 140 c 2,14,-1
 81 400 l 2,15,16
 81 414 81 414 67 414 c 2,17,-1
 20 414 l 1,18,-1
 20 432 l 1,19,-1
 69 432 l 2,20,21
 129 432 129 432 153 438 c 1,22,-1
 153 127 l 2,23,24
 153 76 153 76 175.5 51.5 c 128,-1,25
 198 27 198 27 235 27 c 0,26,27
 288 27 288 27 321.5 91.5 c 128,-1,28
 355 156 355 156 355 277 c 2,29,-1
 355 400 l 2,30,31
 355 414 355 414 341 414 c 2,32,-1
 294 414 l 1,33,-1
 294 432 l 1,34,-1
 343 432 l 2,35,36
 403 432 403 432 427 438 c 1,0,-1
125 576 m 128,-1,38
 125 596 125 596 138.5 609.5 c 128,-1,39
 152 623 152 623 172 623 c 128,-1,40
 192 623 192 623 205.5 609.5 c 128,-1,41
 219 596 219 596 219 576 c 128,-1,42
 219 556 219 556 205.5 542.5 c 128,-1,43
 192 529 192 529 172 529 c 128,-1,44
 152 529 152 529 138.5 542.5 c 128,-1,37
 125 556 125 556 125 576 c 128,-1,38
299 576 m 128,-1,46
 299 596 299 596 312.5 609.5 c 128,-1,47
 326 623 326 623 346 623 c 128,-1,48
 366 623 366 623 379.5 609.5 c 128,-1,49
 393 596 393 596 393 576 c 128,-1,50
 393 556 393 556 379.5 542.5 c 128,-1,51
 366 529 366 529 346 529 c 128,-1,52
 326 529 326 529 312.5 542.5 c 128,-1,45
 299 556 299 556 299 576 c 128,-1,46
EndSplineSet
EndChar

StartChar: edieresis
Encoding: 235 235 62
Width: 441
Flags: HMW
HStem: -12 24<204.5 276 204.5 277.5> 223 20<117 318 117 389 116 318> 420 24<200.5 263> 529 21G<133 159 307 333> 603 20G<133 159 307 333>
VStem: 40 76<151.5 216 216 223 151.5 288.5> 322 69<288.5 324 256.5 336>
LayerCount: 2
Fore
SplineSet
242 444 m 0,0,1
 311 444 311 444 351 398 c 128,-1,2
 391 352 391 352 391 263 c 0,3,4
 391 245 391 245 389 223 c 1,5,-1
 116 223 l 1,6,-1
 116 216 l 2,7,8
 116 121 116 121 150.5 66.5 c 128,-1,9
 185 12 185 12 239.5 12 c 128,-1,10
 294 12 294 12 329 40 c 128,-1,11
 364 68 364 68 377 120 c 1,12,-1
 396 116 l 1,13,14
 384 55 384 55 341 21.5 c 128,-1,15
 298 -12 298 -12 242 -12 c 0,16,17
 155 -12 155 -12 97.5 49 c 128,-1,18
 40 110 40 110 40 215.5 c 128,-1,19
 40 321 40 321 98 382.5 c 128,-1,20
 156 444 156 444 242 444 c 0,0,1
322 297 m 0,21,22
 322 420 322 420 230.5 420 c 0,23,24
 184 420 184 420 151.5 370 c 128,-1,25
 119 320 119 320 117 243 c 1,26,-1
 318 243 l 1,27,28
 322 277 322 277 322 297 c 0,21,22
99 576 m 128,-1,30
 99 596 99 596 112.5 609.5 c 128,-1,31
 126 623 126 623 146 623 c 128,-1,32
 166 623 166 623 179.5 609.5 c 128,-1,33
 193 596 193 596 193 576 c 128,-1,34
 193 556 193 556 179.5 542.5 c 128,-1,35
 166 529 166 529 146 529 c 128,-1,36
 126 529 126 529 112.5 542.5 c 128,-1,29
 99 556 99 556 99 576 c 128,-1,30
273 576 m 128,-1,38
 273 596 273 596 286.5 609.5 c 128,-1,39
 300 623 300 623 320 623 c 128,-1,40
 340 623 340 623 353.5 609.5 c 128,-1,41
 367 596 367 596 367 576 c 128,-1,42
 367 556 367 556 353.5 542.5 c 128,-1,43
 340 529 340 529 320 529 c 128,-1,44
 300 529 300 529 286.5 542.5 c 128,-1,37
 273 556 273 556 273 576 c 128,-1,38
EndSplineSet
EndChar

StartChar: grave
Encoding: 96 96 64
Width: 150
Flags: HMW
HStem: 468 21G<134 134> 628 20G<28 44>
LayerCount: 2
Fore
SplineSet
79 614 m 2,0,-1
 150 480 l 1,1,-1
 134 468 l 1,2,-1
 0 602 l 1,3,4
 0 625 0 625 11 636.5 c 128,-1,5
 22 648 22 648 36 648 c 0,6,7
 61 648 61 648 79 614 c 2,0,-1
EndSplineSet
EndChar

StartChar: agrave
Encoding: 224 224 65
Width: 459
Flags: HMW
HStem: -12 33<381.5 389> 208 21<198 237.5 159.5 262> 420 24<188.5 240.5> 468 21G<256 256> 628 20G<150 166>
VStem: 40 68<78 121 78 129> 72 69<330 356> 287 72<102 120 120 120 267 280>
LayerCount: 2
Fore
SplineSet
286 233 m 1,0,-1
 287 268 l 1,1,-1
 287 303 l 2,2,3
 287 420 287 420 211 420 c 0,4,5
 178 420 178 420 159.5 397.5 c 128,-1,6
 141 375 141 375 141 345 c 128,-1,7
 141 315 141 315 149 293 c 1,8,9
 132 278 132 278 102 278 c 128,-1,10
 72 278 72 278 72 327 c 128,-1,11
 72 376 72 376 110.5 410 c 128,-1,12
 149 444 149 444 220 444 c 0,13,14
 359 444 359 444 359 280 c 2,15,-1
 359 75 l 2,16,17
 359 21 359 21 389 21 c 0,18,19
 403 21 403 21 413.5 34 c 128,-1,20
 424 47 424 47 424 64 c 128,-1,21
 424 81 424 81 421 96 c 1,22,-1
 440 99 l 1,23,24
 444 84 444 84 444 66 c 0,25,26
 444 30 444 30 422.5 9 c 128,-1,27
 401 -12 401 -12 366 -12 c 128,-1,28
 331 -12 331 -12 309 16.5 c 128,-1,29
 287 45 287 45 287 102 c 2,30,-1
 287 120 l 1,31,32
 270 52 270 52 233 20 c 128,-1,33
 196 -12 196 -12 147.5 -12 c 128,-1,34
 99 -12 99 -12 69.5 18.5 c 128,-1,35
 40 49 40 49 40 99.5 c 128,-1,36
 40 150 40 150 87 189.5 c 128,-1,37
 134 229 134 229 222 229 c 0,38,39
 241 229 241 229 286 224 c 1,40,-1
 286 233 l 1,0,-1
170 26 m 0,41,42
 212 26 212 26 245.5 73.5 c 128,-1,43
 279 121 279 121 285 207 c 1,44,45
 275 208 275 208 257 208 c 0,46,47
 177 208 177 208 142.5 174.5 c 128,-1,48
 108 141 108 141 108 97 c 0,49,50
 108 68 108 68 125 47 c 128,-1,51
 142 26 142 26 170 26 c 0,41,42
201 614 m 2,52,-1
 272 480 l 1,53,-1
 256 468 l 1,54,-1
 122 602 l 1,55,56
 122 625 122 625 133 636.5 c 128,-1,57
 144 648 144 648 158 648 c 0,58,59
 183 648 183 648 201 614 c 2,52,-1
EndSplineSet
EndChar

StartChar: igrave
Encoding: 236 236 67
Width: 269
Flags: HMW
HStem: 0 21G<45 239 45 45> 412 20G<45 94 94 112> 418 20G<178 178> 468 21G<160 160> 628 20G<54 70>
VStem: 106 72<32 400 400 404>
LayerCount: 2
Fore
SplineSet
106 32 m 2,0,-1
 106 400 l 2,1,2
 106 414 106 414 92 414 c 2,3,-1
 45 414 l 1,4,-1
 45 432 l 1,5,-1
 94 432 l 2,6,7
 154 432 154 432 178 438 c 1,8,-1
 178 32 l 2,9,10
 178 18 178 18 192 18 c 2,11,-1
 239 18 l 1,12,-1
 239 0 l 1,13,-1
 45 0 l 1,14,-1
 45 18 l 1,15,-1
 92 18 l 2,16,17
 106 18 106 18 106 32 c 2,0,-1
105 614 m 2,18,-1
 176 480 l 1,19,-1
 160 468 l 1,20,-1
 26 602 l 1,21,22
 26 625 26 625 37 636.5 c 128,-1,23
 48 648 48 648 62 648 c 0,24,25
 87 648 87 648 105 614 c 2,18,-1
EndSplineSet
EndChar

StartChar: ugrave
Encoding: 249 249 69
Width: 518
Flags: HMW
HStem: -12 39<211.5 234.5> 0 21G<421 439 439 488> 412 20G<20 69 69 87 294 343 343 361> 418 20G<153 153 427 427> 468 21G<289 289> 628 20G<183 199>
VStem: 81 72<140 400 400 404> 355 72<28 32 32 129 129 129 277 400 400 404>
LayerCount: 2
Fore
SplineSet
427 438 m 1,0,-1
 427 32 l 2,1,2
 427 18 427 18 441 18 c 2,3,-1
 488 18 l 1,4,-1
 488 0 l 1,5,-1
 439 0 l 2,6,7
 379 0 379 0 355 -6 c 1,8,-1
 355 129 l 1,9,10
 321 -12 321 -12 205 -12 c 0,11,12
 153 -12 153 -12 117 25.5 c 128,-1,13
 81 63 81 63 81 140 c 2,14,-1
 81 400 l 2,15,16
 81 414 81 414 67 414 c 2,17,-1
 20 414 l 1,18,-1
 20 432 l 1,19,-1
 69 432 l 2,20,21
 129 432 129 432 153 438 c 1,22,-1
 153 127 l 2,23,24
 153 76 153 76 175.5 51.5 c 128,-1,25
 198 27 198 27 235 27 c 0,26,27
 288 27 288 27 321.5 91.5 c 128,-1,28
 355 156 355 156 355 277 c 2,29,-1
 355 400 l 2,30,31
 355 414 355 414 341 414 c 2,32,-1
 294 414 l 1,33,-1
 294 432 l 1,34,-1
 343 432 l 2,35,36
 403 432 403 432 427 438 c 1,0,-1
234 614 m 2,37,-1
 305 480 l 1,38,-1
 289 468 l 1,39,-1
 155 602 l 1,40,41
 155 625 155 625 166 636.5 c 128,-1,42
 177 648 177 648 191 648 c 0,43,44
 216 648 216 648 234 614 c 2,37,-1
EndSplineSet
EndChar

StartChar: X
Encoding: 88 88 70
Width: 535
Flags: HMW
HStem: 0 21G<0 137 0 0 341 535 341 341> 610 20G<10 204 204 204 389 526 526 526>
LayerCount: 2
Fore
SplineSet
154 612 m 1,0,-1
 287 374 l 1,1,-1
 439 612 l 1,2,-1
 389 612 l 1,3,-1
 389 630 l 1,4,-1
 526 630 l 1,5,-1
 526 612 l 1,6,-1
 489 612 l 2,7,8
 480 612 480 612 470 598 c 2,9,-1
 305 342 l 1,10,-1
 479 32 l 2,11,12
 486 18 486 18 498 18 c 2,13,-1
 535 18 l 1,14,-1
 535 0 l 1,15,-1
 341 0 l 1,16,-1
 341 18 l 1,17,-1
 391 18 l 1,18,-1
 249 271 l 1,19,-1
 87 18 l 1,20,-1
 137 18 l 1,21,-1
 137 0 l 1,22,-1
 0 0 l 1,23,-1
 0 18 l 1,24,-1
 37 18 l 2,25,26
 46 18 46 18 56 32 c 2,27,-1
 231 303 l 1,28,-1
 66 598 l 2,29,30
 59 612 59 612 47 612 c 2,31,-1
 10 612 l 1,32,-1
 10 630 l 1,33,-1
 204 630 l 1,34,-1
 204 612 l 1,35,-1
 154 612 l 1,0,-1
EndSplineSet
Position2: "'cpsp' Capital Spacing in Latin lookup 0 subtable" dx=7 dy=0 dh=35 dv=0
EndChar

StartChar: Z
Encoding: 90 90 71
Width: 515
Flags: HMW
HStem: -9 21G 0 28<30 30 126 374> 602 28<162 388 162 485> 619 20G
LayerCount: 2
Fore
SplineSet
30 0 m 1,0,-1
 30 28 l 1,1,-1
 388 602 l 1,2,-1
 126 602 l 2,3,4
 100 602 100 602 98 580 c 2,5,-1
 83 463 l 1,6,-1
 60 463 l 1,7,-1
 60 510 l 2,8,9
 60 598 60 598 51 639 c 1,10,11
 83 630 83 630 162 630 c 2,12,-1
 485 630 l 1,13,-1
 485 602 l 1,14,-1
 126 28 l 1,15,-1
 410 28 l 2,16,17
 436 28 436 28 438 50 c 2,18,-1
 453 167 l 1,19,-1
 476 167 l 1,20,-1
 476 120 l 2,21,22
 476 32 476 32 485 -9 c 1,23,24
 453 0 453 0 374 0 c 2,25,-1
 30 0 l 1,0,-1
EndSplineSet
Position2: "'cpsp' Capital Spacing in Latin lookup 0 subtable" dx=7 dy=0 dh=35 dv=0
EndChar

StartChar: slash
Encoding: 47 47 72
Width: 319
Flags: HMW
HStem: -74 21G<15 54 15 15> 628 20G<264 304 304 304>
LayerCount: 2
Fore
SplineSet
54 -74 m 1,0,-1
 15 -74 l 1,1,-1
 264 648 l 1,2,-1
 304 648 l 1,3,-1
 54 -74 l 1,0,-1
EndSplineSet
EndChar

StartChar: Oslash
Encoding: 216 216 74
Width: 643
Flags: HMW
HStem: -43 21G<177 216 177 177> -12 26<266 376 266 404> 616 26<266 376> 659 20G<426 466 466 466>
VStem: 35 85<219 411 219 419> 523 85<219 411>
LayerCount: 2
Fore
SplineSet
35 315 m 128,-1,1
 35 468 35 468 114.5 555 c 128,-1,2
 194 642 194 642 321.5 642 c 0,3,4
 449 642 449 642 528.5 555 c 128,-1,5
 608 468 608 468 608 315 c 128,-1,6
 608 162 608 162 528.5 75 c 128,-1,7
 449 -12 449 -12 321.5 -12 c 0,8,9
 194 -12 194 -12 114.5 75 c 128,-1,0
 35 162 35 162 35 315 c 128,-1,1
120 315 m 128,-1,11
 120 176 120 176 177.5 95 c 128,-1,12
 235 14 235 14 321 14 c 128,-1,13
 407 14 407 14 465 95 c 128,-1,14
 523 176 523 176 523 315 c 128,-1,15
 523 454 523 454 465 535 c 128,-1,16
 407 616 407 616 321 616 c 128,-1,17
 235 616 235 616 177.5 535 c 128,-1,10
 120 454 120 454 120 315 c 128,-1,11
216 -43 m 1,18,-1
 177 -43 l 1,19,-1
 426 679 l 1,20,-1
 466 679 l 1,21,-1
 216 -43 l 1,18,-1
EndSplineSet
EndChar

StartChar: circumflex
Encoding: 710 710 75
Width: 208
Flags: HMW
HStem: 468 21G<16 16 192 192> 628 20G<94.5 111.5>
LayerCount: 2
Fore
SplineSet
61 614 m 2,0,1
 77 648 77 648 104 648 c 128,-1,2
 131 648 131 648 147 614 c 2,3,-1
 208 480 l 1,4,-1
 192 468 l 1,5,-1
 103 583 l 1,6,-1
 16 468 l 1,7,-1
 0 480 l 1,8,-1
 61 614 l 2,0,1
EndSplineSet
EndChar

StartChar: ecircumflex
Encoding: 234 234 77
Width: 441
Flags: HMW
HStem: -12 24<204.5 276 204.5 277.5> 223 20<117 318 117 389 116 318> 420 24<200.5 263> 468 21G<142 142 318 318> 628 20G<220.5 237.5>
VStem: 40 76<151.5 216 216 223 151.5 288.5> 322 69<288.5 324 256.5 336>
LayerCount: 2
Fore
SplineSet
242 444 m 0,0,1
 311 444 311 444 351 398 c 128,-1,2
 391 352 391 352 391 263 c 0,3,4
 391 245 391 245 389 223 c 1,5,-1
 116 223 l 1,6,-1
 116 216 l 2,7,8
 116 121 116 121 150.5 66.5 c 128,-1,9
 185 12 185 12 239.5 12 c 128,-1,10
 294 12 294 12 329 40 c 128,-1,11
 364 68 364 68 377 120 c 1,12,-1
 396 116 l 1,13,14
 384 55 384 55 341 21.5 c 128,-1,15
 298 -12 298 -12 242 -12 c 0,16,17
 155 -12 155 -12 97.5 49 c 128,-1,18
 40 110 40 110 40 215.5 c 128,-1,19
 40 321 40 321 98 382.5 c 128,-1,20
 156 444 156 444 242 444 c 0,0,1
322 297 m 0,21,22
 322 420 322 420 230.5 420 c 0,23,24
 184 420 184 420 151.5 370 c 128,-1,25
 119 320 119 320 117 243 c 1,26,-1
 318 243 l 1,27,28
 322 277 322 277 322 297 c 0,21,22
187 614 m 2,29,30
 203 648 203 648 230 648 c 128,-1,31
 257 648 257 648 273 614 c 2,32,-1
 334 480 l 1,33,-1
 318 468 l 1,34,-1
 229 583 l 1,35,-1
 142 468 l 1,36,-1
 126 480 l 1,37,-1
 187 614 l 2,29,30
EndSplineSet
EndChar

StartChar: ocircumflex
Encoding: 244 244 79
Width: 485
Flags: HMW
HStem: -12 22<207 277 207 300.5> 422 22<207 277> 468 21G<154 154 330 330> 628 20G<232.5 249.5>
VStem: 40 76<150.5 281.5 150.5 288.5> 369 76<150.5 281.5>
LayerCount: 2
Fore
SplineSet
40 216 m 128,-1,1
 40 322 40 322 96 383 c 128,-1,2
 152 444 152 444 242 444 c 128,-1,3
 332 444 332 444 388.5 383 c 128,-1,4
 445 322 445 322 445 216 c 128,-1,5
 445 110 445 110 388.5 49 c 128,-1,6
 332 -12 332 -12 242 -12 c 128,-1,7
 152 -12 152 -12 96 49 c 128,-1,0
 40 110 40 110 40 216 c 128,-1,1
116 216 m 128,-1,9
 116 121 116 121 152 65.5 c 128,-1,10
 188 10 188 10 242 10 c 128,-1,11
 296 10 296 10 332.5 65.5 c 128,-1,12
 369 121 369 121 369 216 c 128,-1,13
 369 311 369 311 332.5 366.5 c 128,-1,14
 296 422 296 422 242 422 c 128,-1,15
 188 422 188 422 152 366.5 c 128,-1,8
 116 311 116 311 116 216 c 128,-1,9
199 614 m 2,16,17
 215 648 215 648 242 648 c 128,-1,18
 269 648 269 648 285 614 c 2,19,-1
 346 480 l 1,20,-1
 330 468 l 1,21,-1
 241 583 l 1,22,-1
 154 468 l 1,23,-1
 138 480 l 1,24,-1
 199 614 l 2,16,17
EndSplineSet
EndChar

StartChar: tilde
Encoding: 732 732 81
Width: 278
Flags: HMW
HStem: 498 21G<15 15> 543 61<70.5 100 69.5 102>
LayerCount: 2
Fore
SplineSet
263 624 m 1,0,-1
 278 617 l 1,1,2
 254 517 254 517 194 517 c 0,3,4
 178 517 178 517 140.5 530 c 128,-1,5
 103 543 103 543 83 543 c 0,6,7
 40 543 40 543 15 498 c 1,8,-1
 0 505 l 1,9,10
 12 558 12 558 35 581 c 128,-1,11
 58 604 58 604 78.5 604 c 0,12,13
 99 604 99 604 137 591 c 128,-1,14
 175 578 175 578 195 578 c 0,15,16
 238 578 238 578 263 624 c 1,0,-1
EndSplineSet
EndChar

StartChar: Q
Encoding: 81 81 83
Width: 643
Flags: HMW
HStem: -191 21G<447 447> 616 26<266 376>
VStem: 35 85<219 411 219 419> 523 85<219 411>
LayerCount: 2
Fore
SplineSet
104 87.5 m 128,-1,1
 35 173 35 173 35 320.5 c 128,-1,2
 35 468 35 468 114.5 555 c 128,-1,3
 194 642 194 642 321.5 642 c 128,-1,4
 449 642 449 642 528.5 555 c 128,-1,5
 608 468 608 468 608 321 c 128,-1,6
 608 174 608 174 539.5 88.5 c 128,-1,7
 471 3 471 3 358 -10 c 1,8,-1
 364 -77 l 2,9,10
 367 -114 367 -114 385.5 -136 c 128,-1,11
 404 -158 404 -158 451 -167 c 1,12,-1
 447 -191 l 1,13,14
 361 -182 361 -182 329.5 -152.5 c 128,-1,15
 298 -123 298 -123 292 -59 c 2,16,-1
 287 -10 l 1,17,0
 173 2 173 2 104 87.5 c 128,-1,1
120 315 m 128,-1,19
 120 176 120 176 177.5 95 c 128,-1,20
 235 14 235 14 321 14 c 128,-1,21
 407 14 407 14 465 95 c 128,-1,22
 523 176 523 176 523 315 c 128,-1,23
 523 454 523 454 465 535 c 128,-1,24
 407 616 407 616 321 616 c 128,-1,25
 235 616 235 616 177.5 535 c 128,-1,18
 120 454 120 454 120 315 c 128,-1,19
EndSplineSet
Position2: "'cpsp' Capital Spacing in Latin lookup 0 subtable" dx=7 dy=0 dh=35 dv=0
EndChar

StartChar: J
Encoding: 74 74 84
Width: 269
Flags: HMW
HStem: -159 24<24 55.5 24 78.5> -12 21G<-50.5 -29> 610 20G<35 239 239 239>
VStem: -75 70<-88.5 -79 -101 -53> 96 82<33 127 127 598>
LayerCount: 2
Fore
SplineSet
178 598 m 2,0,-1
 178 127 l 2,1,2
 178 -159 178 -159 30 -159 c 0,3,4
 -25 -159 -25 -159 -50 -131.5 c 128,-1,5
 -75 -104 -75 -104 -75 -74 c 0,6,7
 -75 -12 -75 -12 -38 -12 c 0,8,9
 -7 -12 -7 -12 11 -27 c 1,10,11
 -5 -55 -5 -55 -5 -81.5 c 0,12,13
 -5 -135 -5 -135 39 -135 c 0,14,15
 96 -135 96 -135 96 -45 c 2,16,-1
 96 600 l 2,17,18
 96 612 96 612 82 612 c 2,19,-1
 35 612 l 1,20,-1
 35 630 l 1,21,-1
 239 630 l 1,22,-1
 239 612 l 1,23,-1
 192 612 l 2,24,25
 178 612 178 612 178 598 c 2,0,-1
EndSplineSet
Position2: "'cpsp' Capital Spacing in Latin lookup 0 subtable" dx=7 dy=0 dh=35 dv=0
EndChar

StartChar: atilde
Encoding: 227 227 85
Width: 459
Flags: HMW
HStem: -12 33<381.5 389> 208 21<198 237.5 159.5 262> 420 24<188.5 240.5> 498 21G<91 91> 543 61<146.5 176 145.5 178>
VStem: 40 68<78 121 78 129> 72 69<330 356> 287 72<102 120 120 120 267 280>
LayerCount: 2
Fore
SplineSet
286 233 m 1,0,-1
 287 268 l 1,1,-1
 287 303 l 2,2,3
 287 420 287 420 211 420 c 0,4,5
 178 420 178 420 159.5 397.5 c 128,-1,6
 141 375 141 375 141 345 c 128,-1,7
 141 315 141 315 149 293 c 1,8,9
 132 278 132 278 102 278 c 128,-1,10
 72 278 72 278 72 327 c 128,-1,11
 72 376 72 376 110.5 410 c 128,-1,12
 149 444 149 444 220 444 c 0,13,14
 359 444 359 444 359 280 c 2,15,-1
 359 75 l 2,16,17
 359 21 359 21 389 21 c 0,18,19
 403 21 403 21 413.5 34 c 128,-1,20
 424 47 424 47 424 64 c 128,-1,21
 424 81 424 81 421 96 c 1,22,-1
 440 99 l 1,23,24
 444 84 444 84 444 66 c 0,25,26
 444 30 444 30 422.5 9 c 128,-1,27
 401 -12 401 -12 366 -12 c 128,-1,28
 331 -12 331 -12 309 16.5 c 128,-1,29
 287 45 287 45 287 102 c 2,30,-1
 287 120 l 1,31,32
 270 52 270 52 233 20 c 128,-1,33
 196 -12 196 -12 147.5 -12 c 128,-1,34
 99 -12 99 -12 69.5 18.5 c 128,-1,35
 40 49 40 49 40 99.5 c 128,-1,36
 40 150 40 150 87 189.5 c 128,-1,37
 134 229 134 229 222 229 c 0,38,39
 241 229 241 229 286 224 c 1,40,-1
 286 233 l 1,0,-1
170 26 m 0,41,42
 212 26 212 26 245.5 73.5 c 128,-1,43
 279 121 279 121 285 207 c 1,44,45
 275 208 275 208 257 208 c 0,46,47
 177 208 177 208 142.5 174.5 c 128,-1,48
 108 141 108 141 108 97 c 0,49,50
 108 68 108 68 125 47 c 128,-1,51
 142 26 142 26 170 26 c 0,41,42
339 624 m 1,52,-1
 354 617 l 1,53,54
 330 517 330 517 270 517 c 0,55,56
 254 517 254 517 216.5 530 c 128,-1,57
 179 543 179 543 159 543 c 0,58,59
 116 543 116 543 91 498 c 1,60,-1
 76 505 l 1,61,62
 88 558 88 558 111 581 c 128,-1,63
 134 604 134 604 154.5 604 c 128,-1,64
 175 604 175 604 213 591 c 128,-1,65
 251 578 251 578 271 578 c 0,66,67
 314 578 314 578 339 624 c 1,52,-1
EndSplineSet
EndChar

StartChar: one
Encoding: 49 49 87
Width: 463
Flags: HMW
HStem: 0 21G<73 73 73 387> 559 20G
VStem: 204 74<31 33 33 465>
LayerCount: 2
Fore
SplineSet
73 0 m 1,0,-1
 73 19 l 1,1,-1
 190 19 l 2,2,3
 202 19 202 19 204 31 c 1,4,-1
 204 491 l 2,5,6
 204 516 204 516 174 516 c 1,7,-1
 63 510 l 1,8,-1
 61 534 l 1,9,-1
 152 547 l 2,10,11
 238 560 238 560 288 579 c 1,12,13
 278 541 278 541 278 465 c 2,14,-1
 278 33 l 2,15,16
 278 19 278 19 293 19 c 2,17,-1
 387 19 l 1,18,-1
 387 0 l 1,19,-1
 73 0 l 1,0,-1
EndSplineSet
EndChar

StartChar: zero
Encoding: 48 48 88
Width: 463
Flags: HMW
HStem: -12 21<196 266 196 291> 557 22<196 266>
VStem: 24 77<196 370 196 377.5> 362 77<196 370>
LayerCount: 2
Fore
SplineSet
81.5 66.5 m 128,-1,1
 24 145 24 145 24 283.5 c 128,-1,2
 24 422 24 422 81.5 500.5 c 128,-1,3
 139 579 139 579 231 579 c 128,-1,4
 323 579 323 579 381 500.5 c 128,-1,5
 439 422 439 422 439 283.5 c 128,-1,6
 439 145 439 145 381 66.5 c 128,-1,7
 323 -12 323 -12 231 -12 c 128,-1,0
 139 -12 139 -12 81.5 66.5 c 128,-1,1
101 283 m 128,-1,9
 101 157 101 157 138.5 83 c 128,-1,10
 176 9 176 9 231 9 c 128,-1,11
 286 9 286 9 324 83 c 128,-1,12
 362 157 362 157 362 283 c 128,-1,13
 362 409 362 409 324 483 c 128,-1,14
 286 557 286 557 231 557 c 128,-1,15
 176 557 176 557 138.5 483 c 128,-1,8
 101 409 101 409 101 283 c 128,-1,9
EndSplineSet
EndChar

StartChar: exclam
Encoding: 33 33 89
Width: 274
Flags: HMW
HStem: -12 21G<124 150> 622 20G<122 152>
VStem: 90 93<568 601.5>
LayerCount: 2
Fore
SplineSet
183 583 m 1,0,-1
 150 170 l 1,1,-1
 124 170 l 1,2,-1
 90 583 l 1,3,4
 90 642 90 642 136.5 642 c 128,-1,5
 183 642 183 642 183 583 c 1,0,-1
185 36 m 128,-1,7
 185 16 185 16 170.5 2 c 128,-1,8
 156 -12 156 -12 137 -12 c 128,-1,9
 118 -12 118 -12 103.5 2 c 128,-1,10
 89 16 89 16 89 36 c 128,-1,11
 89 56 89 56 103.5 70 c 128,-1,12
 118 84 118 84 137 84 c 128,-1,13
 156 84 156 84 170.5 70 c 128,-1,6
 185 56 185 56 185 36 c 128,-1,7
EndSplineSet
EndChar

StartChar: three
Encoding: 51 51 90
Width: 463
Flags: HMW
HStem: -12 21<178.5 248.5 178.5 274.5> 557 22<193.5 243.5>
VStem: 54 69<79 101.5 69 127> 76 68<474.5 503> 303 73<425.5 482> 334 76<116.5 194 116.5 196>
LayerCount: 2
Fore
SplineSet
128 282 m 1,0,-1
 125 301 l 1,1,-1
 168 309 l 2,2,3
 233 321 233 321 268 363 c 128,-1,4
 303 405 303 405 303 451 c 128,-1,5
 303 497 303 497 279.5 527 c 128,-1,6
 256 557 256 557 219.5 557 c 128,-1,7
 183 557 183 557 163.5 536.5 c 128,-1,8
 144 516 144 516 144 485.5 c 128,-1,9
 144 455 144 455 159 423 c 1,10,11
 142 408 142 408 118.5 408 c 0,12,13
 76 408 76 408 76 464 c 128,-1,14
 76 520 76 520 116.5 549.5 c 128,-1,15
 157 579 157 579 218 579 c 128,-1,16
 279 579 279 579 327.5 545.5 c 128,-1,17
 376 512 376 512 376 460.5 c 128,-1,18
 376 409 376 409 341.5 367.5 c 128,-1,19
 307 326 307 326 246 308 c 1,20,21
 324 299 324 299 367 256.5 c 128,-1,22
 410 214 410 214 410 160 c 0,23,24
 410 90 410 90 356.5 39 c 128,-1,25
 303 -12 303 -12 207 -12 c 0,26,27
 132 -12 132 -12 93 23.5 c 128,-1,28
 54 59 54 59 54 113.5 c 128,-1,29
 54 168 54 168 90 168 c 0,30,31
 120 168 120 168 136 152 c 1,32,33
 123 126 123 126 123 91 c 128,-1,34
 123 56 123 56 144.5 32.5 c 128,-1,35
 166 9 166 9 207 9 c 0,36,37
 266 9 266 9 300 50 c 128,-1,38
 334 91 334 91 334 153.5 c 128,-1,39
 334 216 334 216 290 251 c 128,-1,40
 246 286 246 286 175 286 c 0,41,42
 149 286 149 286 128 282 c 1,0,-1
EndSplineSet
EndChar

StartChar: seven
Encoding: 55 55 91
Width: 463
Flags: HMW
HStem: -12 21G<200.5 224> 504 62<126 424 175 366> 556 20G
VStem: 176 69<15 97.5>
LayerCount: 2
Fore
SplineSet
424 566 m 1,0,-1
 270 188 l 2,1,2
 245 125 245 125 245 82.5 c 0,3,4
 245 40 245 40 262 3 c 1,5,6
 246 -12 246 -12 215 -12 c 0,7,8
 176 -12 176 -12 176 27 c 0,9,10
 176 61 176 61 230 188 c 2,11,-1
 366 504 l 1,12,-1
 135 504 l 2,13,14
 108 504 108 504 106 481 c 1,15,-1
 94 394 l 1,16,-1
 70 394 l 1,17,-1
 70 443 l 2,18,19
 70 533 70 533 61 576 c 1,20,21
 97 566 97 566 175 566 c 2,22,-1
 424 566 l 1,0,-1
EndSplineSet
EndChar

StartChar: two
Encoding: 50 50 92
Width: 463
Flags: HMW
HStem: -9 21G 0 63<116 305> 557 22<191 253>
VStem: 60 69<465 487> 319 78<410 472>
LayerCount: 2
Fore
SplineSet
293.5 524 m 128,-1,1
 268 557 268 557 222.5 557 c 128,-1,2
 177 557 177 557 153 534 c 128,-1,3
 129 511 129 511 129 476 c 128,-1,4
 129 441 129 441 142 414 c 1,5,6
 125 399 125 399 96 399 c 0,7,8
 60 399 60 399 60 453.5 c 128,-1,9
 60 508 60 508 99.5 543.5 c 128,-1,10
 139 579 139 579 221.5 579 c 128,-1,11
 304 579 304 579 350.5 540 c 128,-1,12
 397 501 397 501 397 447 c 0,13,14
 397 372 397 372 327 292 c 0,15,16
 320 284 320 284 294.5 256.5 c 128,-1,17
 269 229 269 229 265 224 c 2,18,-1
 116 63 l 1,19,-1
 346 63 l 2,20,21
 370 63 370 63 374 85 c 2,22,-1
 387 172 l 1,23,-1
 410 172 l 1,24,-1
 410 124 l 2,25,26
 410 36 410 36 420 -9 c 1,27,28
 386 0 386 0 305 0 c 2,29,-1
 20 0 l 1,30,-1
 247 250 l 2,31,32
 319 330 319 330 319 434 c 0,33,0
 319 491 319 491 293.5 524 c 128,-1,1
EndSplineSet
EndChar

StartChar: four
Encoding: 52 52 93
Width: 463
Flags: HMW
HStem: 0 21G<193 434 193 193> 134 31<57 276 57 276 350 434> 559 20G<317 350 350 350>
VStem: 276 74<33 134 165 472 472 472>
LayerCount: 2
Fore
SplineSet
317 579 m 1,0,-1
 350 579 l 1,1,-1
 350 165 l 1,2,-1
 434 165 l 1,3,-1
 434 134 l 1,4,-1
 350 134 l 1,5,-1
 350 31 l 2,6,7
 350 19 350 19 365 19 c 2,8,-1
 434 19 l 1,9,-1
 434 0 l 1,10,-1
 193 0 l 1,11,-1
 193 19 l 1,12,-1
 262 19 l 2,13,14
 276 19 276 19 276 33 c 2,15,-1
 276 134 l 1,16,-1
 0 134 l 1,17,-1
 317 579 l 1,0,-1
57 165 m 1,18,-1
 276 165 l 1,19,-1
 276 472 l 1,20,-1
 57 165 l 1,18,-1
EndSplineSet
EndChar

StartChar: five
Encoding: 53 53 94
Width: 463
Flags: HMW
HStem: -12 21<181.5 252 181.5 277.5> 302 29<197 222.5> 501 65<140 310 140 140> 589 20G<373 396>
VStem: 57 69<79 101.5 69 127> 337 76<116.5 201>
LayerCount: 2
Fore
SplineSet
93 288 m 1,0,-1
 115 566 l 1,1,-1
 344 566 l 2,2,3
 370 566 370 566 373 589 c 2,4,-1
 375 609 l 1,5,-1
 396 609 l 1,6,-1
 393 575 l 2,7,8
 389 525 389 525 373 513 c 128,-1,9
 357 501 357 501 310 501 c 2,10,-1
 140 501 l 1,11,-1
 125 321 l 1,12,13
 169 331 169 331 210 331 c 0,14,15
 306 331 306 331 359.5 280 c 128,-1,16
 413 229 413 229 413 159.5 c 0,17,18
 413 90 413 90 359.5 39 c 128,-1,19
 306 -12 306 -12 210 -12 c 0,20,21
 135 -12 135 -12 96 23.5 c 128,-1,22
 57 59 57 59 57 113.5 c 0,23,24
 57 168 57 168 93 168 c 0,25,26
 123 168 123 168 139 152 c 1,27,28
 126 126 126 126 126 91 c 0,29,30
 126 56 126 56 147.5 32.5 c 128,-1,31
 169 9 169 9 210 9 c 0,32,33
 270 9 270 9 303.5 50 c 128,-1,34
 337 91 337 91 337 157.5 c 0,35,36
 337 224 337 224 292.5 263 c 128,-1,37
 248 302 248 302 178 302 c 0,38,39
 134 302 134 302 93 288 c 1,0,-1
EndSplineSet
EndChar

StartChar: eight
Encoding: 56 56 95
Width: 463
Flags: HMW
HStem: -12 21<202 259.5 202 284.5> 289 22<207 255 207 259.5> 557 22<207 255>
VStem: 46 78<104.5 188> 72 70<401 473.5 394.5 480.5> 320 70<401 473.5> 339 51 339 77<104.5 188 97 194>
LayerCount: 2
Fore
SplineSet
72 435 m 0,0,1
 72 502 72 502 116 540.5 c 128,-1,2
 160 579 160 579 231 579 c 128,-1,3
 302 579 302 579 346 540.5 c 128,-1,4
 390 502 390 502 390 435 c 0,5,6
 390 385 390 385 364.5 350.5 c 128,-1,7
 339 316 339 316 295 301 c 1,8,9
 351 286 351 286 383.5 246.5 c 128,-1,10
 416 207 416 207 416 140 c 0,11,12
 416 73 416 73 364.5 30.5 c 128,-1,13
 313 -12 313 -12 231 -12 c 128,-1,14
 149 -12 149 -12 97.5 30.5 c 128,-1,15
 46 73 46 73 46 140 c 0,16,17
 46 207 46 207 78 246.5 c 128,-1,18
 110 286 110 286 166 301 c 1,19,20
 122 316 122 316 97 350.5 c 128,-1,21
 72 385 72 385 72 435 c 0,0,1
124 149 m 128,-1,23
 124 84 124 84 155 46.5 c 128,-1,24
 186 9 186 9 231 9 c 128,-1,25
 276 9 276 9 307.5 47 c 128,-1,26
 339 85 339 85 339 149.5 c 0,27,28
 339 214 339 214 307.5 251.5 c 128,-1,29
 276 289 276 289 231 289 c 128,-1,30
 186 289 186 289 155 251.5 c 128,-1,22
 124 214 124 214 124 149 c 128,-1,23
142 434 m 128,-1,32
 142 377 142 377 167.5 344 c 128,-1,33
 193 311 193 311 231 311 c 128,-1,34
 269 311 269 311 294.5 344 c 128,-1,35
 320 377 320 377 320 434 c 128,-1,36
 320 491 320 491 294.5 524 c 128,-1,37
 269 557 269 557 231 557 c 128,-1,38
 193 557 193 557 167.5 524 c 128,-1,31
 142 491 142 491 142 434 c 128,-1,32
EndSplineSet
EndChar

StartChar: six
Encoding: 54 54 96
Width: 463
Flags: HMW
HStem: -12 21<210 268.5 210 292.5> 315 29<232.5 265.5> 559 20G<360 360>
VStem: 51 81<132.5 222.5 123.5 261> 347 77<114.5 213.5>
LayerCount: 2
Fore
SplineSet
360 579 m 1,0,-1
 368 555 l 1,1,2
 310.389830508 535.796610169 310.389830508 535.796610169 247 478 c 0,3,4
 213 447 213 447 184.5 396.5 c 128,-1,5
 156 346 156 346 142 286 c 1,6,7
 182 344 182 344 251 344 c 128,-1,8
 320 344 320 344 372 294.5 c 128,-1,9
 424 245 424 245 424 164.5 c 128,-1,10
 424 84 424 84 372.5 36 c 128,-1,11
 321 -12 321 -12 234.5 -12 c 128,-1,12
 148 -12 148 -12 99.5 44 c 128,-1,13
 51 100 51 100 51 181.5 c 128,-1,14
 51 263 51 263 85 339.5 c 128,-1,15
 119 416 119 416 191 482 c 128,-1,16
 263 548 263 548 360 579 c 1,0,-1
163 278.5 m 128,-1,18
 132 242 132 242 132 171 c 128,-1,19
 132 100 132 100 163 54.5 c 128,-1,20
 194 9 194 9 239.5 9 c 128,-1,21
 285 9 285 9 316 50.5 c 128,-1,22
 347 92 347 92 347 163.5 c 128,-1,23
 347 235 347 235 315 275 c 128,-1,24
 283 315 283 315 238.5 315 c 128,-1,17
 194 315 194 315 163 278.5 c 128,-1,18
EndSplineSet
EndChar

StartChar: nine
Encoding: 57 57 97
Width: 463
Flags: HMW
HStem: -12 21G<120 120> 217 29<213 245.5> 557 22<205 261.5>
VStem: 55 77<354 454.5 354 455> 340 79<342.5 435 307 442.5>
LayerCount: 2
Fore
SplineSet
120 -12 m 1,0,-1
 112 11 l 1,1,2
 166.543103448 29.1810344828 166.543103448 29.1810344828 229.5 86.5 c 0,3,4
 263 117 263 117 290.5 166 c 128,-1,5
 318 215 318 215 331 274 c 1,6,7
 294 217 294 217 227 217 c 128,-1,8
 160 217 160 217 107.5 267.5 c 128,-1,9
 55 318 55 318 55 400.5 c 128,-1,10
 55 483 55 483 103 531 c 128,-1,11
 151 579 151 579 236 579 c 128,-1,12
 321 579 321 579 370 522.5 c 128,-1,13
 419 466 419 466 419 385 c 128,-1,14
 419 304 419 304 388 228.5 c 128,-1,15
 357 153 357 153 287.5 86 c 128,-1,16
 218 19 218 19 120 -12 c 1,0,-1
311.5 284 m 128,-1,18
 340 322 340 322 340 394 c 128,-1,19
 340 466 340 466 309 511.5 c 128,-1,20
 278 557 278 557 234 557 c 128,-1,21
 190 557 190 557 161 516.5 c 128,-1,22
 132 476 132 476 132 404 c 128,-1,23
 132 332 132 332 164 289 c 128,-1,24
 196 246 196 246 239.5 246 c 128,-1,17
 283 246 283 246 311.5 284 c 128,-1,18
EndSplineSet
EndChar

StartChar: C
Encoding: 67 67 98
Width: 563
Flags: HMW
HStem: -12 29<263.5 366 263.5 369> 0 21G<499 499 499 518> 613 29<262 366> 616 20G<499 518 518 518>
VStem: 35 85<219.5 408 219.5 418>
LayerCount: 2
Fore
SplineSet
499 0 m 1,0,-1
 498 14 l 2,1,2
 497 35 497 35 482 35 c 0,3,4
 474 35 474 35 453 23.5 c 0,5,6
 388.173913043 -12 388.173913043 -12 322 -12 c 0,7,8
 196 -12 196 -12 115.5 75 c 128,-1,9
 35 162 35 162 35 314.5 c 128,-1,10
 35 467 35 467 114.5 554.5 c 128,-1,11
 194 642 194 642 322 642 c 0,12,13
 387 642 387 642 451.5 609 c 0,14,15
 473 598 473 598 482 598 c 0,16,17
 497 598 497 598 498 619 c 2,18,-1
 499 636 l 1,19,-1
 518 636 l 1,20,-1
 518 463 l 1,21,-1
 500 463 l 1,22,23
 491 540 491 540 442.5 576.5 c 128,-1,24
 394 613 394 613 322 613 c 0,25,26
 231 613 231 613 175.5 533 c 128,-1,27
 120 453 120 453 120 314 c 128,-1,28
 120 175 120 175 176 96 c 128,-1,29
 232 17 232 17 322 17 c 0,30,31
 394 17 394 17 442.5 53.5 c 128,-1,32
 491 90 491 90 500 167 c 1,33,-1
 518 167 l 1,34,-1
 518 0 l 1,35,-1
 499 0 l 1,0,-1
EndSplineSet
Position2: "'cpsp' Capital Spacing in Latin lookup 0 subtable" dx=7 dy=0 dh=35 dv=0
EndChar

StartChar: G
Encoding: 71 71 99
Width: 591
Flags: HMW
HStem: -12 29<263.5 377 263.5 388.5> 613 29<262 366> 616 20G<499 518 518 518>
VStem: 35 85<219.5 408 219.5 418> 468 82<188 192 192 228 132.5 231.5>
LayerCount: 2
Fore
SplineSet
322 613 m 0,0,1
 231 613 231 613 175.5 533 c 128,-1,2
 120 453 120 453 120 314 c 128,-1,3
 120 175 120 175 176 96 c 128,-1,4
 232 17 232 17 316.5 17 c 128,-1,5
 401 17 401 17 434.5 60.5 c 128,-1,6
 468 104 468 104 468 188 c 2,7,-1
 468 228 l 2,8,9
 468 240 468 240 454 240 c 2,10,-1
 387 240 l 1,11,-1
 387 258 l 1,12,-1
 591 258 l 1,13,-1
 591 240 l 1,14,-1
 564 240 l 2,15,16
 550 240 550 240 550 228 c 2,17,-1
 550 192 l 2,18,19
 550 103 550 103 486 45.5 c 128,-1,20
 422 -12 422 -12 322 -12 c 0,21,22
 196 -12 196 -12 115.5 75 c 128,-1,23
 35 162 35 162 35 314.5 c 128,-1,24
 35 467 35 467 114.5 554.5 c 128,-1,25
 194 642 194 642 322 642 c 0,26,27
 387 642 387 642 451.5 609 c 0,28,29
 473 598 473 598 482 598 c 0,30,31
 497 598 497 598 498 619 c 2,32,-1
 499 636 l 1,33,-1
 518 636 l 1,34,-1
 518 463 l 1,35,-1
 500 463 l 1,36,37
 491 540 491 540 442.5 576.5 c 128,-1,38
 394 613 394 613 322 613 c 0,0,1
EndSplineSet
Position2: "'cpsp' Capital Spacing in Latin lookup 0 subtable" dx=7 dy=0 dh=35 dv=0
EndChar

StartChar: S
Encoding: 83 83 100
Width: 497
Flags: HMW
HStem: -12 29<202 289 202 314> 0 21G<50 69 50 50> 613 29<209 287> 616 20G<400 420>
VStem: 59 68<479 508.5> 376 81<118.5 160>
LayerCount: 2
Fore
SplineSet
248 -12 m 0,0,1
 181.869565217 -12 181.869565217 -12 115.5 23.5 c 0,2,3
 94 35 94 35 86 35 c 0,4,5
 71 35 71 35 70 14 c 2,6,-1
 69 0 l 1,7,-1
 50 0 l 1,8,-1
 50 167 l 1,9,-1
 68 167 l 1,10,11
 77 90 77 90 125.5 53.5 c 128,-1,12
 174 17 174 17 240.5 17 c 128,-1,13
 307 17 307 17 341.5 53 c 128,-1,14
 376 89 376 89 376 138 c 0,15,16
 376 216 376 216 286 256 c 2,17,-1
 167 309 l 2,18,19
 113 333 113 333 86 374.5 c 128,-1,20
 59 416 59 416 59 464 c 0,21,22
 59 537 59 537 108 589.5 c 128,-1,23
 157 642 157 642 249 642 c 0,24,25
 303.391304348 642 303.391304348 642 360.5 606.5 c 0,26,27
 379 595 379 595 386 595 c 0,28,29
 399 595 399 595 400 616 c 2,30,-1
 401 636 l 1,31,-1
 420 636 l 1,32,-1
 420 463 l 1,33,-1
 402 463 l 1,34,35
 394 540 394 540 352.5 576.5 c 128,-1,36
 311 613 311 613 251.5 613 c 128,-1,37
 192 613 192 613 159.5 580.5 c 128,-1,38
 127 548 127 548 127 506.5 c 128,-1,39
 127 465 127 465 149.5 432 c 128,-1,40
 172 399 172 399 216 380 c 2,41,-1
 336 327 l 2,42,43
 396 300 396 300 426.5 256.5 c 128,-1,44
 457 213 457 213 457 163 c 0,45,46
 457 92 457 92 400 40 c 128,-1,47
 343 -12 343 -12 248 -12 c 0,0,1
EndSplineSet
Position2: "'cpsp' Capital Spacing in Latin lookup 0 subtable" dx=7 dy=0 dh=35 dv=0
EndChar

StartChar: Acircumflex
Encoding: 194 194 102
Width: 566
Flags: HMW
HStem: 0 21G<-10 141 -10 -10 371 576 371 371> 211 28<157 356 157 366 146 356> 610 20G<266 300 300 300> 666 21G<195 195 371 371> 826 20G<273.5 290.5>
LayerCount: 2
Fore
SplineSet
576 0 m 1,0,-1
 371 0 l 1,1,-1
 371 18 l 1,2,-1
 436 18 l 1,3,-1
 366 211 l 1,4,-1
 146 211 l 1,5,-1
 76 18 l 1,6,-1
 141 18 l 1,7,-1
 141 0 l 1,8,-1
 -10 0 l 1,9,-1
 -10 18 l 1,10,-1
 27 18 l 2,11,12
 41 18 41 18 46 32 c 2,13,-1
 266 630 l 1,14,-1
 300 630 l 1,15,-1
 520 32 l 2,16,17
 525 18 525 18 539 18 c 2,18,-1
 576 18 l 1,19,-1
 576 0 l 1,0,-1
257 512 m 1,20,-1
 157 239 l 1,21,-1
 356 239 l 1,22,-1
 257 512 l 1,20,-1
240 812 m 2,23,24
 256 846 256 846 283 846 c 128,-1,25
 310 846 310 846 326 812 c 2,26,-1
 387 678 l 1,27,-1
 371 666 l 1,28,-1
 282 781 l 1,29,-1
 195 666 l 1,30,-1
 179 678 l 1,31,-1
 240 812 l 2,23,24
EndSplineSet
Position2: "'cpsp' Capital Spacing in Latin lookup 0 subtable" dx=7 dy=0 dh=35 dv=0
EndChar

StartChar: Agrave
Encoding: 192 192 104
Width: 566
Flags: HMW
HStem: 0 21G<-10 141 -10 -10 371 576 371 371> 211 28<157 356 157 366 146 356> 610 20G<266 300 300 300> 666 21G<342 342> 826 20G<236 252>
LayerCount: 2
Fore
SplineSet
576 0 m 1,0,-1
 371 0 l 1,1,-1
 371 18 l 1,2,-1
 436 18 l 1,3,-1
 366 211 l 1,4,-1
 146 211 l 1,5,-1
 76 18 l 1,6,-1
 141 18 l 1,7,-1
 141 0 l 1,8,-1
 -10 0 l 1,9,-1
 -10 18 l 1,10,-1
 27 18 l 2,11,12
 41 18 41 18 46 32 c 2,13,-1
 266 630 l 1,14,-1
 300 630 l 1,15,-1
 520 32 l 2,16,17
 525 18 525 18 539 18 c 2,18,-1
 576 18 l 1,19,-1
 576 0 l 1,0,-1
257 512 m 1,20,-1
 157 239 l 1,21,-1
 356 239 l 1,22,-1
 257 512 l 1,20,-1
287 812 m 2,23,-1
 358 678 l 1,24,-1
 342 666 l 1,25,-1
 208 800 l 1,26,27
 208 823 208 823 219 834.5 c 128,-1,28
 230 846 230 846 244 846 c 0,29,30
 269 846 269 846 287 812 c 2,23,-1
EndSplineSet
Position2: "'cpsp' Capital Spacing in Latin lookup 0 subtable" dx=7 dy=0 dh=35 dv=0
EndChar

StartChar: Ecircumflex
Encoding: 202 202 107
Width: 517
Flags: HMW
HStem: -9 21G 0 28<178 366> 301 28<178 379 178 379> 602 28<178 352 352 380 178 178> 619 20G 666 21G<170 170 346 346> 826 20G<248.5 265.5>
VStem: 96 82<32 301 329 600 600 602>
LayerCount: 2
Fore
SplineSet
35 0 m 1,0,-1
 35 18 l 1,1,-1
 82 18 l 2,2,3
 96 18 96 18 96 32 c 2,4,-1
 96 600 l 2,5,6
 96 612 96 612 82 612 c 2,7,-1
 35 612 l 1,8,-1
 35 630 l 1,9,-1
 352 630 l 2,10,11
 431 630 431 630 463 639 c 1,12,13
 454 598 454 598 454 525 c 2,14,-1
 454 478 l 1,15,-1
 431 478 l 1,16,-1
 416 580 l 1,17,18
 414 602 414 602 388 602 c 2,19,-1
 178 602 l 1,20,-1
 178 329 l 1,21,-1
 379 329 l 2,22,23
 391 329 391 329 393 343 c 2,24,-1
 398 405 l 1,25,-1
 416 405 l 1,26,-1
 416 225 l 1,27,-1
 398 225 l 1,28,-1
 393 287 l 2,29,30
 391 301 391 301 379 301 c 2,31,-1
 178 301 l 1,32,-1
 178 28 l 1,33,-1
 402 28 l 2,34,35
 428 28 428 28 430 50 c 2,36,-1
 445 167 l 1,37,-1
 468 167 l 1,38,-1
 468 120 l 2,39,40
 468 32 468 32 477 -9 c 1,41,42
 445 0 445 0 366 0 c 2,43,-1
 35 0 l 1,0,-1
215 812 m 2,44,45
 231 846 231 846 258 846 c 128,-1,46
 285 846 285 846 301 812 c 2,47,-1
 362 678 l 1,48,-1
 346 666 l 1,49,-1
 257 781 l 1,50,-1
 170 666 l 1,51,-1
 154 678 l 1,52,-1
 215 812 l 2,44,45
EndSplineSet
Position2: "'cpsp' Capital Spacing in Latin lookup 0 subtable" dx=7 dy=0 dh=35 dv=0
EndChar

StartChar: Egrave
Encoding: 200 200 109
Width: 517
Flags: HMW
HStem: -9 21G 0 28<178 366> 301 28<178 379 178 379> 602 28<178 352 352 380 178 178> 619 20G 666 21G<317 317> 826 20G<211 227>
VStem: 96 82<32 301 329 600 600 602>
LayerCount: 2
Fore
SplineSet
35 0 m 1,0,-1
 35 18 l 1,1,-1
 82 18 l 2,2,3
 96 18 96 18 96 32 c 2,4,-1
 96 600 l 2,5,6
 96 612 96 612 82 612 c 2,7,-1
 35 612 l 1,8,-1
 35 630 l 1,9,-1
 352 630 l 2,10,11
 431 630 431 630 463 639 c 1,12,13
 454 598 454 598 454 525 c 2,14,-1
 454 478 l 1,15,-1
 431 478 l 1,16,-1
 416 580 l 1,17,18
 414 602 414 602 388 602 c 2,19,-1
 178 602 l 1,20,-1
 178 329 l 1,21,-1
 379 329 l 2,22,23
 391 329 391 329 393 343 c 2,24,-1
 398 405 l 1,25,-1
 416 405 l 1,26,-1
 416 225 l 1,27,-1
 398 225 l 1,28,-1
 393 287 l 2,29,30
 391 301 391 301 379 301 c 2,31,-1
 178 301 l 1,32,-1
 178 28 l 1,33,-1
 402 28 l 2,34,35
 428 28 428 28 430 50 c 2,36,-1
 445 167 l 1,37,-1
 468 167 l 1,38,-1
 468 120 l 2,39,40
 468 32 468 32 477 -9 c 1,41,42
 445 0 445 0 366 0 c 2,43,-1
 35 0 l 1,0,-1
262 812 m 2,44,-1
 333 678 l 1,45,-1
 317 666 l 1,46,-1
 183 800 l 1,47,48
 183 823 183 823 194 834.5 c 128,-1,49
 205 846 205 846 219 846 c 0,50,51
 244 846 244 846 262 812 c 2,44,-1
EndSplineSet
Position2: "'cpsp' Capital Spacing in Latin lookup 0 subtable" dx=7 dy=0 dh=35 dv=0
EndChar

StartChar: Icircumflex
Encoding: 206 206 111
Width: 274
Flags: HMW
HStem: 0 21G<35 239 35 35> 610 20G<35 239 239 239> 666 21G<49 49 225 225> 826 20G<127.5 144.5>
VStem: 96 82<32 600>
LayerCount: 2
Fore
SplineSet
96 32 m 2,0,-1
 96 600 l 2,1,2
 96 612 96 612 82 612 c 2,3,-1
 35 612 l 1,4,-1
 35 630 l 1,5,-1
 239 630 l 1,6,-1
 239 612 l 1,7,-1
 192 612 l 2,8,9
 178 612 178 612 178 600 c 2,10,-1
 178 32 l 2,11,12
 178 18 178 18 192 18 c 2,13,-1
 239 18 l 1,14,-1
 239 0 l 1,15,-1
 35 0 l 1,16,-1
 35 18 l 1,17,-1
 82 18 l 2,18,19
 96 18 96 18 96 32 c 2,0,-1
94 812 m 2,20,21
 110 846 110 846 137 846 c 128,-1,22
 164 846 164 846 180 812 c 2,23,-1
 241 678 l 1,24,-1
 225 666 l 1,25,-1
 136 781 l 1,26,-1
 49 666 l 1,27,-1
 33 678 l 1,28,-1
 94 812 l 2,20,21
EndSplineSet
Position2: "'cpsp' Capital Spacing in Latin lookup 0 subtable" dx=7 dy=0 dh=35 dv=0
EndChar

StartChar: Igrave
Encoding: 204 204 113
Width: 274
Flags: HMW
HStem: 0 21G<35 239 35 35> 610 20G<35 239 239 239> 666 21G<196 196> 826 20G<90 106>
VStem: 96 82<32 600>
LayerCount: 2
Fore
SplineSet
96 32 m 2,0,-1
 96 600 l 2,1,2
 96 612 96 612 82 612 c 2,3,-1
 35 612 l 1,4,-1
 35 630 l 1,5,-1
 239 630 l 1,6,-1
 239 612 l 1,7,-1
 192 612 l 2,8,9
 178 612 178 612 178 600 c 2,10,-1
 178 32 l 2,11,12
 178 18 178 18 192 18 c 2,13,-1
 239 18 l 1,14,-1
 239 0 l 1,15,-1
 35 0 l 1,16,-1
 35 18 l 1,17,-1
 82 18 l 2,18,19
 96 18 96 18 96 32 c 2,0,-1
141 812 m 2,20,-1
 212 678 l 1,21,-1
 196 666 l 1,22,-1
 62 800 l 1,23,24
 62 823 62 823 73 834.5 c 128,-1,25
 84 846 84 846 98 846 c 0,26,27
 123 846 123 846 141 812 c 2,20,-1
EndSplineSet
Position2: "'cpsp' Capital Spacing in Latin lookup 0 subtable" dx=7 dy=0 dh=35 dv=0
EndChar

StartChar: Ocircumflex
Encoding: 212 212 116
Width: 643
Flags: HMW
HStem: -12 26<266 376 266 404> 616 26<266 376> 666 21G<233 233 409 409> 826 20G<311.5 328.5>
VStem: 35 85<219 411 219 419> 523 85<219 411>
LayerCount: 2
Fore
SplineSet
35 315 m 128,-1,1
 35 468 35 468 114.5 555 c 128,-1,2
 194 642 194 642 321.5 642 c 128,-1,3
 449 642 449 642 528.5 555 c 128,-1,4
 608 468 608 468 608 315 c 128,-1,5
 608 162 608 162 528.5 75 c 128,-1,6
 449 -12 449 -12 321.5 -12 c 128,-1,7
 194 -12 194 -12 114.5 75 c 128,-1,0
 35 162 35 162 35 315 c 128,-1,1
120 315 m 128,-1,9
 120 176 120 176 177.5 95 c 128,-1,10
 235 14 235 14 321 14 c 128,-1,11
 407 14 407 14 465 95 c 128,-1,12
 523 176 523 176 523 315 c 128,-1,13
 523 454 523 454 465 535 c 128,-1,14
 407 616 407 616 321 616 c 128,-1,15
 235 616 235 616 177.5 535 c 128,-1,8
 120 454 120 454 120 315 c 128,-1,9
278 812 m 2,16,17
 294 846 294 846 321 846 c 128,-1,18
 348 846 348 846 364 812 c 2,19,-1
 425 678 l 1,20,-1
 409 666 l 1,21,-1
 320 781 l 1,22,-1
 233 666 l 1,23,-1
 217 678 l 1,24,-1
 278 812 l 2,16,17
EndSplineSet
Position2: "'cpsp' Capital Spacing in Latin lookup 0 subtable" dx=7 dy=0 dh=35 dv=0
EndChar

StartChar: Ograve
Encoding: 210 210 118
Width: 643
Flags: HMW
HStem: -12 26<266 376 266 404> 616 26<266 376> 666 21G<380 380> 826 20G<274 290>
VStem: 35 85<219 411 219 419> 523 85<219 411>
LayerCount: 2
Fore
SplineSet
35 315 m 128,-1,1
 35 468 35 468 114.5 555 c 128,-1,2
 194 642 194 642 321.5 642 c 0,3,4
 449 642 449 642 528.5 555 c 128,-1,5
 608 468 608 468 608 315 c 128,-1,6
 608 162 608 162 528.5 75 c 128,-1,7
 449 -12 449 -12 321.5 -12 c 0,8,9
 194 -12 194 -12 114.5 75 c 128,-1,0
 35 162 35 162 35 315 c 128,-1,1
120 315 m 128,-1,11
 120 176 120 176 177.5 95 c 128,-1,12
 235 14 235 14 321 14 c 128,-1,13
 407 14 407 14 465 95 c 128,-1,14
 523 176 523 176 523 315 c 128,-1,15
 523 454 523 454 465 535 c 128,-1,16
 407 616 407 616 321 616 c 128,-1,17
 235 616 235 616 177.5 535 c 128,-1,10
 120 454 120 454 120 315 c 128,-1,11
325 812 m 2,18,-1
 396 678 l 1,19,-1
 380 666 l 1,20,-1
 246 800 l 1,21,22
 246 823 246 823 257 834.5 c 128,-1,23
 268 846 268 846 282 846 c 0,24,25
 307 846 307 846 325 812 c 2,18,-1
EndSplineSet
Position2: "'cpsp' Capital Spacing in Latin lookup 0 subtable" dx=7 dy=0 dh=35 dv=0
EndChar

StartChar: Ucircumflex
Encoding: 219 219 121
Width: 604
Flags: HMW
HStem: -12 35<276 362 276 371> 610 20G<25 229 229 229 433 589 589 589> 666 21G<245 245 421 421> 826 20G<323.5 340.5>
VStem: 86 82<195 600> 494 34<195 600>
LayerCount: 2
Fore
SplineSet
589 630 m 1,0,-1
 589 612 l 1,1,-1
 542 612 l 2,2,3
 528 612 528 612 528 600 c 2,4,-1
 528 195 l 2,5,6
 528 91 528 91 468 39.5 c 128,-1,7
 408 -12 408 -12 307 -12 c 128,-1,8
 206 -12 206 -12 146 39.5 c 128,-1,9
 86 91 86 91 86 195 c 2,10,-1
 86 600 l 2,11,12
 86 612 86 612 72 612 c 2,13,-1
 25 612 l 1,14,-1
 25 630 l 1,15,-1
 229 630 l 1,16,-1
 229 612 l 1,17,-1
 182 612 l 2,18,19
 168 612 168 612 168 600 c 2,20,-1
 168 188 l 2,21,22
 168 104 168 104 209.5 63.5 c 128,-1,23
 251 23 251 23 322.5 23 c 128,-1,24
 394 23 394 23 444 63.5 c 128,-1,25
 494 104 494 104 494 195 c 2,26,-1
 494 600 l 2,27,28
 494 612 494 612 480 612 c 2,29,-1
 433 612 l 1,30,-1
 433 630 l 1,31,-1
 589 630 l 1,0,-1
290 812 m 2,32,33
 306 846 306 846 333 846 c 128,-1,34
 360 846 360 846 376 812 c 2,35,-1
 437 678 l 1,36,-1
 421 666 l 1,37,-1
 332 781 l 1,38,-1
 245 666 l 1,39,-1
 229 678 l 1,40,-1
 290 812 l 2,32,33
EndSplineSet
Position2: "'cpsp' Capital Spacing in Latin lookup 0 subtable" dx=7 dy=0 dh=35 dv=0
EndChar

StartChar: Ugrave
Encoding: 217 217 123
Width: 604
Flags: HMW
HStem: -12 35<276 362 276 371> 610 20G<25 229 229 229 433 589 589 589> 666 21G<361 361> 826 20G<255 271>
VStem: 86 82<195 600> 494 34<195 600>
LayerCount: 2
Fore
SplineSet
589 630 m 1,0,-1
 589 612 l 1,1,-1
 542 612 l 2,2,3
 528 612 528 612 528 600 c 2,4,-1
 528 195 l 2,5,6
 528 91 528 91 468 39.5 c 128,-1,7
 408 -12 408 -12 307 -12 c 128,-1,8
 206 -12 206 -12 146 39.5 c 128,-1,9
 86 91 86 91 86 195 c 2,10,-1
 86 600 l 2,11,12
 86 612 86 612 72 612 c 2,13,-1
 25 612 l 1,14,-1
 25 630 l 1,15,-1
 229 630 l 1,16,-1
 229 612 l 1,17,-1
 182 612 l 2,18,19
 168 612 168 612 168 600 c 2,20,-1
 168 188 l 2,21,22
 168 104 168 104 209.5 63.5 c 128,-1,23
 251 23 251 23 322.5 23 c 0,24,25
 394 23 394 23 444 63.5 c 128,-1,26
 494 104 494 104 494 195 c 2,27,-1
 494 600 l 2,28,29
 494 612 494 612 480 612 c 2,30,-1
 433 612 l 1,31,-1
 433 630 l 1,32,-1
 589 630 l 1,0,-1
306 812 m 2,33,-1
 377 678 l 1,34,-1
 361 666 l 1,35,-1
 227 800 l 1,36,37
 227 823 227 823 238 834.5 c 128,-1,38
 249 846 249 846 263 846 c 0,39,40
 288 846 288 846 306 812 c 2,33,-1
EndSplineSet
Position2: "'cpsp' Capital Spacing in Latin lookup 0 subtable" dx=7 dy=0 dh=35 dv=0
EndChar

StartChar: Ydieresis
Encoding: 376 376 125
Width: 527
Flags: HMW
HStem: 0 21G<145 399 145 145> 610 20G<5 196 196 196 386 522 522 522> 727 21G<199 225 373 399> 801 20G<199 225 373 399>
VStem: 231 82<32 229>
LayerCount: 2
Fore
SplineSet
386 630 m 1,0,-1
 522 630 l 1,1,-1
 522 612 l 1,2,-1
 485 612 l 2,3,4
 471 612 471 612 466 598 c 2,5,-1
 313 229 l 1,6,-1
 313 32 l 2,7,8
 313 18 313 18 327 18 c 2,9,-1
 399 18 l 1,10,-1
 399 0 l 1,11,-1
 145 0 l 1,12,-1
 145 18 l 1,13,-1
 217 18 l 2,14,15
 231 18 231 18 231 32 c 2,16,-1
 231 230 l 1,17,-1
 61 598 l 2,18,19
 54 612 54 612 42 612 c 2,20,-1
 5 612 l 1,21,-1
 5 630 l 1,22,-1
 196 630 l 1,23,-1
 196 612 l 1,24,-1
 146 612 l 1,25,-1
 299 280 l 1,26,-1
 436 612 l 1,27,-1
 386 612 l 1,28,-1
 386 630 l 1,0,-1
165 774 m 128,-1,30
 165 794 165 794 178.5 807.5 c 128,-1,31
 192 821 192 821 212 821 c 128,-1,32
 232 821 232 821 245.5 807.5 c 128,-1,33
 259 794 259 794 259 774 c 128,-1,34
 259 754 259 754 245.5 740.5 c 128,-1,35
 232 727 232 727 212 727 c 128,-1,36
 192 727 192 727 178.5 740.5 c 128,-1,29
 165 754 165 754 165 774 c 128,-1,30
339 774 m 128,-1,38
 339 794 339 794 352.5 807.5 c 128,-1,39
 366 821 366 821 386 821 c 128,-1,40
 406 821 406 821 419.5 807.5 c 128,-1,41
 433 794 433 794 433 774 c 128,-1,42
 433 754 433 754 419.5 740.5 c 128,-1,43
 406 727 406 727 386 727 c 128,-1,44
 366 727 366 727 352.5 740.5 c 128,-1,37
 339 754 339 754 339 774 c 128,-1,38
EndSplineSet
Position2: "'cpsp' Capital Spacing in Latin lookup 0 subtable" dx=7 dy=0 dh=35 dv=0
EndChar

StartChar: yacute
Encoding: 253 253 126
Width: 407
Flags: HMW
HStem: -228 21G<86.5 116.5> 412 20G<-10 160 160 160 290 417 417 417> 468 21G<192 192> 628 20G<282 298>
LayerCount: 2
Fore
SplineSet
176 480 m 1,0,-1
 247 614 l 2,1,2
 265 648 265 648 290 648 c 0,3,4
 304 648 304 648 315 636.5 c 128,-1,5
 326 625 326 625 326 602 c 1,6,-1
 192 468 l 1,7,-1
 176 480 l 1,0,-1
290 432 m 1,8,-1
 417 432 l 1,9,-1
 417 414 l 1,10,-1
 380 414 l 2,11,12
 371 414 371 414 366 400 c 2,13,-1
 193 -63 l 2,14,15
 190 -72 190 -72 183 -90 c 2,16,-1
 172.5 -117 l 2,17,18
 169 -126 169 -126 163 -141.5 c 128,-1,19
 157 -157 157 -157 153 -165.5 c 128,-1,20
 149 -174 149 -174 143 -186 c 0,21,22
 135.727272727 -200.545454545 135.727272727 -200.545454545 123.055944056 -214.272727273 c 128,-1,23
 110.384615385 -228 110.384615385 -228 96.1923076923 -228 c 128,-1,24
 82 -228 82 -228 66.5 -210.5 c 128,-1,25
 51 -193 51 -193 48 -173 c 1,26,27
 139 -134 139 -134 172 -43 c 2,28,-1
 189 3 l 1,29,-1
 41 400 l 2,30,31
 36 414 36 414 27 414 c 2,32,-1
 -10 414 l 1,33,-1
 -10 432 l 1,34,-1
 160 432 l 1,35,-1
 160 414 l 1,36,-1
 110 414 l 1,37,-1
 225 98 l 1,38,-1
 341 414 l 1,39,-1
 290 414 l 1,40,-1
 290 432 l 1,8,-1
EndSplineSet
EndChar

StartChar: quotedbl
Encoding: 34 34 127
Width: 277
Flags: HMW
HStem: 444 21G<67 84 67 67 193 193 193 210> 648 20G<63 88.5 189 214.5>
LayerCount: 2
Fore
SplineSet
121 618 m 1,0,-1
 84 444 l 1,1,-1
 67 444 l 1,2,-1
 30 618 l 1,3,4
 30 642 30 642 43 655 c 128,-1,5
 56 668 56 668 76 668 c 128,-1,6
 96 668 96 668 108.5 655 c 128,-1,7
 121 642 121 642 121 618 c 1,0,-1
247 618 m 1,8,-1
 210 444 l 1,9,-1
 193 444 l 1,10,-1
 156 618 l 1,11,12
 156 642 156 642 169 655 c 128,-1,13
 182 668 182 668 202 668 c 128,-1,14
 222 668 222 668 234.5 655 c 128,-1,15
 247 642 247 642 247 618 c 1,8,-1
EndSplineSet
EndChar

StartChar: quotesingle
Encoding: 39 39 128
Width: 151
Flags: HMW
HStem: 444 21G<67 84 67 67> 648 20G<63 88.5>
LayerCount: 2
Fore
SplineSet
121 618 m 1,0,-1
 84 444 l 1,1,-1
 67 444 l 1,2,-1
 30 618 l 1,3,4
 30 642 30 642 43 655 c 128,-1,5
 56 668 56 668 76 668 c 128,-1,6
 96 668 96 668 108.5 655 c 128,-1,7
 121 642 121 642 121 618 c 1,0,-1
EndSplineSet
EndChar

StartChar: colon
Encoding: 58 58 129
Width: 192
Flags: HMW
HStem: -12 21G<80.5 111.5> 412 20G<80.5 111.5>
VStem: 40 112<28.5 59.5 360.5 391.5>
LayerCount: 2
Fore
SplineSet
40 44 m 128,-1,1
 40 67 40 67 56.5 83.5 c 128,-1,2
 73 100 73 100 96 100 c 128,-1,3
 119 100 119 100 135.5 83.5 c 128,-1,4
 152 67 152 67 152 44 c 128,-1,5
 152 21 152 21 135.5 4.5 c 128,-1,6
 119 -12 119 -12 96 -12 c 128,-1,7
 73 -12 73 -12 56.5 4.5 c 128,-1,0
 40 21 40 21 40 44 c 128,-1,1
40 376 m 128,-1,9
 40 399 40 399 56.5 415.5 c 128,-1,10
 73 432 73 432 96 432 c 128,-1,11
 119 432 119 432 135.5 415.5 c 128,-1,12
 152 399 152 399 152 376 c 128,-1,13
 152 353 152 353 135.5 336.5 c 128,-1,14
 119 320 119 320 96 320 c 128,-1,15
 73 320 73 320 56.5 336.5 c 128,-1,8
 40 353 40 353 40 376 c 128,-1,9
EndSplineSet
EndChar

StartChar: semicolon
Encoding: 59 59 130
Width: 192
Flags: HMW
HStem: -125 21G<42 42> 412 20G<80.5 111.5>
VStem: 40 112<360.5 391.5> 78 74
LayerCount: 2
Fore
SplineSet
40 376 m 128,-1,1
 40 399 40 399 56.5 415.5 c 128,-1,2
 73 432 73 432 96 432 c 128,-1,3
 119 432 119 432 135.5 415.5 c 128,-1,4
 152 399 152 399 152 376 c 128,-1,5
 152 353 152 353 135.5 336.5 c 128,-1,6
 119 320 119 320 96 320 c 128,-1,7
 73 320 73 320 56.5 336.5 c 128,-1,0
 40 353 40 353 40 376 c 128,-1,1
31 -111 m 1,8,9
 78 -69 78 -69 78 -25.5 c 128,-1,10
 78 18 78 18 42 43 c 1,11,12
 43 67 43 67 58.5 83.5 c 128,-1,13
 74 100 74 100 96 100 c 0,14,15
 151 100 151 100 151 40 c 0,16,17
 151 -1 151 -1 120.5 -49.5 c 128,-1,18
 90 -98 90 -98 42 -125 c 1,19,-1
 31 -111 l 1,8,9
EndSplineSet
EndChar

StartChar: parenleft
Encoding: 40 40 131
Width: 287
Flags: HMW
HStem: -113 21G<257 257> 615 20G<257 257>
VStem: 50 82<191.5 330.5 191.5 337>
LayerCount: 2
Fore
SplineSet
132 261 m 128,-1,1
 132 152 132 152 167 53.5 c 128,-1,2
 202 -45 202 -45 267 -98 c 1,3,-1
 257 -113 l 1,4,5
 158 -61 158 -61 104 40.5 c 128,-1,6
 50 142 50 142 50 261 c 128,-1,7
 50 380 50 380 104 481.5 c 128,-1,8
 158 583 158 583 257 635 c 1,9,-1
 267 620 l 1,10,11
 202 567 202 567 167 468.5 c 128,-1,0
 132 370 132 370 132 261 c 128,-1,1
EndSplineSet
Position2: "'case' Case-Sensitive Forms in Latin lookup 1 per glyph data 0" dx=0 dy=70 dh=0 dv=0
EndChar

StartChar: parenright
Encoding: 41 41 132
Width: 287
Flags: HMW
HStem: -113 21G<30 30> 615 20G<30 30>
VStem: 155 82<191.5 330.5>
LayerCount: 2
Fore
SplineSet
155 261 m 128,-1,1
 155 370 155 370 120 468.5 c 128,-1,2
 85 567 85 567 20 620 c 1,3,-1
 30 635 l 1,4,5
 129 583 129 583 183 481.5 c 128,-1,6
 237 380 237 380 237 261 c 128,-1,7
 237 142 237 142 183 40.5 c 128,-1,8
 129 -61 129 -61 30 -113 c 1,9,-1
 20 -98 l 1,10,11
 85 -45 85 -45 120 53.5 c 128,-1,0
 155 152 155 152 155 261 c 128,-1,1
EndSplineSet
Position2: "'case' Case-Sensitive Forms in Latin lookup 1 per glyph data 0" dx=0 dy=70 dh=0 dv=0
EndChar

StartChar: emdash
Encoding: 8212 8212 133
Width: 660
Flags: HMW
HStem: 211 40<30 630 30 630>
LayerCount: 2
Fore
SplineSet
30 211 m 1,0,-1
 30 251 l 1,1,-1
 630 251 l 1,2,-1
 630 211 l 1,3,-1
 30 211 l 1,0,-1
EndSplineSet
Position2: "'case' Case-Sensitive Forms in Latin lookup 1 per glyph data 0" dx=0 dy=70 dh=0 dv=0
EndChar

StartChar: endash
Encoding: 8211 8211 134
Width: 406
Flags: HMW
HStem: 211 40<30 376 30 376>
LayerCount: 2
Fore
SplineSet
30 211 m 1,0,-1
 30 251 l 1,1,-1
 376 251 l 1,2,-1
 376 211 l 1,3,-1
 30 211 l 1,0,-1
EndSplineSet
Position2: "'case' Case-Sensitive Forms in Latin lookup 1 per glyph data 0" dx=0 dy=70 dh=0 dv=0
EndChar

StartChar: underscore
Encoding: 95 95 135
Width: 406
Flags: HMW
HStem: -51 39<30 376 30 376>
LayerCount: 2
Fore
SplineSet
30 -51 m 1,0,-1
 30 -12 l 1,1,-1
 376 -12 l 1,2,-1
 376 -51 l 1,3,-1
 30 -51 l 1,0,-1
EndSplineSet
EndChar

StartChar: bracketleft
Encoding: 91 91 136
Width: 263
Flags: HMW
HStem: -113 21G<70 70> 610 20G<154 233 233 233> 616 20G<70 70>
VStem: 70 72<-79 -75 -75 598>
LayerCount: 2
Fore
SplineSet
142 598 m 2,0,-1
 142 -75 l 2,1,2
 142 -89 142 -89 156 -89 c 2,3,-1
 233 -89 l 1,4,-1
 233 -107 l 1,5,-1
 154 -107 l 2,6,7
 94 -107 94 -107 70 -113 c 1,8,-1
 70 636 l 1,9,10
 94 630 94 630 154 630 c 2,11,-1
 233 630 l 1,12,-1
 233 612 l 1,13,-1
 156 612 l 2,14,15
 142 612 142 612 142 598 c 2,0,-1
EndSplineSet
Position2: "'case' Case-Sensitive Forms in Latin lookup 1 per glyph data 0" dx=0 dy=70 dh=0 dv=0
EndChar

StartChar: bracketright
Encoding: 93 93 137
Width: 263
Flags: HMW
HStem: -113 21G<193 193> 610 20G<30 109 109 127> 616 20G<193 193>
VStem: 121 72<-75 598 598 602>
LayerCount: 2
Fore
SplineSet
121 -75 m 2,0,-1
 121 598 l 2,1,2
 121 612 121 612 107 612 c 2,3,-1
 30 612 l 1,4,-1
 30 630 l 1,5,-1
 109 630 l 2,6,7
 169 630 169 630 193 636 c 1,8,-1
 193 -113 l 1,9,10
 169 -107 169 -107 109 -107 c 2,11,-1
 30 -107 l 1,12,-1
 30 -89 l 1,13,-1
 107 -89 l 2,14,15
 121 -89 121 -89 121 -75 c 2,0,-1
EndSplineSet
Position2: "'case' Case-Sensitive Forms in Latin lookup 1 per glyph data 0" dx=0 dy=70 dh=0 dv=0
EndChar

StartChar: onequarter
Encoding: 188 188 138
Width: 779
Flags: HMW
HStem: -74 21G<245 280 245 245> 0 21G<559 725 559 559> 88 24<497 613 497 613 670 725> 563 20G 628 20G<494 530 530 530>
VStem: 139 58<245 505> 613 57<32 88 28 88 112 294 294 294>
LayerCount: 2
Fore
SplineSet
139 245 m 2,0,-1
 139 522 l 2,1,2
 139 535 139 535 126 535 c 2,3,-1
 51 531 l 1,4,-1
 50 550 l 1,5,-1
 112 559 l 2,6,7
 171 568 171 568 205 583 c 1,8,9
 197 553 197 553 197 505 c 2,10,-1
 197 245 l 2,11,12
 197 231 197 231 211 231 c 2,13,-1
 269 231 l 1,14,-1
 269 213 l 1,15,-1
 61 213 l 1,16,-1
 61 231 l 1,17,-1
 125 231 l 2,18,19
 139 231 139 231 139 245 c 2,0,-1
613 32 m 2,20,-1
 613 88 l 1,21,-1
 450 88 l 1,22,-1
 622 358 l 1,23,-1
 670 358 l 1,24,-1
 670 112 l 1,25,-1
 725 112 l 1,26,-1
 725 88 l 1,27,-1
 670 88 l 1,28,-1
 670 32 l 2,29,30
 670 18 670 18 684 18 c 2,31,-1
 725 18 l 1,32,-1
 725 0 l 1,33,-1
 559 0 l 1,34,-1
 559 18 l 1,35,-1
 599 18 l 2,36,37
 613 18 613 18 613 32 c 2,20,-1
497 112 m 1,38,-1
 613 112 l 1,39,-1
 613 294 l 1,40,-1
 497 112 l 1,38,-1
280 -74 m 1,41,-1
 245 -74 l 1,42,-1
 494 648 l 1,43,-1
 530 648 l 1,44,-1
 280 -74 l 1,41,-1
EndSplineSet
EndChar

StartChar: fraction
Encoding: 8260 8260 139
Width: 319
Flags: HMW
HStem: -74 21G<17 52 17 17> 628 20G<266 302 302 302>
LayerCount: 2
Fore
SplineSet
52 -74 m 1,0,-1
 17 -74 l 1,1,-1
 266 648 l 1,2,-1
 302 648 l 1,3,-1
 52 -74 l 1,0,-1
EndSplineSet
EndChar

StartChar: ellipsis
Encoding: 8230 8230 140
Width: 576
Flags: HMW
HStem: -12 21G<80.5 111.5 272.5 303.5 464.5 495.5> 80 20G<80.5 111.5 272.5 303.5 464.5 495.5>
VStem: 40 112<28.5 59.5> 232 112<28.5 59.5> 424 112<28.5 59.5>
CounterMasks: 1 38
LayerCount: 2
Fore
SplineSet
40 44 m 128,-1,1
 40 67 40 67 56.5 83.5 c 128,-1,2
 73 100 73 100 96 100 c 128,-1,3
 119 100 119 100 135.5 83.5 c 128,-1,4
 152 67 152 67 152 44 c 128,-1,5
 152 21 152 21 135.5 4.5 c 128,-1,6
 119 -12 119 -12 96 -12 c 128,-1,7
 73 -12 73 -12 56.5 4.5 c 128,-1,0
 40 21 40 21 40 44 c 128,-1,1
232 44 m 128,-1,9
 232 67 232 67 248.5 83.5 c 128,-1,10
 265 100 265 100 288 100 c 128,-1,11
 311 100 311 100 327.5 83.5 c 128,-1,12
 344 67 344 67 344 44 c 128,-1,13
 344 21 344 21 327.5 4.5 c 128,-1,14
 311 -12 311 -12 288 -12 c 128,-1,15
 265 -12 265 -12 248.5 4.5 c 128,-1,8
 232 21 232 21 232 44 c 128,-1,9
424 44 m 128,-1,17
 424 67 424 67 440.5 83.5 c 128,-1,18
 457 100 457 100 480 100 c 128,-1,19
 503 100 503 100 519.5 83.5 c 128,-1,20
 536 67 536 67 536 44 c 128,-1,21
 536 21 536 21 519.5 4.5 c 128,-1,22
 503 -12 503 -12 480 -12 c 128,-1,23
 457 -12 457 -12 440.5 4.5 c 128,-1,16
 424 21 424 21 424 44 c 128,-1,17
EndSplineSet
EndChar

StartChar: question
Encoding: 63 63 141
Width: 355
Flags: HMW
HStem: -12 21G<146 172> 600 21<156.5 203.5>
VStem: 35 67<510.5 532> 136 37<170 326.5> 266 69<454.5 530.5 428 540>
LayerCount: 2
Fore
SplineSet
73 586.5 m 128,-1,1
 111 621 111 621 177 621 c 128,-1,2
 243 621 243 621 289 585 c 128,-1,3
 335 549 335 549 335 485 c 0,4,5
 335 447 335 447 309.5 408.5 c 128,-1,6
 284 370 284 370 254 345 c 128,-1,7
 224 320 224 320 198.5 289.5 c 128,-1,8
 173 259 173 259 173 235 c 2,9,-1
 173 170 l 1,10,-1
 145 170 l 1,11,12
 136 254 136 254 136 276 c 128,-1,13
 136 298 136 298 149.5 326 c 128,-1,14
 163 354 163 354 182 373 c 128,-1,15
 201 392 201 392 220 410.5 c 0,16,17
 266 455.289473684 266 455.289473684 266 503.644736842 c 128,-1,18
 266 552 266 552 241 576 c 128,-1,19
 216 600 216 600 180 600 c 128,-1,20
 144 600 144 600 123 577.5 c 128,-1,21
 102 555 102 555 102 521 c 128,-1,22
 102 487 102 487 115 461 c 1,23,24
 98 446 98 446 75.5 446 c 0,25,26
 35 446 35 446 35 499 c 128,-1,0
 35 552 35 552 73 586.5 c 128,-1,1
207 36 m 128,-1,28
 207 16 207 16 192.5 2 c 128,-1,29
 178 -12 178 -12 159 -12 c 128,-1,30
 140 -12 140 -12 125.5 2 c 128,-1,31
 111 16 111 16 111 36 c 128,-1,32
 111 56 111 56 125.5 70 c 128,-1,33
 140 84 140 84 159 84 c 128,-1,34
 178 84 178 84 192.5 70 c 128,-1,27
 207 56 207 56 207 36 c 128,-1,28
EndSplineSet
EndChar

StartChar: dotaccent
Encoding: 729 729 142
Width: 192
Flags: HMW
HStem: 521 21G<80.5 111.5> 613 20G<80.5 111.5>
VStem: 40 112<561.5 592.5>
LayerCount: 2
Fore
SplineSet
40 577 m 128,-1,1
 40 600 40 600 56.5 616.5 c 128,-1,2
 73 633 73 633 96 633 c 128,-1,3
 119 633 119 633 135.5 616.5 c 128,-1,4
 152 600 152 600 152 577 c 128,-1,5
 152 554 152 554 135.5 537.5 c 128,-1,6
 119 521 119 521 96 521 c 128,-1,7
 73 521 73 521 56.5 537.5 c 128,-1,0
 40 554 40 554 40 577 c 128,-1,1
EndSplineSet
EndChar

StartChar: ring
Encoding: 730 730 143
Width: 257
Flags: HMW
HStem: 484 24<115.5 140 115.5 156.5> 645 24<115.5 140>
VStem: 30 53<553.5 598 553.5 605.5> 174 53<553.5 598>
LayerCount: 2
Fore
SplineSet
30 576 m 128,-1,1
 30 619 30 619 57.5 644 c 128,-1,2
 85 669 85 669 128.5 669 c 0,3,4
 172 669 172 669 199.5 644 c 128,-1,5
 227 619 227 619 227 576 c 128,-1,6
 227 533 227 533 199.5 508.5 c 128,-1,7
 172 484 172 484 128.5 484 c 0,8,9
 85 484 85 484 57.5 508.5 c 128,-1,0
 30 533 30 533 30 576 c 128,-1,1
83 576 m 128,-1,11
 83 544 83 544 95.5 526 c 128,-1,12
 108 508 108 508 127.5 508 c 0,13,14
 147 508 147 508 160.5 526 c 128,-1,15
 174 544 174 544 174 576 c 128,-1,16
 174 608 174 608 160.5 626.5 c 128,-1,17
 147 645 147 645 128 645 c 128,-1,18
 109 645 109 645 96 626.5 c 128,-1,10
 83 608 83 608 83 576 c 128,-1,11
EndSplineSet
EndChar

StartChar: questiondown
Encoding: 191 191 145
Width: 355
Flags: HMW
HStem: -189 21<151.5 198.5 151.5 222.5> 424 20G<183 209>
VStem: 20 69<-98.5 -22.5 -108 4> 182 37<105.5 262> 253 67<-100 -78.5>
LayerCount: 2
Fore
SplineSet
282 -154.5 m 128,-1,1
 244 -189 244 -189 178 -189 c 128,-1,2
 112 -189 112 -189 66 -153 c 128,-1,3
 20 -117 20 -117 20 -53 c 0,4,5
 20 -15 20 -15 45.5 23.5 c 128,-1,6
 71 62 71 62 101 87 c 128,-1,7
 131 112 131 112 156.5 142.5 c 128,-1,8
 182 173 182 173 182 197 c 2,9,-1
 182 262 l 1,10,-1
 210 262 l 1,11,12
 219 178 219 178 219 156 c 128,-1,13
 219 134 219 134 205.5 106 c 128,-1,14
 192 78 192 78 173 59 c 128,-1,15
 154 40 154 40 135 21.5 c 0,16,17
 89 -23.2894736842 89 -23.2894736842 89 -71.6447368421 c 128,-1,18
 89 -120 89 -120 114 -144 c 128,-1,19
 139 -168 139 -168 175 -168 c 128,-1,20
 211 -168 211 -168 232 -145.5 c 128,-1,21
 253 -123 253 -123 253 -89 c 128,-1,22
 253 -55 253 -55 240 -29 c 1,23,24
 257 -14 257 -14 279.5 -14 c 0,25,26
 320 -14 320 -14 320 -67 c 128,-1,0
 320 -120 320 -120 282 -154.5 c 128,-1,1
244 396 m 128,-1,28
 244 376 244 376 230 362 c 128,-1,29
 216 348 216 348 196 348 c 128,-1,30
 176 348 176 348 162 362 c 128,-1,31
 148 376 148 376 148 396 c 128,-1,32
 148 416 148 416 162 430 c 128,-1,33
 176 444 176 444 196 444 c 128,-1,34
 216 444 216 444 230 430 c 128,-1,27
 244 416 244 416 244 396 c 128,-1,28
EndSplineSet
Position2: "'case' Case-Sensitive Forms in Latin lookup 1 per glyph data 1" dx=0 dy=200 dh=0 dv=0
EndChar

StartChar: backslash
Encoding: 92 92 146
Width: 319
Flags: HMW
HStem: -74 21G<265 304 265 265> 628 20G<15 55 55 55>
LayerCount: 2
Fore
SplineSet
304 -74 m 1,0,-1
 265 -74 l 1,1,-1
 15 648 l 1,2,-1
 55 648 l 1,3,-1
 304 -74 l 1,0,-1
EndSplineSet
EndChar

StartChar: exclamdown
Encoding: 161 161 147
Width: 274
Flags: HMW
HStem: -210 21G<122 152> 424 20G<124 150>
VStem: 89 96<383 409>
LayerCount: 2
Fore
SplineSet
185 396 m 128,-1,1
 185 376 185 376 170.5 362 c 128,-1,2
 156 348 156 348 137 348 c 128,-1,3
 118 348 118 348 103.5 362 c 128,-1,4
 89 376 89 376 89 396 c 128,-1,5
 89 416 89 416 103.5 430 c 128,-1,6
 118 444 118 444 137 444 c 128,-1,7
 156 444 156 444 170.5 430 c 128,-1,0
 185 416 185 416 185 396 c 128,-1,1
91 -151 m 1,8,-1
 124 262 l 1,9,-1
 150 262 l 1,10,-1
 184 -151 l 1,11,12
 184 -210 184 -210 137.5 -210 c 128,-1,13
 91 -210 91 -210 91 -151 c 1,8,-1
EndSplineSet
Position2: "'case' Case-Sensitive Forms in Latin lookup 1 per glyph data 1" dx=0 dy=200 dh=0 dv=0
EndChar

StartChar: ydieresis
Encoding: 255 255 148
Width: 407
Flags: HMW
HStem: -228 21G<86.5 116.5> 412 20G<-10 160 160 160 290 417 417 417> 529 21G<127 153 301 327> 603 20G<127 153 301 327>
LayerCount: 2
Fore
SplineSet
93 576 m 128,-1,1
 93 596 93 596 106.5 609.5 c 128,-1,2
 120 623 120 623 140 623 c 128,-1,3
 160 623 160 623 173.5 609.5 c 128,-1,4
 187 596 187 596 187 576 c 128,-1,5
 187 556 187 556 173.5 542.5 c 128,-1,6
 160 529 160 529 140 529 c 128,-1,7
 120 529 120 529 106.5 542.5 c 128,-1,0
 93 556 93 556 93 576 c 128,-1,1
267 576 m 128,-1,9
 267 596 267 596 280.5 609.5 c 128,-1,10
 294 623 294 623 314 623 c 128,-1,11
 334 623 334 623 347.5 609.5 c 128,-1,12
 361 596 361 596 361 576 c 128,-1,13
 361 556 361 556 347.5 542.5 c 128,-1,14
 334 529 334 529 314 529 c 128,-1,15
 294 529 294 529 280.5 542.5 c 128,-1,8
 267 556 267 556 267 576 c 128,-1,9
290 432 m 1,16,-1
 417 432 l 1,17,-1
 417 414 l 1,18,-1
 380 414 l 2,19,20
 371 414 371 414 366 400 c 2,21,-1
 193 -63 l 2,22,23
 190 -72 190 -72 183 -90 c 2,24,-1
 172.5 -117 l 2,25,26
 169 -126 169 -126 163 -141.5 c 128,-1,27
 157 -157 157 -157 153 -165.5 c 128,-1,28
 149 -174 149 -174 143 -186 c 0,29,30
 135.727272727 -200.545454545 135.727272727 -200.545454545 123.055944056 -214.272727273 c 128,-1,31
 110.384615385 -228 110.384615385 -228 96.1923076923 -228 c 128,-1,32
 82 -228 82 -228 66.5 -210.5 c 128,-1,33
 51 -193 51 -193 48 -173 c 1,34,35
 139 -134 139 -134 172 -43 c 2,36,-1
 189 3 l 1,37,-1
 41 400 l 2,38,39
 36 414 36 414 27 414 c 2,40,-1
 -10 414 l 1,41,-1
 -10 432 l 1,42,-1
 160 432 l 1,43,-1
 160 414 l 1,44,-1
 110 414 l 1,45,-1
 225 98 l 1,46,-1
 341 414 l 1,47,-1
 290 414 l 1,48,-1
 290 432 l 1,16,-1
EndSplineSet
EndChar

StartChar: caron
Encoding: 711 711 149
Width: 208
Flags: HMW
HStem: 490 21G<96.5 113.5> 650 20G<16 16 192 192>
LayerCount: 2
Fore
SplineSet
147 524 m 2,0,1
 131 490 131 490 104 490 c 128,-1,2
 77 490 77 490 61 524 c 2,3,-1
 0 658 l 1,4,-1
 16 670 l 1,5,-1
 105 555 l 1,6,-1
 192 670 l 1,7,-1
 208 658 l 1,8,-1
 147 524 l 2,0,1
EndSplineSet
EndChar

StartChar: scaron
Encoding: 353 353 151
Width: 395
Flags: HMW
HStem: -12 24<164.5 220.5 164.5 242.5> 417 27<174.5 223.5> 490 21G<198.5 215.5> 650 20G<118 118 294 294>
VStem: 59 56<326.5 342.5> 291 59<92.5 112>
LayerCount: 2
Fore
SplineSet
170 271 m 2,0,-1
 274 232 l 2,1,2
 311 218 311 218 330.5 189.5 c 128,-1,3
 350 161 350 161 350 126 c 0,4,5
 350 72 350 72 307 30 c 128,-1,6
 264 -12 264 -12 191.5 -12 c 128,-1,7
 119 -12 119 -12 55 15 c 1,8,9
 61 39 61 39 61 99 c 2,10,-1
 61 139 l 1,11,-1
 79 139 l 1,12,-1
 86 87 l 1,13,14
 95 12 95 12 191 12 c 0,15,16
 234 12 234 12 262.5 38.5 c 128,-1,17
 291 65 291 65 291 99 c 0,18,19
 291 146 291 146 234 167 c 2,20,-1
 130 206 l 2,21,22
 95 219 95 219 77 247 c 128,-1,23
 59 275 59 275 59 310 c 0,24,25
 59 363 59 363 97 403.5 c 128,-1,26
 135 444 135 444 192.5 444 c 128,-1,27
 250 444 250 444 322 417 c 1,28,29
 316 393 316 393 316 333 c 2,30,-1
 316 293 l 1,31,-1
 298 293 l 1,32,-1
 291 345 l 1,33,34
 283 417 283 417 200 417 c 0,35,36
 163 417 163 417 139 394 c 128,-1,37
 115 371 115 371 115 340 c 0,38,39
 115 292 115 292 170 271 c 2,0,-1
249 524 m 2,40,41
 233 490 233 490 206 490 c 128,-1,42
 179 490 179 490 163 524 c 2,43,-1
 102 658 l 1,44,-1
 118 670 l 1,45,-1
 207 555 l 1,46,-1
 294 670 l 1,47,-1
 310 658 l 1,48,-1
 249 524 l 2,40,41
EndSplineSet
EndChar

StartChar: quoteright
Encoding: 8217 8217 152
Width: 190
Flags: HMW
HStem: 443 21G<41 41> 648 20G<80 114.5>
VStem: 77 73<531 625>
LayerCount: 2
Fore
SplineSet
30 457 m 1,0,1
 77 499 77 499 77 542.5 c 128,-1,2
 77 586 77 586 41 611 c 1,3,4
 42 635 42 635 57.5 651.5 c 128,-1,5
 73 668 73 668 95 668 c 0,6,7
 150 668 150 668 150 608 c 0,8,9
 150 567 150 567 119.5 518.5 c 128,-1,10
 89 470 89 470 41 443 c 1,11,-1
 30 457 l 1,0,1
EndSplineSet
EndChar

StartChar: quoteleft
Encoding: 8216 8216 153
Width: 190
Flags: HMW
HStem: 443 21G<75.5 110> 648 20G<149 149>
VStem: 40 73<486 580>
LayerCount: 2
Fore
SplineSet
160 654 m 1,0,1
 113 612 113 612 113 568.5 c 128,-1,2
 113 525 113 525 149 500 c 1,3,4
 148 476 148 476 132.5 459.5 c 128,-1,5
 117 443 117 443 95 443 c 0,6,7
 40 443 40 443 40 503 c 0,8,9
 40 544 40 544 70.5 592.5 c 128,-1,10
 101 641 101 641 149 668 c 1,11,-1
 160 654 l 1,0,1
EndSplineSet
EndChar

StartChar: cedilla
Encoding: 184 184 154
Width: 238
Flags: HMW
HStem: -218 23<116.5 142.5 116.5 154> -20 20G<109 126 126 126>
VStem: 174 44<-156 -122.5>
LayerCount: 2
Fore
SplineSet
174 -141 m 0,0,1
 174 -84.1714285714 174 -84.1714285714 101 -80 c 1,2,-1
 109 0 l 1,3,-1
 126 0 l 1,4,-1
 122 -48 l 1,5,6
 168 -51 168 -51 193 -74 c 128,-1,7
 218 -97 218 -97 218 -133 c 128,-1,8
 218 -169 218 -169 192.5 -193.5 c 128,-1,9
 167 -218 167 -218 128.5 -218 c 128,-1,10
 90 -218 90 -218 65 -198 c 128,-1,11
 40 -178 40 -178 40 -146 c 128,-1,12
 40 -114 40 -114 73 -114 c 0,13,14
 87 -114 87 -114 94 -118 c 1,15,16
 90 -129 90 -129 90 -147.5 c 128,-1,17
 90 -166 90 -166 100.5 -180.5 c 128,-1,18
 111 -195 111 -195 130 -195 c 128,-1,19
 149 -195 149 -195 161.5 -180 c 128,-1,20
 174 -165 174 -165 174 -141 c 0,0,1
EndSplineSet
EndChar

StartChar: Ccedilla
Encoding: 199 199 156
Width: 563
Flags: HMW
HStem: -218 23<295.5 321.5 295.5 333> -20 20G<288 305 305 305 499 499 499 518> -12 29<263.5 366 263.5 369> 0 21G<288 305 305 305 499 499 499 518> 613 29<262 366> 616 20G<499 518 518 518>
VStem: 35 85<219.5 408 219.5 418> 353 44<-156 -122.5>
LayerCount: 2
Fore
SplineSet
499 0 m 1,0,-1
 498 14 l 2,1,2
 497 35 497 35 482 35 c 0,3,4
 474 35 474 35 453 23.5 c 0,5,6
 388.173913043 -12 388.173913043 -12 322 -12 c 0,7,8
 196 -12 196 -12 115.5 75 c 128,-1,9
 35 162 35 162 35 314.5 c 128,-1,10
 35 467 35 467 114.5 554.5 c 128,-1,11
 194 642 194 642 322 642 c 0,12,13
 387 642 387 642 451.5 609 c 0,14,15
 473 598 473 598 482 598 c 0,16,17
 497 598 497 598 498 619 c 2,18,-1
 499 636 l 1,19,-1
 518 636 l 1,20,-1
 518 463 l 1,21,-1
 500 463 l 1,22,23
 491 540 491 540 442.5 576.5 c 128,-1,24
 394 613 394 613 322 613 c 0,25,26
 231 613 231 613 175.5 533 c 128,-1,27
 120 453 120 453 120 314 c 128,-1,28
 120 175 120 175 176 96 c 128,-1,29
 232 17 232 17 322 17 c 0,30,31
 394 17 394 17 442.5 53.5 c 128,-1,32
 491 90 491 90 500 167 c 1,33,-1
 518 167 l 1,34,-1
 518 0 l 1,35,-1
 499 0 l 1,0,-1
353 -141 m 0,36,37
 353 -84.1714285714 353 -84.1714285714 280 -80 c 1,38,-1
 288 0 l 1,39,-1
 305 0 l 1,40,-1
 301 -48 l 1,41,42
 347 -51 347 -51 372 -74 c 128,-1,43
 397 -97 397 -97 397 -133 c 128,-1,44
 397 -169 397 -169 371.5 -193.5 c 128,-1,45
 346 -218 346 -218 307.5 -218 c 128,-1,46
 269 -218 269 -218 244 -198 c 128,-1,47
 219 -178 219 -178 219 -146 c 128,-1,48
 219 -114 219 -114 252 -114 c 0,49,50
 266 -114 266 -114 273 -118 c 1,51,52
 269 -129 269 -129 269 -147.5 c 128,-1,53
 269 -166 269 -166 279.5 -180.5 c 128,-1,54
 290 -195 290 -195 309 -195 c 128,-1,55
 328 -195 328 -195 340.5 -180 c 128,-1,56
 353 -165 353 -165 353 -141 c 0,36,37
EndSplineSet
Position2: "'cpsp' Capital Spacing in Latin lookup 0 subtable" dx=7 dy=0 dh=35 dv=0
EndChar

StartChar: bar
Encoding: 124 124 157
Width: 236
Flags: HMW
HStem: -107 21G<82 82 82 154> 610 20G<82 154 154 154>
VStem: 82 72<-107 630 -107 630>
LayerCount: 2
Fore
SplineSet
82 -107 m 1,0,-1
 82 630 l 1,1,-1
 154 630 l 1,2,-1
 154 -107 l 1,3,-1
 82 -107 l 1,0,-1
EndSplineSet
Position2: "'case' Case-Sensitive Forms in Latin lookup 1 per glyph data 0" dx=0 dy=70 dh=0 dv=0
EndChar

StartChar: braceleft
Encoding: 123 123 158
Width: 288
Flags: HMW
HStem: -113 21G<238 238> 615 20G<238 238>
VStem: 102 77<80 150 339 372 372 442 442 499>
LayerCount: 2
Fore
SplineSet
111 263 m 1,0,-1
 111 259 l 1,1,2
 146 248 146 248 162.5 223 c 128,-1,3
 179 198 179 198 179 150 c 2,4,-1
 179 23 l 2,5,6
 179 -34.380952381 179 -34.380952381 202.5 -59 c 0,7,8
 213 -70 213 -70 248 -98 c 1,9,-1
 238 -113 l 1,10,11
 207 -97 207 -97 197 -92 c 128,-1,12
 187 -87 187 -87 166.5 -74.5 c 128,-1,13
 146 -62 146 -62 141.5 -57 c 128,-1,14
 137 -52 137 -52 125.5 -40 c 128,-1,15
 114 -28 114 -28 112.5 -19.5 c 128,-1,16
 111 -11 111 -11 106.5 7.5625 c 0,17,18
 102 26.125 102 26.125 102 80 c 2,19,-1
 102 193 l 2,20,21
 102 222 102 222 90 238 c 128,-1,22
 78 254 78 254 45 254 c 1,23,-1
 45 268 l 1,24,25
 78 268 78 268 90 284 c 128,-1,26
 102 300 102 300 102 329 c 2,27,-1
 102 442 l 2,28,29
 102 495.875 102 495.875 106.5 514.4375 c 128,-1,30
 111 533 111 533 112.5 541.5 c 128,-1,31
 114 550 114 550 125.5 562 c 128,-1,32
 137 574 137 574 141.5 579 c 128,-1,33
 146 584 146 584 166.5 596.5 c 128,-1,34
 187 609 187 609 197 614 c 128,-1,35
 207 619 207 619 238 635 c 1,36,-1
 248 620 l 1,37,38
 213 592 213 592 202.5 581 c 0,39,40
 179 556.380952381 179 556.380952381 179 499 c 2,41,-1
 179 372 l 2,42,43
 179 324 179 324 162.5 299 c 128,-1,44
 146 274 146 274 111 263 c 1,0,-1
EndSplineSet
Position2: "'case' Case-Sensitive Forms in Latin lookup 1 per glyph data 0" dx=0 dy=70 dh=0 dv=0
EndChar

StartChar: braceright
Encoding: 125 125 159
Width: 288
Flags: HMW
HStem: -113 21G<50 50> 615 20G<50 50>
VStem: 109 77<23 80 80 150 150 183 372 442>
LayerCount: 2
Fore
SplineSet
177 259 m 1,0,-1
 177 263 l 1,1,2
 142 274 142 274 125.5 299 c 128,-1,3
 109 324 109 324 109 372 c 2,4,-1
 109 499 l 2,5,6
 109 556.380952381 109 556.380952381 85.5 581 c 0,7,8
 75 592 75 592 40 620 c 1,9,-1
 50 635 l 1,10,11
 81 619 81 619 91 614 c 128,-1,12
 101 609 101 609 121.5 596.5 c 128,-1,13
 142 584 142 584 146.5 579 c 128,-1,14
 151 574 151 574 162.5 562 c 128,-1,15
 174 550 174 550 175.5 541.5 c 128,-1,16
 177 533 177 533 181.5 514.4375 c 0,17,18
 186 495.875 186 495.875 186 442 c 2,19,-1
 186 329 l 2,20,21
 186 300 186 300 198 284 c 128,-1,22
 210 268 210 268 243 268 c 1,23,-1
 243 254 l 1,24,25
 210 254 210 254 198 238 c 128,-1,26
 186 222 186 222 186 193 c 2,27,-1
 186 80 l 2,28,29
 186 26.125 186 26.125 181.5 7.5625 c 128,-1,30
 177 -11 177 -11 175.5 -19.5 c 128,-1,31
 174 -28 174 -28 162.5 -40 c 128,-1,32
 151 -52 151 -52 146.5 -57 c 128,-1,33
 142 -62 142 -62 121.5 -74.5 c 128,-1,34
 101 -87 101 -87 91 -92 c 128,-1,35
 81 -97 81 -97 50 -113 c 1,36,-1
 40 -98 l 1,37,38
 75 -70 75 -70 85.5 -59 c 0,39,40
 109 -34.380952381 109 -34.380952381 109 23 c 2,41,-1
 109 150 l 2,42,43
 109 198 109 198 125.5 223 c 128,-1,44
 142 248 142 248 177 259 c 1,0,-1
EndSplineSet
Position2: "'case' Case-Sensitive Forms in Latin lookup 1 per glyph data 0" dx=0 dy=70 dh=0 dv=0
EndChar

StartChar: asterisk
Encoding: 42 42 160
Width: 418
Flags: HMW
HStem: 341 21G<119 149 269 299> 489 78 640 20G<198.5 219.5>
LayerCount: 2
Fore
SplineSet
235.5 649.5 m 128,-1,1
 246 639 246 639 246 623 c 128,-1,2
 246 607 246 607 234 565.5 c 128,-1,3
 222 524 222 524 217 499 c 1,4,5
 240 512 240 512 280.526315789 539.5 c 0,6,7
 321.052631579 567 321.052631579 567 337.526315789 567 c 128,-1,8
 354 567 354 567 364.5 556 c 128,-1,9
 375 545 375 545 375 529 c 0,10,11
 375 492 375 492 310 489 c 128,-1,12
 245 486 245 486 222 483 c 1,13,14
 242 465 242 465 272.5 441.5 c 128,-1,15
 303 418 303 418 314.5 405 c 128,-1,16
 326 392 326 392 326 378 c 128,-1,17
 326 364 326 364 315 352.5 c 128,-1,18
 304 341 304 341 287.5 341 c 128,-1,19
 271 341 271 341 261.5 353 c 128,-1,20
 252 365 252 365 236.5 407 c 128,-1,21
 221 449 221 449 209 474 c 1,22,23
 195.166666667 444.95 195.166666667 444.95 182.583333333 410.975 c 128,-1,24
 170 377 170 377 163.5 364.5 c 0,25,26
 151.28 341 151.28 341 132.64 341 c 128,-1,27
 114 341 114 341 103 352.5 c 128,-1,28
 92 364 92 364 92 378 c 128,-1,29
 92 392 92 392 103.5 405 c 128,-1,30
 115 418 115 418 145.5 441.5 c 128,-1,31
 176 465 176 465 196 483 c 1,32,33
 174 486 174 486 108.5 489 c 128,-1,34
 43 492 43 492 43 529 c 0,35,36
 43 545 43 545 53.5 556 c 128,-1,37
 64 567 64 567 77.5 567 c 128,-1,38
 91 567 91 567 106.5 558.5 c 128,-1,39
 122 550 122 550 150 531 c 128,-1,40
 178 512 178 512 201 499 c 1,41,42
 196 524 196 524 184 565.5 c 128,-1,43
 172 607 172 607 172 623 c 128,-1,44
 172 639 172 639 182.5 649.5 c 128,-1,45
 193 660 193 660 209 660 c 128,-1,0
 225 660 225 660 235.5 649.5 c 128,-1,1
EndSplineSet
EndChar

StartChar: degree
Encoding: 176 176 161
Width: 274
Flags: HMW
HStem: 428 41<119 155 119 166.5> 601 41<119 155>
VStem: 30 41<517 553 517 564.5> 203 41<517 553>
LayerCount: 2
Fore
SplineSet
30 535 m 128,-1,1
 30 579 30 579 61.5 610.5 c 128,-1,2
 93 642 93 642 137 642 c 128,-1,3
 181 642 181 642 212.5 610.5 c 128,-1,4
 244 579 244 579 244 535 c 128,-1,5
 244 491 244 491 212.5 459.5 c 128,-1,6
 181 428 181 428 137 428 c 128,-1,7
 93 428 93 428 61.5 459.5 c 128,-1,0
 30 491 30 491 30 535 c 128,-1,1
71 535 m 128,-1,9
 71 508 71 508 90.5 488.5 c 128,-1,10
 110 469 110 469 137 469 c 128,-1,11
 164 469 164 469 183.5 488.5 c 128,-1,12
 203 508 203 508 203 535 c 128,-1,13
 203 562 203 562 183.5 581.5 c 128,-1,14
 164 601 164 601 137 601 c 128,-1,15
 110 601 110 601 90.5 581.5 c 128,-1,8
 71 562 71 562 71 535 c 128,-1,9
EndSplineSet
EndChar

StartChar: plus
Encoding: 43 43 162
Width: 532
Flags: HMW
HStem: 0 21G<239 292 239 239> 170 53<70 239 70 239 292 462> 372 20G<239 292 292 292>
VStem: 239 53<0 170 0 170 223 392>
LayerCount: 2
Fore
SplineSet
292 392 m 1,0,-1
 292 223 l 1,1,-1
 462 223 l 1,2,-1
 462 170 l 1,3,-1
 292 170 l 1,4,-1
 292 0 l 1,5,-1
 239 0 l 1,6,-1
 239 170 l 1,7,-1
 70 170 l 1,8,-1
 70 223 l 1,9,-1
 239 223 l 1,10,-1
 239 392 l 1,11,-1
 292 392 l 1,0,-1
EndSplineSet
EndChar

StartChar: minus
Encoding: 8722 8722 163
Width: 532
Flags: HMW
HStem: 170 53<70 462 70 462>
LayerCount: 2
Fore
SplineSet
462 170 m 1,0,-1
 70 170 l 1,1,-1
 70 223 l 1,2,-1
 462 223 l 1,3,-1
 462 170 l 1,0,-1
EndSplineSet
EndChar

StartChar: equal
Encoding: 61 61 164
Width: 532
Flags: HMW
HStem: 85 53<70 462 70 462> 255 53<70 462 70 462>
LayerCount: 2
Fore
SplineSet
462 255 m 1,0,-1
 70 255 l 1,1,-1
 70 308 l 1,2,-1
 462 308 l 1,3,-1
 462 255 l 1,0,-1
462 85 m 1,4,-1
 70 85 l 1,5,-1
 70 138 l 1,6,-1
 462 138 l 1,7,-1
 462 85 l 1,4,-1
EndSplineSet
EndChar

StartChar: dollar
Encoding: 36 36 165
Width: 463
Flags: HMW
HStem: -101 21G<210 241 210 210> 647 20G<210 241 241 241>
VStem: 45 69<79.5 101.5 70 127> 60 54 210 31<-101 -12 -12 -12 13 240 333 549 549 549 579 667> 318 69<459 486 439 488.5> 344 73<103 143.5>
LayerCount: 2
Fore
SplineSet
90.5 26 m 128,-1,1
 45 62 45 62 45 115 c 128,-1,2
 45 168 45 168 87 168 c 0,3,4
 110 168 110 168 128 152 c 1,5,6
 114 127 114 127 114 93 c 128,-1,7
 114 59 114 59 142 36.5 c 128,-1,8
 170 14 170 14 210 12 c 1,9,-1
 210 254 l 1,10,-1
 157 278 l 2,11,12
 109 300 109 300 84.5 337.5 c 128,-1,13
 60 375 60 375 60 418 c 0,14,15
 60 480 60 480 98.5 526 c 128,-1,16
 137 572 137 572 210 578 c 1,17,-1
 210 667 l 1,18,-1
 241 667 l 1,19,-1
 241 579 l 1,20,21
 313 576 313 576 350 541 c 128,-1,22
 387 506 387 506 387 452.5 c 128,-1,23
 387 399 387 399 351 399 c 0,24,25
 322 399 322 399 305 414 c 1,26,27
 318 443 318 443 318 471.5 c 128,-1,28
 318 500 318 500 298 523.5 c 128,-1,29
 278 547 278 547 241 550 c 1,30,-1
 241 319 l 1,31,-1
 306 290 l 2,32,33
 360 266 360 266 388.5 227 c 128,-1,34
 417 188 417 188 417 146 c 0,35,36
 417 82 417 82 368.5 39 c 128,-1,37
 320 -4 320 -4 241 -11 c 1,38,-1
 241 -101 l 1,39,-1
 210 -101 l 1,40,-1
 210 -12 l 1,41,0
 136 -10 136 -10 90.5 26 c 128,-1,1
263 230 m 1,42,-1
 241 240 l 1,43,-1
 241 13 l 1,44,45
 288 20 288 20 316 52.5 c 128,-1,46
 344 85 344 85 344 124 c 0,47,48
 344 192 344 192 263 230 c 1,42,-1
121 449 m 0,49,50
 121 373 121 373 199 338 c 2,51,-1
 210 333 l 1,52,-1
 210 549 l 1,53,54
 168 543 168 543 144.5 514.5 c 128,-1,55
 121 486 121 486 121 449 c 0,49,50
EndSplineSet
EndChar

StartChar: sterling
Encoding: 163 163 166
Width: 463
Flags: HMW
HStem: -12 69<302.5 345 302.5 350.5> 247 31<37 115 37 124 37 115 193 332 193 193> 551 28<242.5 295.5>
VStem: 97 70<393.5 450.5> 345 69<459 487 439 490>
LayerCount: 2
Fore
SplineSet
414 454 m 128,-1,1
 414 399 414 399 372.5 399 c 0,2,3
 350 399 350 399 331 414 c 1,4,5
 345 442 345 442 345 473 c 128,-1,6
 345 504 345 504 326 527.5 c 128,-1,7
 307 551 307 551 268 551 c 0,8,9
 167 551 167 551 167 416 c 0,10,11
 167 367 167 367 186 278 c 1,12,-1
 332 278 l 1,13,-1
 332 247 l 1,14,-1
 193 247 l 1,15,16
 208 172 208 172 208 135.5 c 128,-1,17
 208 99 208 99 202 78 c 1,18,19
 273 57 273 57 323 57 c 0,20,21
 397 57 397 57 415 148 c 1,22,-1
 440 144 l 1,23,24
 422 -12 422 -12 325 -12 c 0,25,26
 295 -12 295 -12 268 -2 c 128,-1,27
 241 8 241 8 227 17.5 c 128,-1,28
 213 27 213 27 191 45 c 1,29,30
 162 -12 162 -12 103 -12 c 0,31,32
 73 -12 73 -12 56.5 3.5 c 128,-1,33
 40 19 40 19 40 41.5 c 128,-1,34
 40 64 40 64 59.5 81 c 128,-1,35
 79 98 79 98 104 98 c 128,-1,36
 129 98 129 98 161 89 c 1,37,38
 159 122 159 122 124 247 c 1,39,-1
 37 247 l 1,40,-1
 37 278 l 1,41,-1
 115 278 l 1,42,43
 97 350 97 350 97 383 c 0,44,45
 97 476 97 476 153.5 527.5 c 128,-1,46
 210 579 210 579 279 579 c 128,-1,47
 348 579 348 579 381 544 c 128,-1,0
 414 509 414 509 414 454 c 128,-1,1
91.5 17 m 128,-1,49
 100 7 100 7 117.5 7 c 128,-1,50
 135 7 135 7 147 23 c 128,-1,51
 159 39 159 39 161 65 c 1,52,53
 140 78 140 78 121 78 c 128,-1,54
 102 78 102 78 92.5 67.5 c 128,-1,55
 83 57 83 57 83 42 c 128,-1,48
 83 27 83 27 91.5 17 c 128,-1,49
EndSplineSet
EndChar

StartChar: guillemotleft
Encoding: 171 171 167
Width: 395
Flags: HMW
HStem: 54 21G<190 190 339 339> 388 20G<190 190 339 339>
LayerCount: 2
Fore
SplineSet
179 225 m 1,0,-1
 179 237 l 1,1,-1
 339 408 l 1,2,-1
 355 394 l 1,3,-1
 261 231 l 1,4,-1
 355 68 l 1,5,-1
 339 54 l 1,6,-1
 179 225 l 1,0,-1
30 225 m 1,7,-1
 30 237 l 1,8,-1
 190 408 l 1,9,-1
 206 394 l 1,10,-1
 112 231 l 1,11,-1
 206 68 l 1,12,-1
 190 54 l 1,13,-1
 30 225 l 1,7,-1
EndSplineSet
Position2: "'case' Case-Sensitive Forms in Latin lookup 1 per glyph data 0" dx=0 dy=70 dh=0 dv=0
EndChar

StartChar: guillemotright
Encoding: 187 187 168
Width: 395
Flags: HMW
HStem: 54 21G<56 56 205 205> 388 20G<56 56 205 205>
LayerCount: 2
Fore
SplineSet
216 237 m 1,0,-1
 216 225 l 1,1,-1
 56 54 l 1,2,-1
 40 68 l 1,3,-1
 134 231 l 1,4,-1
 40 394 l 1,5,-1
 56 408 l 1,6,-1
 216 237 l 1,0,-1
365 237 m 1,7,-1
 365 225 l 1,8,-1
 205 54 l 1,9,-1
 189 68 l 1,10,-1
 283 231 l 1,11,-1
 189 394 l 1,12,-1
 205 408 l 1,13,-1
 365 237 l 1,7,-1
EndSplineSet
Position2: "'case' Case-Sensitive Forms in Latin lookup 1 per glyph data 0" dx=0 dy=70 dh=0 dv=0
EndChar

StartChar: guilsinglleft
Encoding: 8249 8249 169
Width: 246
Flags: HMW
HStem: 54 21G<190 190> 388 20G<190 190>
LayerCount: 2
Fore
SplineSet
30 225 m 1,0,-1
 30 237 l 1,1,-1
 190 408 l 1,2,-1
 206 394 l 1,3,-1
 112 231 l 1,4,-1
 206 68 l 1,5,-1
 190 54 l 1,6,-1
 30 225 l 1,0,-1
EndSplineSet
Position2: "'case' Case-Sensitive Forms in Latin lookup 1 per glyph data 0" dx=0 dy=70 dh=0 dv=0
EndChar

StartChar: guilsinglright
Encoding: 8250 8250 170
Width: 246
Flags: HMW
HStem: 54 21G<56 56> 388 20G<56 56>
LayerCount: 2
Fore
SplineSet
216 237 m 1,0,-1
 216 225 l 1,1,-1
 56 54 l 1,2,-1
 40 68 l 1,3,-1
 134 231 l 1,4,-1
 40 394 l 1,5,-1
 56 408 l 1,6,-1
 216 237 l 1,0,-1
EndSplineSet
Position2: "'case' Case-Sensitive Forms in Latin lookup 1 per glyph data 0" dx=0 dy=70 dh=0 dv=0
EndChar

StartChar: divide
Encoding: 247 247 171
Width: 532
Flags: HMW
HStem: 9 21G<258 284> 170 53<70 462 70 462> 364 20G<258 284>
VStem: 223 96<44 70 323 349>
LayerCount: 2
Fore
SplineSet
462 170 m 1,0,-1
 70 170 l 1,1,-1
 70 223 l 1,2,-1
 462 223 l 1,3,-1
 462 170 l 1,0,-1
319 57 m 128,-1,5
 319 38 319 38 304.5 23.5 c 128,-1,6
 290 9 290 9 271 9 c 128,-1,7
 252 9 252 9 237.5 23.5 c 128,-1,8
 223 38 223 38 223 57 c 128,-1,9
 223 76 223 76 237.5 90.5 c 128,-1,10
 252 105 252 105 271 105 c 128,-1,11
 290 105 290 105 304.5 90.5 c 128,-1,4
 319 76 319 76 319 57 c 128,-1,5
319 336 m 128,-1,13
 319 316 319 316 304.5 302 c 128,-1,14
 290 288 290 288 271 288 c 128,-1,15
 252 288 252 288 237.5 302 c 128,-1,16
 223 316 223 316 223 336 c 128,-1,17
 223 356 223 356 237.5 370 c 128,-1,18
 252 384 252 384 271 384 c 128,-1,19
 290 384 290 384 304.5 370 c 128,-1,12
 319 356 319 356 319 336 c 128,-1,13
EndSplineSet
EndChar

StartChar: multiply
Encoding: 215 215 172
Width: 532
Flags: HMW
HStem: 28 21G<396 396> 344 20G<396 396>
LayerCount: 2
Fore
SplineSet
136 363 m 1,0,-1
 265 233 l 1,1,-1
 396 364 l 1,2,-1
 433 326 l 1,3,-1
 303 196 l 1,4,-1
 433 66 l 1,5,-1
 396 28 l 1,6,-1
 265 158 l 1,7,-1
 136 29 l 1,8,-1
 98 66 l 1,9,-1
 228 196 l 1,10,-1
 98 326 l 1,11,-1
 136 363 l 1,0,-1
EndSplineSet
EndChar

StartChar: percent
Encoding: 37 37 173
Width: 779
Flags: HMW
HStem: -74 21G<247 282 247 247> -8 20<582.5 623 582.5 642> 205 20<155.5 196 155.5 215> 559 20G<137 215> 628 20G<496 532 532 532>
VStem: 41 60<339.5 446 339.5 452.5> 251 60<339.5 446> 468 60<126.5 233 126.5 239.5> 678 60<126.5 233>
LayerCount: 2
Fore
SplineSet
78.5 255 m 128,-1,1
 41 305 41 305 41 392.5 c 128,-1,2
 41 480 41 480 78.5 529.5 c 128,-1,3
 116 579 116 579 176 579 c 128,-1,4
 236 579 236 579 273.5 529.5 c 128,-1,5
 311 480 311 480 311 392.5 c 128,-1,6
 311 305 311 305 273.5 255 c 128,-1,7
 236 205 236 205 176 205 c 128,-1,0
 116 205 116 205 78.5 255 c 128,-1,1
122.5 515 m 128,-1,9
 101 470 101 470 101 392.5 c 128,-1,10
 101 315 101 315 122.5 270 c 128,-1,11
 144 225 144 225 175.5 225 c 128,-1,12
 207 225 207 225 229 270.5 c 128,-1,13
 251 316 251 316 251 393 c 128,-1,14
 251 470 251 470 229 515 c 128,-1,15
 207 560 207 560 175.5 560 c 128,-1,8
 144 560 144 560 122.5 515 c 128,-1,9
505.5 42 m 128,-1,17
 468 92 468 92 468 179.5 c 128,-1,18
 468 267 468 267 505.5 316.5 c 128,-1,19
 543 366 543 366 603 366 c 128,-1,20
 663 366 663 366 700.5 316.5 c 128,-1,21
 738 267 738 267 738 179.5 c 128,-1,22
 738 92 738 92 700.5 42 c 128,-1,23
 663 -8 663 -8 603 -8 c 128,-1,16
 543 -8 543 -8 505.5 42 c 128,-1,17
549.5 302 m 128,-1,25
 528 257 528 257 528 179.5 c 128,-1,26
 528 102 528 102 549.5 57 c 128,-1,27
 571 12 571 12 602.5 12 c 128,-1,28
 634 12 634 12 656 57.5 c 128,-1,29
 678 103 678 103 678 180 c 128,-1,30
 678 257 678 257 656 302 c 128,-1,31
 634 347 634 347 602.5 347 c 128,-1,24
 571 347 571 347 549.5 302 c 128,-1,25
282 -74 m 1,32,-1
 247 -74 l 1,33,-1
 496 648 l 1,34,-1
 532 648 l 1,35,-1
 282 -74 l 1,32,-1
EndSplineSet
EndChar

StartChar: cent
Encoding: 162 162 174
Width: 434
Flags: HMW
HStem: -55 21G<231 262 231 231> 64 25<231 231 262 262> 478 24<231 231> 601 20G<231 262 262 262>
VStem: 41 78<221.5 345 221.5 348> 231 31<-55 64 502 621> 317 69<391 415.5 371 419.5>
LayerCount: 2
Fore
SplineSet
262 -55 m 1,0,-1
 231 -55 l 1,1,-1
 231 64 l 1,2,3
 148 70 148 70 94.5 128.5 c 128,-1,4
 41 187 41 187 41 282.5 c 0,5,6
 41 378 41 378 94.5 436.5 c 128,-1,7
 148 495 148 495 231 502 c 1,8,-1
 231 621 l 1,9,-1
 262 621 l 1,10,-1
 262 502 l 1,11,12
 325 499 325 499 355.5 466.5 c 128,-1,13
 386 434 386 434 386 382.5 c 0,14,15
 386 331 386 331 350 331 c 0,16,17
 321 331 321 331 304 346 c 1,18,19
 317 375 317 375 317 403.5 c 0,20,21
 317 432 317 432 300.5 455 c 128,-1,22
 284 478 284 478 251 478 c 0,23,24
 192 478 192 478 155.5 426 c 128,-1,25
 119 374 119 374 119 283.5 c 0,26,27
 119 193 119 193 155 141 c 128,-1,28
 191 89 191 89 245.5 89 c 0,29,30
 300 89 300 89 337.5 116 c 128,-1,31
 375 143 375 143 388 192 c 1,32,-1
 408 187 l 1,33,34
 396 132 396 132 355.5 100 c 128,-1,35
 315 68 315 68 262 64 c 1,36,-1
 262 -55 l 1,0,-1
EndSplineSet
EndChar

StartChar: florin
Encoding: 402 402 175
Width: 463
Flags: HMW
HStem: -222 21G<64 64> 247 31<59 151 59 151 221 354> 554 25<272 322.5>
VStem: 151 70<-105 -87 -87 247> 355 69<476 504.5>
LayerCount: 2
Fore
SplineSet
424 476 m 0,0,1
 424 407 424 407 378 407 c 0,2,3
 353 407 353 407 340 422 c 1,4,5
 355 455 355 455 355 485.5 c 128,-1,6
 355 516 355 516 342.5 535 c 128,-1,7
 330 554 330 554 305 554 c 0,8,9
 259 554 259 554 240.5 511 c 128,-1,10
 222 468 222 468 222 390 c 2,11,-1
 221 278 l 1,12,-1
 354 278 l 1,13,-1
 354 247 l 1,14,-1
 221 247 l 1,15,-1
 221 -87 l 2,16,17
 221 -151 221 -151 187 -181.5 c 128,-1,18
 153 -212 153 -212 64 -222 c 1,19,-1
 60 -198 l 1,20,21
 151 -180 151 -180 151 -105 c 2,22,-1
 151 247 l 1,23,-1
 59 247 l 1,24,-1
 59 278 l 1,25,-1
 151 278 l 1,26,27
 159 579 159 579 304 579 c 0,28,29
 364 579 364 579 394 550.5 c 128,-1,30
 424 522 424 522 424 476 c 0,0,1
EndSplineSet
EndChar

StartChar: at
Encoding: 64 64 176
Width: 795
Flags: HMW
HStem: -137 36<314.5 398 314.5 398> -48 36<561.5 595.5> -12 48<344 363> 208 21<387.5 422.5 348 447.5> 400 24<379 427> 502 36<314.5 481>
VStem: 60 36<116.5 283.5 116.5 293.5> 233 68<85 125.5 85 129> 265 69<316.5 341> 470 70<55 122 122 122> 699 36<144.5 283.5>
LayerCount: 2
Fore
SplineSet
470 283 m 0,0,1
 470 400 470 400 400 400 c 0,2,3
 369 400 369 400 351.5 379 c 128,-1,4
 334 358 334 358 334 330.5 c 128,-1,5
 334 303 334 303 342 282 c 1,6,7
 325 268 325 268 295 268 c 128,-1,8
 265 268 265 268 265 308 c 0,9,10
 265 360 265 360 302 392 c 128,-1,11
 339 424 339 424 408 424 c 0,12,13
 540 424 540 424 540 260 c 2,14,-1
 540 27 l 2,15,16
 540 -12 540 -12 572 -12 c 0,17,18
 622 -12 622 -12 660.5 52.5 c 128,-1,19
 699 117 699 117 699 200 c 0,20,21
 699 325 699 325 611 413.5 c 128,-1,22
 523 502 523 502 398 502 c 128,-1,23
 273 502 273 502 184.5 413.5 c 128,-1,24
 96 325 96 325 96 200 c 128,-1,25
 96 75 96 75 184.5 -13 c 128,-1,26
 273 -101 273 -101 398 -101 c 1,27,-1
 398 -137 l 1,28,29
 258 -137 258 -137 159 -38.5 c 128,-1,30
 60 60 60 60 60 200 c 128,-1,31
 60 340 60 340 159 439 c 128,-1,32
 258 538 258 538 398 538 c 128,-1,33
 538 538 538 538 636.5 439 c 128,-1,34
 735 340 735 340 735 200 c 0,35,36
 735 87 735 87 678.5 19.5 c 128,-1,37
 622 -48 622 -48 557 -48 c 0,38,39
 470 -48 470 -48 470 55 c 2,40,-1
 470 122 l 1,41,42
 454 55 454 55 417 21.5 c 128,-1,43
 380 -12 380 -12 337 -12 c 128,-1,44
 294 -12 294 -12 263.5 18 c 128,-1,45
 233 48 233 48 233 99 c 128,-1,46
 233 150 233 150 278.5 189.5 c 128,-1,47
 324 229 324 229 408 229 c 0,48,49
 424 229 424 229 469 224 c 1,50,51
 470 231 470 231 470 283 c 0,0,1
318 55.5 m 128,-1,53
 335 36 335 36 368 36 c 128,-1,54
 401 36 401 36 431.5 81 c 128,-1,55
 462 126 462 126 468 207 c 1,56,57
 459 208 459 208 443 208 c 0,58,59
 368 208 368 208 334.5 176 c 128,-1,60
 301 144 301 144 301 109.5 c 128,-1,52
 301 75 301 75 318 55.5 c 128,-1,53
EndSplineSet
EndChar

StartChar: germandbls
Encoding: 223 223 177
Width: 531
Flags: HMW
HStem: -12 24<325 376.5 325 398.5> 0 21G<45 178 45 45> 412 20G<45 107 107 107> 636 24<262.5 311>
VStem: 107 71<432 495 0 512.5> 211 66<61.5 89.5 59.5 114.5> 256 58<337 360> 373 71<501 572> 447 59<92.5 112>
LayerCount: 2
Fore
SplineSet
211 100 m 128,-1,1
 211 154 211 154 252.5 154 c 0,2,3
 276 154 276 154 291 139 c 1,4,5
 277 107 277 107 277 78 c 128,-1,6
 277 49 277 49 295.5 30.5 c 128,-1,7
 314 12 314 12 352 12 c 128,-1,8
 390 12 390 12 418.5 38.5 c 128,-1,9
 447 65 447 65 447 92.5 c 128,-1,10
 447 120 447 120 435 137 c 128,-1,11
 423 154 423 154 390 176 c 2,12,-1
 309 230 l 2,13,14
 282 248 282 248 269 265.5 c 128,-1,15
 256 283 256 283 256 313.5 c 128,-1,16
 256 344 256 344 274.5 372.5 c 128,-1,17
 293 401 293 401 314.5 420 c 128,-1,18
 336 439 336 439 354.5 471 c 128,-1,19
 373 503 373 503 373 544.5 c 128,-1,20
 373 586 373 586 348.5 611 c 128,-1,21
 324 636 324 636 284.5 636 c 128,-1,22
 245 636 245 636 211.5 598.5 c 128,-1,23
 178 561 178 561 178 495 c 2,24,-1
 178 0 l 1,25,-1
 45 0 l 1,26,-1
 45 18 l 1,27,-1
 92 18 l 2,28,29
 106 18 106 18 106 32 c 2,30,-1
 106 400 l 2,31,32
 106 414 106 414 92 414 c 2,33,-1
 45 414 l 1,34,-1
 45 432 l 1,35,-1
 107 432 l 1,36,37
 107 544 107 544 166.5 602 c 128,-1,38
 226 660 226 660 305 660 c 0,39,40
 362 660 362 660 403 629.5 c 128,-1,41
 444 599 444 599 444 549 c 0,42,43
 444 517 444 517 423.5 486.5 c 128,-1,44
 403 456 403 456 379 437 c 0,45,46
 314 385.541666667 314 385.541666667 314 352.270833333 c 128,-1,47
 314 319 314 319 367 283 c 2,48,-1
 430 241 l 2,49,50
 473 213 473 213 489.5 186.5 c 128,-1,51
 506 160 506 160 506 126 c 0,52,53
 506 72 506 72 463 30 c 128,-1,54
 420 -12 420 -12 355 -12 c 128,-1,55
 290 -12 290 -12 250.5 17 c 128,-1,0
 211 46 211 46 211 100 c 128,-1,1
EndSplineSet
Position2: "'cpsp' Capital Spacing in Latin lookup 0 subtable" dx=7 dy=0 dh=35 dv=0
EndChar

StartChar: fi
Encoding: 64257 64257 178
Width: 568
Flags: HMW
HStem: 0 21G<45 259 45 45 344 344 344 538> 412 20G<45 107 107 107 178 278 278 278 344 393 393 411> 603 20G<428 454> 637 23<217 247>
VStem: 107 71<432 432> 405 72<32 400 400 404>
LayerCount: 2
Fore
SplineSet
178 552 m 2,0,-1
 178 432 l 1,1,-1
 278 432 l 1,2,-1
 278 414 l 1,3,-1
 178 414 l 1,4,-1
 178 30 l 2,5,6
 178 18 178 18 194 18 c 2,7,-1
 259 18 l 1,8,-1
 259 0 l 1,9,-1
 45 0 l 1,10,-1
 45 18 l 1,11,-1
 92 18 l 2,12,13
 106 18 106 18 106 32 c 2,14,-1
 106 400 l 2,15,16
 106 414 106 414 92 414 c 2,17,-1
 45 414 l 1,18,-1
 45 432 l 1,19,-1
 107 432 l 1,20,21
 113 548 113 548 150.5 604 c 128,-1,22
 188 660 188 660 240.5 660 c 128,-1,23
 293 660 293 660 317 634.5 c 128,-1,24
 341 609 341 609 341 580 c 0,25,26
 341 520 341 520 306 520 c 0,27,28
 277 520 277 520 259 535 c 1,29,30
 274 565 274 565 274 588.5 c 0,31,32
 274 637 274 637 233 637 c 0,33,34
 178 637 178 637 178 552 c 2,0,-1
405 32 m 2,35,-1
 405 400 l 2,36,37
 405 414 405 414 391 414 c 2,38,-1
 344 414 l 1,39,-1
 344 432 l 1,40,-1
 393 432 l 2,41,42
 453 432 453 432 477 438 c 1,43,-1
 477 30 l 2,44,45
 477 18 477 18 491 18 c 2,46,-1
 538 18 l 1,47,-1
 538 0 l 1,48,-1
 344 0 l 1,49,-1
 344 18 l 1,50,-1
 391 18 l 2,51,52
 405 18 405 18 405 32 c 2,35,-1
394 576 m 128,-1,54
 394 596 394 596 408 609.5 c 128,-1,55
 422 623 422 623 441 623 c 128,-1,56
 460 623 460 623 474 609.5 c 128,-1,57
 488 596 488 596 488 576 c 128,-1,58
 488 556 488 556 474 542.5 c 128,-1,59
 460 529 460 529 441 529 c 128,-1,60
 422 529 422 529 408 542.5 c 128,-1,53
 394 556 394 556 394 576 c 128,-1,54
EndSplineSet
Ligature2: "'liga' Standard Ligatures in Latin lookup 0 subtable" f i
EndChar

StartChar: fl
Encoding: 64258 64258 179
Width: 553
Flags: HMW
HStem: 0 21G<45 259 45 45 329 523 329 329> 412 20G<45 107 107 107 178 278 278 278> 610 20G<349 376 349 349> 634 20G<462 462> 637 23<217 247>
VStem: 107 71<432 432> 390 72<32 616 616 620>
LayerCount: 2
Fore
SplineSet
390 32 m 2,0,-1
 390 616 l 2,1,2
 390 630 390 630 376 630 c 2,3,-1
 349 630 l 1,4,-1
 349 648 l 1,5,-1
 378 648 l 2,6,7
 438 648 438 648 462 654 c 1,8,-1
 462 32 l 2,9,10
 462 18 462 18 476 18 c 2,11,-1
 523 18 l 1,12,-1
 523 0 l 1,13,-1
 329 0 l 1,14,-1
 329 18 l 1,15,-1
 376 18 l 2,16,17
 390 18 390 18 390 32 c 2,0,-1
178 552 m 2,18,-1
 178 432 l 1,19,-1
 278 432 l 1,20,-1
 278 414 l 1,21,-1
 178 414 l 1,22,-1
 178 30 l 2,23,24
 178 18 178 18 194 18 c 2,25,-1
 259 18 l 1,26,-1
 259 0 l 1,27,-1
 45 0 l 1,28,-1
 45 18 l 1,29,-1
 92 18 l 2,30,31
 106 18 106 18 106 32 c 2,32,-1
 106 400 l 2,33,34
 106 414 106 414 92 414 c 2,35,-1
 45 414 l 1,36,-1
 45 432 l 1,37,-1
 107 432 l 1,38,39
 113 548 113 548 150.5 604 c 128,-1,40
 188 660 188 660 240.5 660 c 128,-1,41
 293 660 293 660 317 634.5 c 128,-1,42
 341 609 341 609 341 580 c 0,43,44
 341 520 341 520 306 520 c 0,45,46
 277 520 277 520 259 535 c 1,47,48
 274 565 274 565 274 588.5 c 0,49,50
 274 637 274 637 233 637 c 0,51,52
 178 637 178 637 178 552 c 2,18,-1
EndSplineSet
Ligature2: "'liga' Standard Ligatures in Latin lookup 0 subtable" f l
EndChar

StartChar: onehalf
Encoding: 189 189 180
Width: 779
Flags: HMW
HStem: -74 21G<245 280 245 245> -8 21G 0 45<538 637> 563 20G 628 20G<494 530 530 530>
VStem: 139 58<245 505> 646 55<259 296>
LayerCount: 2
Fore
SplineSet
139 245 m 2,0,-1
 139 522 l 2,1,2
 139 535 139 535 126 535 c 2,3,-1
 51 531 l 1,4,-1
 50 550 l 1,5,-1
 112 559 l 2,6,7
 171 568 171 568 205 583 c 1,8,9
 197 553 197 553 197 505 c 2,10,-1
 197 245 l 2,11,12
 197 231 197 231 211 231 c 2,13,-1
 269 231 l 1,14,-1
 269 213 l 1,15,-1
 61 213 l 1,16,-1
 61 231 l 1,17,-1
 125 231 l 2,18,19
 139 231 139 231 139 245 c 2,0,-1
630 327 m 128,-1,21
 614 347 614 347 589 347 c 128,-1,22
 564 347 564 347 551 333 c 128,-1,23
 538 319 538 319 538 298 c 128,-1,24
 538 277 538 277 547 259 c 1,25,26
 535 249 535 249 512 249 c 0,27,28
 483 249 483 249 483 284.5 c 128,-1,29
 483 320 483 320 509.5 343 c 128,-1,30
 536 366 536 366 590 366 c 128,-1,31
 644 366 644 366 672.5 341.5 c 128,-1,32
 701 317 701 317 701 288 c 128,-1,33
 701 259 701 259 688.5 233.5 c 128,-1,34
 676 208 676 208 663 192 c 128,-1,35
 650 176 650 176 620 140 c 2,36,-1
 538 45 l 1,37,-1
 668 45 l 2,38,39
 680 45 680 45 681 56 c 2,40,-1
 688 113 l 1,41,-1
 708 113 l 1,42,-1
 708 80 l 2,43,44
 708 41 708 41 715 -8 c 1,45,46
 685 0 685 0 637 0 c 2,47,-1
 465 0 l 1,48,-1
 601 161 l 2,49,50
 646 215 646 215 646 273 c 0,51,20
 646 307 646 307 630 327 c 128,-1,21
280 -74 m 1,52,-1
 245 -74 l 1,53,-1
 494 648 l 1,54,-1
 530 648 l 1,55,-1
 280 -74 l 1,52,-1
EndSplineSet
EndChar

StartChar: threequarters
Encoding: 190 190 181
Width: 779
Flags: HMW
HStem: -74 21G<245 280 245 245> 0 21G<559 725 559 559> 88 24<497 613 497 613 670 725> 205 20<135.5 175 135.5 195> 559 20G<132.5 181.5> 628 20G<494 530 530 530>
VStem: 204 53<482 515> 224 59<287.5 336.5 287.5 337> 613 57<32 88 28 88 112 294 294 294>
LayerCount: 2
Fore
SplineSet
97 388 m 1,0,-1
 94 405 l 1,1,-1
 122 411 l 2,2,3
 162 419 162 419 183 444.5 c 128,-1,4
 204 470 204 470 204 497 c 0,5,6
 204 524 204 524 191 542 c 128,-1,7
 178 560 178 560 158 560 c 0,8,9
 138 560 138 560 128 548 c 128,-1,10
 118 536 118 536 118 518.5 c 0,11,12
 118 501 118 501 127 479 c 1,13,14
 114 466 114 466 92 466 c 0,15,16
 63 466 63 466 63 503.5 c 0,17,18
 63 541 63 541 90 560 c 128,-1,19
 117 579 117 579 157 579 c 0,20,21
 197 579 197 579 227 557.5 c 128,-1,22
 257 536 257 536 257 504 c 0,23,24
 257 472 257 472 239 447 c 128,-1,25
 221 422 221 422 189 408 c 1,26,27
 234 400 234 400 258.5 374 c 128,-1,28
 283 348 283 348 283 309 c 0,29,30
 283 270 283 270 248.5 237.5 c 128,-1,31
 214 205 214 205 157.5 205 c 0,32,33
 101 205 101 205 75.5 228 c 128,-1,34
 50 251 50 251 50 287 c 0,35,36
 50 323 50 323 78 323 c 0,37,38
 99 323 99 323 113 311 c 1,39,40
 104 293 104 293 104 272.5 c 0,41,42
 104 252 104 252 116.5 238.5 c 128,-1,43
 129 225 129 225 157 225 c 0,44,45
 185 225 185 225 204.5 249.5 c 128,-1,46
 224 274 224 274 224 311.5 c 0,47,48
 224 349 224 349 198 370.5 c 128,-1,49
 172 392 172 392 130 392 c 0,50,51
 114 392 114 392 97 388 c 1,0,-1
613 32 m 2,52,-1
 613 88 l 1,53,-1
 450 88 l 1,54,-1
 622 358 l 1,55,-1
 670 358 l 1,56,-1
 670 112 l 1,57,-1
 725 112 l 1,58,-1
 725 88 l 1,59,-1
 670 88 l 1,60,-1
 670 32 l 2,61,62
 670 18 670 18 684 18 c 2,63,-1
 725 18 l 1,64,-1
 725 0 l 1,65,-1
 559 0 l 1,66,-1
 559 18 l 1,67,-1
 599 18 l 2,68,69
 613 18 613 18 613 32 c 2,52,-1
497 112 m 1,70,-1
 613 112 l 1,71,-1
 613 294 l 1,72,-1
 497 112 l 1,70,-1
280 -74 m 1,73,-1
 245 -74 l 1,74,-1
 494 648 l 1,75,-1
 530 648 l 1,76,-1
 280 -74 l 1,73,-1
EndSplineSet
EndChar

StartChar: thorn
Encoding: 254 254 182
Width: 495
Flags: HMW
HStem: -216 21G<25 239 25 25> -12 25<240 287 236 315> 406 38<267.5 305.5> 610 20G<25 72 25 25> 634 20G<158 158>
VStem: 86 72<-184 15 42 177 298 616 616 620> 379 76<149.5 278.5>
LayerCount: 2
Fore
SplineSet
86 -184 m 2,0,-1
 86 616 l 2,1,2
 86 630 86 630 72 630 c 2,3,-1
 25 630 l 1,4,-1
 25 648 l 1,5,-1
 74 648 l 2,6,7
 134 648 134 648 158 654 c 1,8,-1
 158 298 l 1,9,10
 175 370 175 370 212.5 407 c 128,-1,11
 250 444 250 444 296 444 c 0,12,13
 359 444 359 444 407 381 c 128,-1,14
 455 318 455 318 455 214 c 128,-1,15
 455 110 455 110 400.5 49 c 128,-1,16
 346 -12 346 -12 258 -12 c 0,17,18
 203 -12 203 -12 158 15 c 1,19,-1
 158 -184 l 2,20,21
 158 -198 158 -198 172 -198 c 2,22,-1
 239 -198 l 1,23,-1
 239 -216 l 1,24,-1
 25 -216 l 1,25,-1
 25 -198 l 1,26,-1
 72 -198 l 2,27,28
 86 -198 86 -198 86 -184 c 2,0,-1
350 355.5 m 128,-1,30
 321 406 321 406 276.5 406 c 128,-1,31
 232 406 232 406 195 346 c 128,-1,32
 158 286 158 286 158 177 c 2,33,-1
 158 42 l 1,34,35
 202 13 202 13 254.5 13 c 128,-1,36
 307 13 307 13 343 66 c 128,-1,37
 379 119 379 119 379 212 c 128,-1,29
 379 305 379 305 350 355.5 c 128,-1,30
EndSplineSet
EndChar

StartChar: ampersand
Encoding: 38 38 183
Width: 582
Flags: HMW
HStem: -12 39<203 247.5> 0 27 617 26<232.5 290>
VStem: 30 84<120 198 119.5 204> 115 63<524.5 549> 347 64<488 541.5>
LayerCount: 2
Fore
SplineSet
372 607.5 m 128,-1,1
 411 572 411 572 411 521 c 128,-1,2
 411 470 411 470 376 424 c 128,-1,3
 341 378 341 378 277 354 c 1,4,-1
 402 178 l 1,5,-1
 454 311 l 1,6,-1
 403 311 l 1,7,-1
 403 329 l 1,8,-1
 556 329 l 1,9,-1
 556 311 l 1,10,-1
 493 311 l 2,11,12
 484 311 484 311 479 297 c 2,13,-1
 421 152 l 1,14,-1
 512 26 l 2,15,16
 517 18 517 18 526 18 c 2,17,-1
 562 18 l 1,18,-1
 562 0 l 1,19,-1
 506 0 l 2,20,21
 457 0 457 0 433 -6 c 1,22,-1
 379 71 l 1,23,24
 319 -12 319 -12 215 -12 c 0,25,26
 129 -12 129 -12 79.5 40.5 c 128,-1,27
 30 93 30 93 30 159.5 c 128,-1,28
 30 226 30 226 70.5 275 c 128,-1,29
 111 324 111 324 188 347 c 1,30,-1
 157 392 l 1,31,32
 115 451 115 451 115 510 c 128,-1,33
 115 569 115 569 154.5 606 c 128,-1,34
 194 643 194 643 263.5 643 c 128,-1,0
 333 643 333 643 372 607.5 c 128,-1,1
235 27 m 0,35,36
 313 27 313 27 363 95 c 1,37,-1
 204 324 l 1,38,39
 114 276 114 276 114 167 c 0,40,41
 114 99 114 99 149 63 c 128,-1,42
 184 27 184 27 235 27 c 0,35,36
262 617 m 0,43,44
 178 617 178 617 178 533.5 c 0,45,46
 178 493 178 493 213 444 c 2,47,-1
 262 374 l 1,48,49
 303 394 303 394 325 432.5 c 128,-1,50
 347 471 347 471 347 514.5 c 128,-1,51
 347 558 347 558 324.5 587.5 c 128,-1,52
 302 617 302 617 262 617 c 0,43,44
EndSplineSet
EndChar

StartChar: paragraph
Encoding: 182 182 184
Width: 451
Flags: HMW
HStem: -92 21G<240 274 240 240 326 326 326 360> 610 20G<240 421 421 421>
VStem: 240 34<-92 262 262 262> 326 34<-92 598 -92 612 -92 612>
LayerCount: 2
Fore
SplineSet
274 -92 m 1,0,-1
 240 -92 l 1,1,-1
 240 262 l 1,2,3
 144 262 144 262 82 310 c 128,-1,4
 20 358 20 358 20 446 c 128,-1,5
 20 534 20 534 82 582 c 128,-1,6
 144 630 144 630 240 630 c 2,7,-1
 421 630 l 1,8,-1
 421 612 l 1,9,-1
 374 612 l 2,10,11
 360 612 360 612 360 598 c 2,12,-1
 360 -92 l 1,13,-1
 326 -92 l 1,14,-1
 326 612 l 1,15,-1
 274 612 l 1,16,-1
 274 -92 l 1,0,-1
EndSplineSet
EndChar

StartChar: plusminus
Encoding: 177 177 186
Width: 532
Flags: HMW
HStem: 0 53<70 462 70 462> 100 21G<239 292 239 239> 270 53<70 239 70 239 292 462> 472 20G<239 292 292 292>
VStem: 239 53<100 270 100 270 323 492>
LayerCount: 2
Fore
SplineSet
292 492 m 1,0,-1
 292 323 l 1,1,-1
 462 323 l 1,2,-1
 462 270 l 1,3,-1
 292 270 l 1,4,-1
 292 100 l 1,5,-1
 239 100 l 1,6,-1
 239 270 l 1,7,-1
 70 270 l 1,8,-1
 70 323 l 1,9,-1
 239 323 l 1,10,-1
 239 492 l 1,11,-1
 292 492 l 1,0,-1
462 0 m 1,12,-1
 70 0 l 1,13,-1
 70 53 l 1,14,-1
 462 53 l 1,15,-1
 462 0 l 1,12,-1
EndSplineSet
EndChar

StartChar: brokenbar
Encoding: 166 166 187
Width: 236
Flags: HMW
HStem: -107 21G<82 82 82 154> 610 20G<82 154 154 154>
VStem: 82 72<-107 157 -107 157 366 630>
LayerCount: 2
Fore
SplineSet
82 366 m 1,0,-1
 82 630 l 1,1,-1
 154 630 l 1,2,-1
 154 366 l 1,3,-1
 82 366 l 1,0,-1
82 -107 m 1,4,-1
 82 157 l 1,5,-1
 154 157 l 1,6,-1
 154 -107 l 1,7,-1
 82 -107 l 1,4,-1
EndSplineSet
Position2: "'case' Case-Sensitive Forms in Latin lookup 1 per glyph data 0" dx=0 dy=70 dh=0 dv=0
EndChar

StartChar: Lslash
Encoding: 321 321 188
Width: 452
Flags: HMW
HStem: -9 21G 0 28<178 341> 220 21G<18 18> 392 20G<308 308> 610 20G<35 239 239 239>
VStem: 96 82<32 600 28 603.5>
LayerCount: 2
Fore
SplineSet
18 220 m 1,0,-1
 0 255 l 1,1,-1
 308 412 l 1,2,-1
 326 377 l 1,3,-1
 18 220 l 1,0,-1
35 0 m 1,4,-1
 35 18 l 1,5,-1
 82 18 l 2,6,7
 96 18 96 18 96 32 c 2,8,-1
 96 600 l 2,9,10
 96 612 96 612 82 612 c 2,11,-1
 35 612 l 1,12,-1
 35 630 l 1,13,-1
 239 630 l 1,14,-1
 239 612 l 1,15,-1
 192 612 l 2,16,17
 178 612 178 612 178 600 c 2,18,-1
 178 28 l 1,19,-1
 377 28 l 2,20,21
 403 28 403 28 405 50 c 2,22,-1
 420 167 l 1,23,-1
 443 167 l 1,24,-1
 443 120 l 2,25,26
 443 32 443 32 452 -9 c 1,27,28
 420 0 420 0 341 0 c 2,29,-1
 35 0 l 1,4,-1
EndSplineSet
EndChar

StartChar: lslash
Encoding: 322 322 189
Width: 254
Flags: HMW
HStem: 0 21G<30 224 30 30> 244 21G<30 30> 368 20G<226 226> 610 20G<30 77 30 30> 634 20G<163 163>
VStem: 91 72<32 616 616 620>
LayerCount: 2
Fore
SplineSet
30 244 m 1,0,-1
 12 279 l 1,1,-1
 226 388 l 1,2,-1
 244 353 l 1,3,-1
 30 244 l 1,0,-1
91 32 m 2,4,-1
 91 616 l 2,5,6
 91 630 91 630 77 630 c 2,7,-1
 30 630 l 1,8,-1
 30 648 l 1,9,-1
 79 648 l 2,10,11
 139 648 139 648 163 654 c 1,12,-1
 163 32 l 2,13,14
 163 18 163 18 177 18 c 2,15,-1
 224 18 l 1,16,-1
 224 0 l 1,17,-1
 30 0 l 1,18,-1
 30 18 l 1,19,-1
 77 18 l 2,20,21
 91 18 91 18 91 32 c 2,4,-1
EndSplineSet
EndChar

StartChar: oe
Encoding: 339 339 190
Width: 770
Flags: HMW
HStem: -12 22<207 277 207 300.5> -12 24<533.5 605 533.5 606.5> 223 20<446 647 446 718 445 647> 420 24<529.5 592> 422 22<207 277>
VStem: 40 76<150.5 281.5 150.5 288.5> 369 76<143.5 288.5 150.5 281.5> 651 69<288.5 324 256.5 336>
LayerCount: 2
Fore
SplineSet
40 216 m 128,-1,1
 40 322 40 322 96 383 c 128,-1,2
 152 444 152 444 242 444 c 128,-1,3
 332 444 332 444 388.5 383 c 128,-1,4
 445 322 445 322 445 216 c 128,-1,5
 445 110 445 110 388.5 49 c 128,-1,6
 332 -12 332 -12 242 -12 c 128,-1,7
 152 -12 152 -12 96 49 c 128,-1,0
 40 110 40 110 40 216 c 128,-1,1
116 216 m 128,-1,9
 116 121 116 121 152 65.5 c 128,-1,10
 188 10 188 10 242 10 c 128,-1,11
 296 10 296 10 332.5 65.5 c 128,-1,12
 369 121 369 121 369 216 c 128,-1,13
 369 311 369 311 332.5 366.5 c 128,-1,14
 296 422 296 422 242 422 c 128,-1,15
 188 422 188 422 152 366.5 c 128,-1,8
 116 311 116 311 116 216 c 128,-1,9
571 444 m 0,16,17
 640 444 640 444 680 398 c 128,-1,18
 720 352 720 352 720 263 c 0,19,20
 720 245 720 245 718 223 c 1,21,-1
 445 223 l 1,22,-1
 445 216 l 2,23,24
 445 121 445 121 479.5 66.5 c 128,-1,25
 514 12 514 12 568.5 12 c 128,-1,26
 623 12 623 12 658 40 c 128,-1,27
 693 68 693 68 706 120 c 1,28,-1
 725 116 l 1,29,30
 713 55 713 55 670 21.5 c 128,-1,31
 627 -12 627 -12 571 -12 c 0,32,33
 484 -12 484 -12 426.5 49 c 128,-1,34
 369 110 369 110 369 215.5 c 128,-1,35
 369 321 369 321 427 382.5 c 128,-1,36
 485 444 485 444 571 444 c 0,16,17
651 297 m 0,37,38
 651 420 651 420 559.5 420 c 0,39,40
 513 420 513 420 480.5 370 c 128,-1,41
 448 320 448 320 446 243 c 1,42,-1
 647 243 l 1,43,44
 651 277 651 277 651 297 c 0,37,38
EndSplineSet
EndChar

StartChar: ae
Encoding: 230 230 191
Width: 684
Flags: HMW
HStem: -12 24<448 519 448 520.5> -12 38<151 179.5> 420 24<188.5 240.5 456 506>
VStem: 40 68<78 121 78 129> 72 69<330 356> 287 72<211 233 211 303> 565 69<288.5 324 256.5 336>
LayerCount: 2
Fore
SplineSet
222 229 m 2,0,-1
 287 231 l 1,1,-1
 287 303 l 2,2,3
 287 420 287 420 211 420 c 0,4,5
 178 420 178 420 159.5 397.5 c 128,-1,6
 141 375 141 375 141 345 c 128,-1,7
 141 315 141 315 149 293 c 1,8,9
 132 278 132 278 102 278 c 128,-1,10
 72 278 72 278 72 327 c 128,-1,11
 72 376 72 376 110.5 410 c 128,-1,12
 149 444 149 444 220 444 c 0,13,14
 306 444 306 444 339 379 c 1,15,16
 395 444 395 444 485 444 c 0,17,18
 554 444 554 444 594 398 c 128,-1,19
 634 352 634 352 634 263 c 0,20,21
 634 245 634 245 632 223 c 1,22,-1
 359 211 l 1,23,24
 360 118 360 118 394.5 65 c 128,-1,25
 429 12 429 12 483 12 c 128,-1,26
 537 12 537 12 572 40 c 128,-1,27
 607 68 607 68 620 120 c 1,28,-1
 639 116 l 1,29,30
 627 55 627 55 584 21.5 c 128,-1,31
 541 -12 541 -12 479 -12 c 128,-1,32
 417 -12 417 -12 366.5 26.5 c 128,-1,33
 316 65 316 65 297 135 c 1,34,35
 282 59 282 59 240.5 23.5 c 128,-1,36
 199 -12 199 -12 149 -12 c 128,-1,37
 99 -12 99 -12 69.5 18.5 c 128,-1,38
 40 49 40 49 40 99 c 128,-1,39
 40 149 40 149 87 187.5 c 128,-1,40
 134 226 134 226 222 229 c 2,0,-1
565 297 m 0,41,42
 565 420 565 420 473.5 420 c 0,43,44
 427 420 427 420 394.5 368 c 128,-1,45
 362 316 362 316 359 233 c 1,46,-1
 560 240 l 1,47,48
 565 268 565 268 565 297 c 0,41,42
170 26 m 0,49,50
 212 26 212 26 245.5 74 c 128,-1,51
 279 122 279 122 285 208 c 1,52,-1
 260 207 l 2,53,54
 179 204 179 204 143.5 172 c 128,-1,55
 108 140 108 140 108 104 c 128,-1,56
 108 68 108 68 125 47 c 128,-1,57
 142 26 142 26 170 26 c 0,49,50
EndSplineSet
EndChar

StartChar: Euro
Encoding: 8364 8364 192
Width: 463
Flags: HMW
HStem: -12 28<212.5 299 212.5 326.5> 246 30<-5 54 -5 54 -14 54 126 343> 312 30<14 56 5 60 131 358> 551 28<238.5 307.5>
VStem: 54 72<246 246 276 282> 357 69<459 487 439 490> 357 81
LayerCount: 2
Fore
SplineSet
389 543.5 m 128,-1,1
 426 508 426 508 426 453.5 c 128,-1,2
 426 399 426 399 384.5 399 c 0,3,4
 362 399 362 399 343 414 c 1,5,6
 357 442 357 442 357 473 c 128,-1,7
 357 504 357 504 338 527.5 c 128,-1,8
 319 551 319 551 280 551 c 0,9,10
 221 551 221 551 182 491 c 128,-1,11
 143 431 143 431 131 342 c 1,12,-1
 367 342 l 1,13,-1
 358 312 l 1,14,-1
 127 312 l 1,15,16
 126 300 126 300 126 276 c 1,17,-1
 352 276 l 1,18,-1
 343 246 l 1,19,-1
 126 246 l 1,20,21
 134 16 134 16 267 16 c 0,22,23
 313 16 313 16 340 44 c 128,-1,24
 367 72 367 72 367 110 c 0,25,26
 367 131 367 131 359 153 c 1,27,28
 378 168 378 168 408 168 c 128,-1,29
 438 168 438 168 438 125 c 0,30,31
 438 68 438 68 394.5 28 c 128,-1,32
 351 -12 351 -12 268 -12 c 0,33,34
 163 -12 163 -12 111 62.5 c 128,-1,35
 59 137 59 137 54 246 c 1,36,-1
 -14 246 l 1,37,-1
 -5 276 l 1,38,-1
 54 276 l 1,39,40
 54 288 54 288 56 312 c 1,41,-1
 5 312 l 1,42,-1
 14 342 l 1,43,-1
 60 342 l 1,44,45
 77 443 77 443 134.5 511 c 128,-1,46
 192 579 192 579 280 579 c 0,47,0
 352 579 352 579 389 543.5 c 128,-1,1
EndSplineSet
EndChar

StartChar: bullet
Encoding: 8226 8226 193
Width: 226
Flags: HMW
HStem: 210 21G<93 133> 336 20G<93 133>
LayerCount: 2
Fore
SplineSet
40 283 m 128,-1,1
 40 313 40 313 61.5 334.5 c 128,-1,2
 83 356 83 356 113 356 c 128,-1,3
 143 356 143 356 164.5 334.5 c 128,-1,4
 186 313 186 313 186 283 c 128,-1,5
 186 253 186 253 164.5 231.5 c 128,-1,6
 143 210 143 210 113 210 c 128,-1,7
 83 210 83 210 61.5 231.5 c 128,-1,0
 40 253 40 253 40 283 c 128,-1,1
EndSplineSet
Position2: "'case' Case-Sensitive Forms in Latin lookup 1 per glyph data 0" dx=0 dy=70 dh=0 dv=0
EndChar

StartChar: notequal
Encoding: 8800 8800 194
Width: 532
Flags: HMW
HStem: -96 21G<148 183 148 148> 85 53<70 462 70 462> 255 53<70 462 70 462> 472 20G<349 385 385 385>
LayerCount: 2
Fore
SplineSet
183 -96 m 1,0,-1
 148 -96 l 1,1,-1
 349 492 l 1,2,-1
 385 492 l 1,3,-1
 183 -96 l 1,0,-1
462 255 m 1,4,-1
 70 255 l 1,5,-1
 70 308 l 1,6,-1
 462 308 l 1,7,-1
 462 255 l 1,4,-1
462 85 m 1,8,-1
 70 85 l 1,9,-1
 70 138 l 1,10,-1
 462 138 l 1,11,-1
 462 85 l 1,8,-1
EndSplineSet
EndChar

StartChar: yen
Encoding: 165 165 195
Width: 463
Flags: HMW
HStem: 0 21G<111 365 111 111> 246 30<51 168 51 182 51 168 306 425> 312 30<51 136 51 150 51 136 335 425> 546 20G<7 153 153 153 355 456 456 456>
VStem: 200 76<32 208>
LayerCount: 2
Fore
SplineSet
425 276 m 1,0,-1
 425 246 l 1,1,-1
 293 246 l 1,2,-1
 276 208 l 1,3,-1
 276 32 l 2,4,5
 276 18 276 18 290 18 c 2,6,-1
 365 18 l 1,7,-1
 365 0 l 1,8,-1
 111 0 l 1,9,-1
 111 18 l 1,10,-1
 186 18 l 2,11,12
 200 18 200 18 200 32 c 2,13,-1
 200 210 l 1,14,-1
 182 246 l 1,15,-1
 51 246 l 1,16,-1
 51 276 l 1,17,-1
 168 276 l 1,18,-1
 150 312 l 1,19,-1
 51 312 l 1,20,-1
 51 342 l 1,21,-1
 136 342 l 1,22,-1
 43 534 l 2,23,24
 36 548 36 548 24 548 c 2,25,-1
 7 548 l 1,26,-1
 7 566 l 1,27,-1
 153 566 l 1,28,-1
 153 548 l 1,29,-1
 118 548 l 1,30,-1
 257 256 l 1,31,-1
 262 256 l 1,32,-1
 390 548 l 1,33,-1
 355 548 l 1,34,-1
 355 566 l 1,35,-1
 456 566 l 1,36,-1
 456 548 l 1,37,-1
 439 548 l 2,38,39
 425 548 425 548 420 534 c 1,40,-1
 335 342 l 1,41,-1
 425 342 l 1,42,-1
 425 312 l 1,43,-1
 322 312 l 1,44,-1
 306 276 l 1,45,-1
 425 276 l 1,0,-1
EndSplineSet
EndChar

StartChar: hungarumlaut
Encoding: 733 733 196
Width: 300
Flags: HMW
HStem: 468 21G<16 16 166 166> 628 20G<106 122 256 272>
LayerCount: 2
Fore
SplineSet
0 480 m 1,0,-1
 71 614 l 2,1,2
 89 648 89 648 114 648 c 0,3,4
 128 648 128 648 139 636.5 c 128,-1,5
 150 625 150 625 150 602 c 1,6,-1
 16 468 l 1,7,-1
 0 480 l 1,0,-1
150 480 m 1,8,-1
 221 614 l 2,9,10
 239 648 239 648 264 648 c 0,11,12
 278 648 278 648 289 636.5 c 128,-1,13
 300 625 300 625 300 602 c 1,14,-1
 166 468 l 1,15,-1
 150 480 l 1,8,-1
EndSplineSet
EndChar

StartChar: quotesinglbase
Encoding: 8218 8218 197
Width: 192
Flags: HMW
HStem: -125 21G<42 42> 80 20G<81 115.5>
VStem: 78 73<-37 57>
LayerCount: 2
Fore
SplineSet
31 -111 m 1,0,1
 78 -69 78 -69 78 -25.5 c 128,-1,2
 78 18 78 18 42 43 c 1,3,4
 43 67 43 67 58.5 83.5 c 128,-1,5
 74 100 74 100 96 100 c 0,6,7
 151 100 151 100 151 40 c 0,8,9
 151 -1 151 -1 120.5 -49.5 c 128,-1,10
 90 -98 90 -98 42 -125 c 1,11,-1
 31 -111 l 1,0,1
EndSplineSet
EndChar

StartChar: quotedblbase
Encoding: 8222 8222 198
Width: 335
Flags: HMW
HStem: -125 21G<41 41 186 186> 80 20G<80 114.5 225 259.5>
VStem: 77 73<-37 57> 222 73<-37 57>
LayerCount: 2
Fore
SplineSet
175 -111 m 1,0,1
 222 -69 222 -69 222 -25.5 c 128,-1,2
 222 18 222 18 186 43 c 1,3,4
 187 67 187 67 202.5 83.5 c 128,-1,5
 218 100 218 100 240 100 c 0,6,7
 295 100 295 100 295 40 c 0,8,9
 295 -1 295 -1 264.5 -49.5 c 128,-1,10
 234 -98 234 -98 186 -125 c 1,11,-1
 175 -111 l 1,0,1
30 -111 m 1,12,13
 77 -69 77 -69 77 -25.5 c 128,-1,14
 77 18 77 18 41 43 c 1,15,16
 42 67 42 67 57.5 83.5 c 128,-1,17
 73 100 73 100 95 100 c 0,18,19
 150 100 150 100 150 40 c 0,20,21
 150 -1 150 -1 119.5 -49.5 c 128,-1,22
 89 -98 89 -98 41 -125 c 1,23,-1
 30 -111 l 1,12,13
EndSplineSet
EndChar

StartChar: periodcentered
Encoding: 183 183 199
Width: 192
Flags: HMW
HStem: 227 21G<80.5 111.5> 319 20G<80.5 111.5>
VStem: 40 112<267.5 298.5>
LayerCount: 2
Fore
SplineSet
40 283 m 128,-1,1
 40 306 40 306 56.5 322.5 c 128,-1,2
 73 339 73 339 96 339 c 128,-1,3
 119 339 119 339 135.5 322.5 c 128,-1,4
 152 306 152 306 152 283 c 128,-1,5
 152 260 152 260 135.5 243.5 c 128,-1,6
 119 227 119 227 96 227 c 128,-1,7
 73 227 73 227 56.5 243.5 c 128,-1,0
 40 260 40 260 40 283 c 128,-1,1
EndSplineSet
EndChar

StartChar: logicalnot
Encoding: 172 172 200
Width: 532
Flags: HMW
HStem: 44 21G<409 462 409 409> 170 53<70 409 70 462>
VStem: 409 53<44 170 170 170>
LayerCount: 2
Fore
SplineSet
462 44 m 1,0,-1
 409 44 l 1,1,-1
 409 170 l 1,2,-1
 70 170 l 1,3,-1
 70 223 l 1,4,-1
 462 223 l 1,5,-1
 462 44 l 1,0,-1
EndSplineSet
EndChar

StartChar: Scaron
Encoding: 352 352 203
Width: 497
Flags: HMW
HStem: -12 29<202 289 202 314> 0 21G<50 69 50 50> 613 29<209 287> 616 20G<400 420> 688 21G<240.5 257.5> 848 20G<160 160 336 336>
VStem: 59 68<479 508.5> 376 81<118.5 160>
LayerCount: 2
Fore
SplineSet
248 -12 m 0,0,1
 181.869565217 -12 181.869565217 -12 115.5 23.5 c 0,2,3
 94 35 94 35 86 35 c 0,4,5
 71 35 71 35 70 14 c 2,6,-1
 69 0 l 1,7,-1
 50 0 l 1,8,-1
 50 167 l 1,9,-1
 68 167 l 1,10,11
 77 90 77 90 125.5 53.5 c 128,-1,12
 174 17 174 17 240.5 17 c 128,-1,13
 307 17 307 17 341.5 53 c 128,-1,14
 376 89 376 89 376 138 c 0,15,16
 376 216 376 216 286 256 c 2,17,-1
 167 309 l 2,18,19
 113 333 113 333 86 374.5 c 128,-1,20
 59 416 59 416 59 464 c 0,21,22
 59 537 59 537 108 589.5 c 128,-1,23
 157 642 157 642 249 642 c 0,24,25
 303.391304348 642 303.391304348 642 360.5 606.5 c 0,26,27
 379 595 379 595 386 595 c 0,28,29
 399 595 399 595 400 616 c 2,30,-1
 401 636 l 1,31,-1
 420 636 l 1,32,-1
 420 463 l 1,33,-1
 402 463 l 1,34,35
 394 540 394 540 352.5 576.5 c 128,-1,36
 311 613 311 613 251.5 613 c 128,-1,37
 192 613 192 613 159.5 580.5 c 128,-1,38
 127 548 127 548 127 506.5 c 128,-1,39
 127 465 127 465 149.5 432 c 128,-1,40
 172 399 172 399 216 380 c 2,41,-1
 336 327 l 2,42,43
 396 300 396 300 426.5 256.5 c 128,-1,44
 457 213 457 213 457 163 c 0,45,46
 457 92 457 92 400 40 c 128,-1,47
 343 -12 343 -12 248 -12 c 0,0,1
291 722 m 2,48,49
 275 688 275 688 248 688 c 128,-1,50
 221 688 221 688 205 722 c 2,51,-1
 144 856 l 1,52,-1
 160 868 l 1,53,-1
 249 753 l 1,54,-1
 336 868 l 1,55,-1
 352 856 l 1,56,-1
 291 722 l 2,48,49
EndSplineSet
Position2: "'cpsp' Capital Spacing in Latin lookup 0 subtable" dx=7 dy=0 dh=35 dv=0
EndChar

StartChar: registered
Encoding: 174 174 204
Width: 544
Flags: HMW
HStem: 176 25<212.5 331.5 212.5 338.5> 558 21<240 276 240 240> 635 25<212.5 331.5>
VStem: 188 52<290 399 421 553 553 553> 332 51<472 506>
LayerCount: 2
Fore
SplineSet
30 418 m 128,-1,1
 30 518 30 518 101 589 c 128,-1,2
 172 660 172 660 272 660 c 128,-1,3
 372 660 372 660 443 589 c 128,-1,4
 514 518 514 518 514 418 c 128,-1,5
 514 318 514 318 443 247 c 128,-1,6
 372 176 372 176 272 176 c 128,-1,7
 172 176 172 176 101 247 c 128,-1,0
 30 318 30 318 30 418 c 128,-1,1
55 418 m 128,-1,9
 55 329 55 329 119 265 c 128,-1,10
 183 201 183 201 272 201 c 128,-1,11
 361 201 361 201 425 265 c 128,-1,12
 489 329 489 329 489 418 c 128,-1,13
 489 507 489 507 425 571 c 128,-1,14
 361 635 361 635 272 635 c 128,-1,15
 183 635 183 635 119 571 c 128,-1,8
 55 507 55 507 55 418 c 128,-1,9
279 276 m 1,16,-1
 279 262 l 1,17,-1
 157 262 l 1,18,-1
 157 276 l 1,19,-1
 174 276 l 2,20,21
 188 276 188 276 188 290 c 2,22,-1
 188 553 l 1,23,24
 186 565 186 565 174 565 c 2,25,-1
 157 565 l 1,26,-1
 157 579 l 1,27,-1
 278 579 l 2,28,29
 322 579 322 579 352.5 554.5 c 128,-1,30
 383 530 383 530 383 489 c 0,31,32
 383 428 383 428 320 406 c 1,33,-1
 383 285 l 2,34,35
 388 276 388 276 396 276 c 2,36,-1
 407 276 l 1,37,-1
 407 262 l 1,38,-1
 379 262 l 2,39,40
 355 262 355 262 341 258 c 1,41,-1
 269 399 l 1,42,-1
 240 399 l 1,43,-1
 240 290 l 2,44,45
 240 276 240 276 254 276 c 2,46,-1
 279 276 l 1,16,-1
276 558 m 2,47,-1
 240 558 l 1,48,-1
 240 421 l 1,49,-1
 276 421 l 2,50,51
 302 421 302 421 317 441 c 128,-1,52
 332 461 332 461 332 489 c 128,-1,53
 332 517 332 517 317 537.5 c 128,-1,54
 302 558 302 558 276 558 c 2,47,-1
EndSplineSet
EndChar

StartChar: copyright
Encoding: 169 169 205
Width: 544
Flags: HMW
HStem: 176 25<212.5 331.5 212.5 338.5> 254 22<245 292.5 245 295.5> 560 23<244.5 292.5> 635 25<212.5 331.5>
VStem: 125 54<373 462.5 373 470.5>
LayerCount: 2
Fore
SplineSet
30 418 m 128,-1,1
 30 518 30 518 101 589 c 128,-1,2
 172 660 172 660 272 660 c 128,-1,3
 372 660 372 660 443 589 c 128,-1,4
 514 518 514 518 514 418 c 128,-1,5
 514 318 514 318 443 247 c 128,-1,6
 372 176 372 176 272 176 c 128,-1,7
 172 176 172 176 101 247 c 128,-1,0
 30 318 30 318 30 418 c 128,-1,1
55 418 m 128,-1,9
 55 329 55 329 119 265 c 128,-1,10
 183 201 183 201 272 201 c 128,-1,11
 361 201 361 201 425 265 c 128,-1,12
 489 329 489 329 489 418 c 128,-1,13
 489 507 489 507 425 571 c 128,-1,14
 361 635 361 635 272 635 c 128,-1,15
 183 635 183 635 119 571 c 128,-1,8
 55 507 55 507 55 418 c 128,-1,9
362 487 m 1,16,17
 352.394736842 560 352.394736842 560 268 560 c 0,18,19
 230 560 230 560 204.5 522 c 128,-1,20
 179 484 179 484 179 418 c 128,-1,21
 179 352 179 352 205 314 c 128,-1,22
 231 276 231 276 268.5 276 c 128,-1,23
 306 276 306 276 331.5 294 c 128,-1,24
 357 312 357 312 362 349 c 1,25,-1
 374 349 l 1,26,-1
 374 260 l 1,27,-1
 362 260 l 1,28,-1
 360 271 l 2,29,30
 358 281 358 281 350 281 c 0,31,32
 347 281 347 281 337 274.5 c 0,33,34
 305.461538462 254 305.461538462 254 272 254 c 0,35,36
 208 254 208 254 166.5 297.5 c 128,-1,37
 125 341 125 341 125 418 c 128,-1,38
 125 495 125 495 165.5 539 c 128,-1,39
 206 583 206 583 272 583 c 0,40,41
 296 583 296 583 321 571.5 c 128,-1,42
 346 560 346 560 350 560 c 0,43,44
 358 560 358 560 360 570 c 2,45,-1
 362 581 l 1,46,-1
 374 581 l 1,47,-1
 374 487 l 1,48,-1
 362 487 l 1,16,17
EndSplineSet
EndChar

StartChar: trademark
Encoding: 8482 8482 206
Width: 678
Flags: HMW
HStem: 313 21G<80 230 80 80 297 297 297 378 447 447 447 474 536 536 536 648> 610 20G<99 212 212 225.5 297 371 371 371 574 648 648 648> 616 20G
VStem: 129 52<341 613> 566 52<341 552 552 552>
LayerCount: 2
Fore
SplineSet
230 327 m 1,0,-1
 230 313 l 1,1,-1
 80 313 l 1,2,-1
 80 327 l 1,3,-1
 115 327 l 2,4,5
 129 327 129 327 129 341 c 2,6,-1
 129 613 l 1,7,-1
 69 613 l 2,8,9
 56 613 56 613 55 599 c 2,10,-1
 48 540 l 1,11,-1
 34 540 l 1,12,-1
 34 567 l 2,13,14
 34 619 34 619 30 636 c 1,15,16
 56 630 56 630 99 630 c 2,17,-1
 212 630 l 2,18,19
 252 630 252 630 280 636 c 1,20,21
 276 619 276 619 276 567 c 2,22,-1
 276 540 l 1,23,-1
 262 540 l 1,24,-1
 255 599 l 2,25,26
 254 613 254 613 241 613 c 2,27,-1
 181 613 l 1,28,-1
 181 341 l 2,29,30
 181 327 181 327 195 327 c 2,31,-1
 230 327 l 1,0,-1
476 380 m 1,32,-1
 574 630 l 1,33,-1
 648 630 l 1,34,-1
 648 616 l 1,35,-1
 632 616 l 2,36,37
 618 616 618 616 618 602 c 2,38,-1
 618 341 l 2,39,40
 618 327 618 327 632 327 c 2,41,-1
 648 327 l 1,42,-1
 648 313 l 1,43,-1
 536 313 l 1,44,-1
 536 327 l 1,45,-1
 552 327 l 2,46,47
 566 327 566 327 566 341 c 2,48,-1
 566 552 l 1,49,-1
 474 313 l 1,50,-1
 447 313 l 1,51,-1
 348 552 l 1,52,-1
 348 341 l 2,53,54
 348 327 348 327 362 327 c 2,55,-1
 378 327 l 1,56,-1
 378 313 l 1,57,-1
 297 313 l 1,58,-1
 297 327 l 1,59,-1
 313 327 l 2,60,61
 327 327 327 327 327 341 c 2,62,-1
 327 602 l 2,63,64
 327 616 327 616 313 616 c 2,65,-1
 297 616 l 1,66,-1
 297 630 l 1,67,-1
 371 630 l 1,68,-1
 476 380 l 1,32,-1
EndSplineSet
EndChar

StartChar: ordfeminine
Encoding: 170 170 207
Width: 275
Flags: HMW
HStem: 375 21G<206.5 238> 376 21G<68 101> 614 20G<110 138> 628 20G<92.5 152>
VStem: 20 51<430 457.5> 168 51<517 550>
LayerCount: 2
Fore
SplineSet
85 593 m 0,0,1
 85 577 85 577 93 559 c 1,2,3
 83 549 83 549 62 549 c 0,4,5
 37 549 37 549 37 580.5 c 128,-1,6
 37 612 37 612 58 630 c 128,-1,7
 79 648 79 648 123 648 c 128,-1,8
 167 648 167 648 193 622 c 128,-1,9
 219 596 219 596 219 550 c 2,10,-1
 219 422 l 2,11,12
 219 395 219 395 233 395 c 0,13,14
 252 395 252 395 252 423 c 0,15,16
 252 430 252 430 250 440 c 1,17,-1
 268 441 l 1,18,19
 270 429 270 429 270 416 c 128,-1,20
 270 403 270 403 257.5 389 c 128,-1,21
 245 375 245 375 222 375 c 0,22,23
 174.206896552 375 174.206896552 375 168 435 c 1,24,25
 157 406 157 406 134 391 c 128,-1,26
 111 376 111 376 84.5 376 c 128,-1,27
 58 376 58 376 39 392.5 c 128,-1,28
 20 409 20 409 20 439.5 c 128,-1,29
 20 470 20 470 49 494.5 c 128,-1,30
 78 519 78 519 133 519 c 0,31,32
 154 519 154 519 168 517 c 1,33,-1
 168 564 l 2,34,35
 168 634 168 634 122 634 c 0,36,37
 85 634 85 634 85 593 c 0,0,1
102 398 m 0,38,39
 127 398 127 398 146 425.5 c 128,-1,40
 165 453 165 453 167 504 c 1,41,42
 160 505 160 505 149 505 c 0,43,44
 117 505 117 505 94 488 c 128,-1,45
 71 471 71 471 71 447 c 128,-1,46
 71 423 71 423 79.5 410.5 c 128,-1,47
 88 398 88 398 102 398 c 0,38,39
EndSplineSet
EndChar

StartChar: less
Encoding: 60 60 208
Width: 532
Flags: HMW
HStem: 88 21G<462 462> 485 20G<462 462>
LayerCount: 2
Fore
SplineSet
462 450 m 1,0,-1
 127 296 l 1,1,-1
 462 143 l 1,2,-1
 462 88 l 1,3,-1
 70 270 l 1,4,-1
 70 323 l 1,5,-1
 462 505 l 1,6,-1
 462 450 l 1,0,-1
EndSplineSet
EndChar

StartChar: greater
Encoding: 62 62 209
Width: 532
Flags: HMW
HStem: 88 21G<70 70> 485 20G<70 70>
LayerCount: 2
Fore
SplineSet
70 143 m 1,0,-1
 404 296 l 1,1,-1
 70 450 l 1,2,-1
 70 505 l 1,3,-1
 462 323 l 1,4,-1
 462 270 l 1,5,-1
 70 88 l 1,6,-1
 70 143 l 1,0,-1
EndSplineSet
EndChar

StartChar: dagger
Encoding: 8224 8224 210
Width: 387
Flags: HMW
HStem: -107 21G<188 199 188 188> 423 70<45 67.5 319.5 342> 640 20G<182.5 205.5>
VStem: 153 82<601.5 630.5> 175 37
LayerCount: 2
Fore
SplineSet
201 465 m 1,0,1
 238 470 238 470 278.5 481.5 c 128,-1,2
 319 493 319 493 333.5 493 c 128,-1,3
 348 493 348 493 357.5 483.5 c 128,-1,4
 367 474 367 474 367 458 c 128,-1,5
 367 442 367 442 357.5 432.5 c 128,-1,6
 348 423 348 423 335.5 423 c 128,-1,7
 323 423 323 423 225 447 c 1,8,-1
 199 -107 l 1,9,-1
 188 -107 l 1,10,-1
 162 447 l 1,11,12
 64 423 64 423 52 423 c 128,-1,13
 40 423 40 423 30 432.5 c 128,-1,14
 20 442 20 442 20 458 c 128,-1,15
 20 474 20 474 30 483.5 c 128,-1,16
 40 493 40 493 54 493 c 128,-1,17
 68 493 68 493 108.5 481.5 c 128,-1,18
 149 470 149 470 186 465 c 1,19,20
 181 493 181 493 167 545.111111111 c 0,21,22
 153 597.222222222 153 597.222222222 153 617.111111111 c 128,-1,23
 153 637 153 637 164.5 648.5 c 128,-1,24
 176 660 176 660 194 660 c 128,-1,25
 212 660 212 660 223.5 648.5 c 128,-1,26
 235 637 235 637 235 619 c 128,-1,27
 235 601 235 601 221 549 c 128,-1,28
 207 497 207 497 201 465 c 1,0,1
EndSplineSet
EndChar

StartChar: daggerdbl
Encoding: 8225 8225 211
Width: 387
Flags: HMW
HStem: -119 21G<181.5 204.5> 48 70<45 67.5 45 69.5 319.5 342> 423 70<45 67.5 319.5 342> 640 20G<182.5 205.5>
VStem: 152 82<-89.5 -60.5>
LayerCount: 2
Fore
SplineSet
186 76 m 1,0,1
 149 71 149 71 108.5 59.5 c 128,-1,2
 68 48 68 48 54 48 c 128,-1,3
 40 48 40 48 30 58 c 128,-1,4
 20 68 20 68 20 83 c 128,-1,5
 20 98 20 98 30 108 c 128,-1,6
 40 118 40 118 52 118 c 128,-1,7
 64 118 64 118 162 94 c 1,8,-1
 187 270 l 1,9,-1
 162 447 l 1,10,11
 64 423 64 423 52 423 c 128,-1,12
 40 423 40 423 30 432.5 c 128,-1,13
 20 442 20 442 20 458 c 128,-1,14
 20 474 20 474 30 483.5 c 128,-1,15
 40 493 40 493 54 493 c 128,-1,16
 68 493 68 493 108.5 481.5 c 128,-1,17
 149 470 149 470 186 465 c 1,18,19
 181 493 181 493 167 545.111111111 c 0,20,21
 153 597.222222222 153 597.222222222 153 617.111111111 c 128,-1,22
 153 637 153 637 164.5 648.5 c 128,-1,23
 176 660 176 660 194 660 c 128,-1,24
 212 660 212 660 223.5 648.5 c 128,-1,25
 235 637 235 637 235 619 c 128,-1,26
 235 601 235 601 221 549 c 128,-1,27
 207 497 207 497 201 465 c 1,28,29
 238 470 238 470 278.5 481.5 c 128,-1,30
 319 493 319 493 333.5 493 c 128,-1,31
 348 493 348 493 357.5 483.5 c 128,-1,32
 367 474 367 474 367 458 c 128,-1,33
 367 442 367 442 357.5 432.5 c 128,-1,34
 348 423 348 423 335.5 423 c 128,-1,35
 323 423 323 423 225 447 c 1,36,-1
 199 270 l 1,37,-1
 225 94 l 1,38,39
 323 118 323 118 335.5 118 c 128,-1,40
 348 118 348 118 357.5 108 c 128,-1,41
 367 98 367 98 367 83 c 128,-1,42
 367 68 367 68 357.5 58 c 128,-1,43
 348 48 348 48 333.5 48 c 128,-1,44
 319 48 319 48 278.5 59.5 c 128,-1,45
 238 71 238 71 201 76 c 1,46,47
 206 48 206 48 220 -4.11111111111 c 0,48,49
 234 -56.2222222222 234 -56.2222222222 234 -76.1111111111 c 128,-1,50
 234 -96 234 -96 222.5 -107.5 c 128,-1,51
 211 -119 211 -119 193 -119 c 128,-1,52
 175 -119 175 -119 163.5 -107.5 c 128,-1,53
 152 -96 152 -96 152 -78 c 128,-1,54
 152 -60 152 -60 166 -8 c 128,-1,55
 180 44 180 44 186 76 c 1,0,1
EndSplineSet
EndChar

StartChar: perthousand
Encoding: 8240 8240 212
Width: 1069
Flags: HMW
HStem: -74 21G<247 282 247 247> -8 20<582.5 623 582.5 642 893.5 934> 205 20<155.5 196 155.5 215> 559 20G<137 215> 628 20G<496 532 532 532>
VStem: 41 60<339.5 446 339.5 452.5> 251 60<339.5 446> 468 60<126.5 233 126.5 239.5> 678 60<126.5 233> 779 60<126.5 233 126.5 239.5> 989 60<126.5 233>
LayerCount: 2
Fore
SplineSet
78.5 255 m 128,-1,1
 41 305 41 305 41 392.5 c 128,-1,2
 41 480 41 480 78.5 529.5 c 128,-1,3
 116 579 116 579 176 579 c 128,-1,4
 236 579 236 579 273.5 529.5 c 128,-1,5
 311 480 311 480 311 392.5 c 128,-1,6
 311 305 311 305 273.5 255 c 128,-1,7
 236 205 236 205 176 205 c 128,-1,0
 116 205 116 205 78.5 255 c 128,-1,1
122.5 515 m 128,-1,9
 101 470 101 470 101 392.5 c 128,-1,10
 101 315 101 315 122.5 270 c 128,-1,11
 144 225 144 225 175.5 225 c 128,-1,12
 207 225 207 225 229 270.5 c 128,-1,13
 251 316 251 316 251 393 c 128,-1,14
 251 470 251 470 229 515 c 128,-1,15
 207 560 207 560 175.5 560 c 128,-1,8
 144 560 144 560 122.5 515 c 128,-1,9
505.5 42 m 128,-1,17
 468 92 468 92 468 179.5 c 128,-1,18
 468 267 468 267 505.5 316.5 c 128,-1,19
 543 366 543 366 603 366 c 128,-1,20
 663 366 663 366 700.5 316.5 c 128,-1,21
 738 267 738 267 738 179.5 c 128,-1,22
 738 92 738 92 700.5 42 c 128,-1,23
 663 -8 663 -8 603 -8 c 128,-1,16
 543 -8 543 -8 505.5 42 c 128,-1,17
549.5 302 m 128,-1,25
 528 257 528 257 528 179.5 c 128,-1,26
 528 102 528 102 549.5 57 c 128,-1,27
 571 12 571 12 602.5 12 c 128,-1,28
 634 12 634 12 656 57.5 c 128,-1,29
 678 103 678 103 678 180 c 128,-1,30
 678 257 678 257 656 302 c 128,-1,31
 634 347 634 347 602.5 347 c 128,-1,24
 571 347 571 347 549.5 302 c 128,-1,25
816.5 42 m 128,-1,33
 779 92 779 92 779 179.5 c 128,-1,34
 779 267 779 267 816.5 316.5 c 128,-1,35
 854 366 854 366 914 366 c 128,-1,36
 974 366 974 366 1011.5 316.5 c 128,-1,37
 1049 267 1049 267 1049 179.5 c 128,-1,38
 1049 92 1049 92 1011.5 42 c 128,-1,39
 974 -8 974 -8 914 -8 c 128,-1,32
 854 -8 854 -8 816.5 42 c 128,-1,33
860.5 302 m 128,-1,41
 839 257 839 257 839 179.5 c 128,-1,42
 839 102 839 102 860.5 57 c 128,-1,43
 882 12 882 12 913.5 12 c 128,-1,44
 945 12 945 12 967 57.5 c 128,-1,45
 989 103 989 103 989 180 c 128,-1,46
 989 257 989 257 967 302 c 128,-1,47
 945 347 945 347 913.5 347 c 128,-1,40
 882 347 882 347 860.5 302 c 128,-1,41
282 -74 m 1,48,-1
 247 -74 l 1,49,-1
 496 648 l 1,50,-1
 532 648 l 1,51,-1
 282 -74 l 1,48,-1
EndSplineSet
EndChar

StartChar: numbersign
Encoding: 35 35 213
Width: 463
Flags: HMW
HStem: -101 21G<-19 14 -19 -19 186 186 186 219> 202 31<-38 70 -48 79 -38 103 112 275 317 427> 369 31<11 119 1 128 161 324 11 152 366 476> 647 20G<206 239 239 239 411 444 444 444>
LayerCount: 2
Fore
SplineSet
14 -101 m 1,0,-1
 -19 -101 l 1,1,-1
 70 202 l 1,2,-1
 -48 202 l 1,3,-1
 -38 233 l 1,4,-1
 79 233 l 1,5,-1
 119 369 l 1,6,-1
 1 369 l 1,7,-1
 11 400 l 1,8,-1
 128 400 l 1,9,-1
 206 667 l 1,10,-1
 239 667 l 1,11,-1
 161 400 l 1,12,-1
 333 400 l 1,13,-1
 411 667 l 1,14,-1
 444 667 l 1,15,-1
 366 400 l 1,16,-1
 486 400 l 1,17,-1
 476 369 l 1,18,-1
 357 369 l 1,19,-1
 317 233 l 1,20,-1
 437 233 l 1,21,-1
 427 202 l 1,22,-1
 308 202 l 1,23,-1
 219 -101 l 1,24,-1
 186 -101 l 1,25,-1
 275 202 l 1,26,-1
 103 202 l 1,27,-1
 14 -101 l 1,0,-1
152 369 m 1,28,-1
 112 233 l 1,29,-1
 284 233 l 1,30,-1
 324 369 l 1,31,-1
 152 369 l 1,28,-1
EndSplineSet
EndChar

StartChar: ogonek
Encoding: 731 731 214
Width: 242
Flags: HMW
HStem: -186 29<119 138.5> -8 20G<155 155>
VStem: 30 49<-115.5 -86>
LayerCount: 2
Fore
SplineSet
199 -127 m 1,0,-1
 212 -138 l 1,1,2
 176 -186 176 -186 122 -186 c 0,3,4
 81 -186 81 -186 55.5 -163.5 c 128,-1,5
 30 -141 30 -141 30 -106.5 c 0,6,7
 30 -72 30 -72 61.5 -39 c 128,-1,8
 93 -6 93 -6 155 12 c 1,9,-1
 161 0 l 1,10,11
 120 -14 120 -14 99.5 -40 c 128,-1,12
 79 -66 79 -66 79 -95.5 c 0,13,14
 79 -125 79 -125 94.5 -141 c 128,-1,15
 110 -157 110 -157 138.5 -157 c 0,16,17
 167 -157 167 -157 199 -127 c 1,0,-1
EndSplineSet
EndChar

StartChar: twosuperior
Encoding: 178 178 215
Width: 292
Flags: HMW
HStem: 205 21G 213 45<90 189> 559 20G<103 180>
VStem: 198 55<472 509>
LayerCount: 2
Fore
SplineSet
182 540 m 128,-1,1
 166 560 166 560 141 560 c 128,-1,2
 116 560 116 560 103 546 c 128,-1,3
 90 532 90 532 90 511 c 128,-1,4
 90 490 90 490 99 472 c 1,5,6
 87 462 87 462 64 462 c 0,7,8
 35 462 35 462 35 497.5 c 128,-1,9
 35 533 35 533 61.5 556 c 128,-1,10
 88 579 88 579 142 579 c 128,-1,11
 196 579 196 579 224.5 554.5 c 128,-1,12
 253 530 253 530 253 501 c 128,-1,13
 253 472 253 472 240.5 446.5 c 128,-1,14
 228 421 228 421 215 405 c 128,-1,15
 202 389 202 389 172 353 c 2,16,-1
 90 258 l 1,17,-1
 220 258 l 2,18,19
 232 258 232 258 233 269 c 2,20,-1
 240 326 l 1,21,-1
 260 326 l 1,22,-1
 260 293 l 2,23,24
 260 254 260 254 267 205 c 1,25,26
 237 213 237 213 189 213 c 2,27,-1
 17 213 l 1,28,-1
 153 374 l 2,29,30
 198 428 198 428 198 486 c 0,31,0
 198 520 198 520 182 540 c 128,-1,1
EndSplineSet
EndChar

StartChar: threesuperior
Encoding: 179 179 216
Width: 292
Flags: HMW
HStem: 205 20<114.5 154 114.5 174> 559 20G<111.5 160.5>
VStem: 183 53<482 515> 203 59<287.5 336.5 287.5 337>
LayerCount: 2
Fore
SplineSet
76 388 m 1,0,-1
 73 405 l 1,1,-1
 101 411 l 2,2,3
 141 419 141 419 162 444.5 c 128,-1,4
 183 470 183 470 183 497 c 0,5,6
 183 524 183 524 170 542 c 128,-1,7
 157 560 157 560 137 560 c 0,8,9
 117 560 117 560 107 548 c 128,-1,10
 97 536 97 536 97 518.5 c 0,11,12
 97 501 97 501 106 479 c 1,13,14
 93 466 93 466 71 466 c 0,15,16
 42 466 42 466 42 503.5 c 0,17,18
 42 541 42 541 69 560 c 128,-1,19
 96 579 96 579 136 579 c 0,20,21
 176 579 176 579 206 557.5 c 128,-1,22
 236 536 236 536 236 504 c 0,23,24
 236 472 236 472 218 447 c 128,-1,25
 200 422 200 422 168 408 c 1,26,27
 213 400 213 400 237.5 374 c 128,-1,28
 262 348 262 348 262 309 c 0,29,30
 262 270 262 270 227.5 237.5 c 128,-1,31
 193 205 193 205 136.5 205 c 0,32,33
 80 205 80 205 54.5 228 c 128,-1,34
 29 251 29 251 29 287 c 0,35,36
 29 323 29 323 57 323 c 0,37,38
 78 323 78 323 92 311 c 1,39,40
 83 293 83 293 83 272.5 c 0,41,42
 83 252 83 252 95.5 238.5 c 128,-1,43
 108 225 108 225 136 225 c 0,44,45
 164 225 164 225 183.5 249.5 c 128,-1,46
 203 274 203 274 203 311.5 c 0,47,48
 203 349 203 349 177 370.5 c 128,-1,49
 151 392 151 392 109 392 c 0,50,51
 93 392 93 392 76 388 c 1,0,-1
EndSplineSet
EndChar

StartChar: onesuperior
Encoding: 185 185 217
Width: 292
Flags: HMW
HStem: 213 21G<40 248 40 40> 563 20G
VStem: 118 58<245 505>
LayerCount: 2
Fore
SplineSet
118 245 m 2,0,-1
 118 522 l 2,1,2
 118 535 118 535 105 535 c 2,3,-1
 30 531 l 1,4,-1
 29 550 l 1,5,-1
 91 559 l 2,6,7
 150 568 150 568 184 583 c 1,8,9
 176 553 176 553 176 505 c 2,10,-1
 176 245 l 2,11,12
 176 231 176 231 190 231 c 2,13,-1
 248 231 l 1,14,-1
 248 213 l 1,15,-1
 40 213 l 1,16,-1
 40 231 l 1,17,-1
 104 231 l 2,18,19
 118 231 118 231 118 245 c 2,0,-1
EndSplineSet
EndChar

StartChar: OE
Encoding: 338 338 218
Width: 799
Flags: HMW
HStem: -9 21G 0 28<238.5 378 321 378 460 648> 301 28<460 661 460 663> 602 28<266 634 321 378 460 634 634 662 460 460> 619 20G
VStem: 35 85<223 407 223 415> 378 82<28 301 28 329 329 602>
LayerCount: 2
Fore
SplineSet
661 301 m 2,0,-1
 460 301 l 1,1,-1
 460 28 l 1,2,-1
 684 28 l 2,3,4
 710 28 710 28 712 50 c 2,5,-1
 727 167 l 1,6,-1
 750 167 l 1,7,-1
 750 120 l 2,8,9
 750 32 750 32 759 -9 c 1,10,11
 727 0 727 0 648 0 c 2,12,-1
 321 0 l 2,13,14
 194 0 194 0 114.5 84 c 128,-1,15
 35 168 35 168 35 315 c 128,-1,16
 35 462 35 462 114.5 546 c 128,-1,17
 194 630 194 630 321 630 c 2,18,-1
 634 630 l 2,19,20
 713 630 713 630 745 639 c 1,21,22
 736 598 736 598 736 510 c 2,23,-1
 736 463 l 1,24,-1
 713 463 l 1,25,-1
 698 580 l 2,26,27
 696 602 696 602 670 602 c 2,28,-1
 460 602 l 1,29,-1
 460 329 l 1,30,-1
 663 329 l 1,31,32
 673 331 673 331 675 343 c 1,33,-1
 680 405 l 1,34,-1
 698 405 l 1,35,-1
 698 225 l 1,36,-1
 680 225 l 1,37,-1
 675 287 l 2,38,39
 673 301 673 301 661 301 c 2,0,-1
321 28 m 2,40,-1
 378 28 l 1,41,-1
 378 602 l 1,42,-1
 321 602 l 2,43,44
 235 602 235 602 177.5 525 c 128,-1,45
 120 448 120 448 120 315 c 128,-1,46
 120 182 120 182 177.5 105 c 128,-1,47
 235 28 235 28 321 28 c 2,40,-1
EndSplineSet
Position2: "'cpsp' Capital Spacing in Latin lookup 0 subtable" dx=7 dy=0 dh=35 dv=0
EndChar

StartChar: currency
Encoding: 164 164 219
Width: 463
Flags: HMW
HStem: 89 21G<64 64 400 400> 134 30<214.5 249> 424 30<214.5 249 214.5 268> 480 20G<64 64 400 400>
VStem: 72 30<276.5 311> 362 30<276.5 311 276.5 330>
LayerCount: 2
Fore
SplineSet
101 201 m 1,0,1
 72 243 72 243 72 294.5 c 128,-1,2
 72 346 72 346 102 387 c 1,3,-1
 26 463 l 1,4,-1
 64 500 l 1,5,-1
 139 424 l 1,6,7
 180 454 180 454 231.5 454 c 128,-1,8
 283 454 283 454 324 424 c 1,9,-1
 400 500 l 1,10,-1
 437 462 l 1,11,-1
 362 387 l 1,12,13
 392 346 392 346 392 294 c 128,-1,14
 392 242 392 242 362 201 c 1,15,-1
 437 127 l 1,16,-1
 400 89 l 1,17,-1
 325 164 l 1,18,19
 284 134 284 134 232 134 c 128,-1,20
 180 134 180 134 139 164 c 1,21,-1
 64 89 l 1,22,-1
 26 126 l 1,23,-1
 101 201 l 1,0,1
102 294 m 128,-1,25
 102 240 102 240 140 202 c 128,-1,26
 178 164 178 164 232 164 c 128,-1,27
 286 164 286 164 324 202 c 128,-1,28
 362 240 362 240 362 294 c 128,-1,29
 362 348 362 348 324 386 c 128,-1,30
 286 424 286 424 232 424 c 128,-1,31
 178 424 178 424 140 386 c 128,-1,24
 102 348 102 348 102 294 c 128,-1,25
EndSplineSet
EndChar

StartChar: eth
Encoding: 240 240 220
Width: 485
Flags: HMW
HStem: -12 22<208.5 280 208.5 311> 409 28<208.5 249 179.5 280> 640 20G<132 132>
VStem: 40 76<150.5 277.5 150.5 284> 374 73<162.5 277.5>
LayerCount: 2
Fore
SplineSet
169 486 m 1,0,-1
 151 521 l 1,1,-1
 238 566 l 1,2,3
 190 610 190 610 125 637 c 1,4,-1
 132 660 l 1,5,6
 212 635 212 635 275 584 c 1,7,-1
 370 633 l 1,8,-1
 388 598 l 1,9,-1
 306 556 l 1,10,11
 374 490 374 490 410.5 402 c 128,-1,12
 447 314 447 314 447 219 c 128,-1,13
 447 124 447 124 394 56 c 128,-1,14
 341 -12 341 -12 246.5 -12 c 128,-1,15
 152 -12 152 -12 96 49 c 128,-1,16
 40 110 40 110 40 212 c 128,-1,17
 40 314 40 314 96 375.5 c 128,-1,18
 152 437 152 437 227 437 c 128,-1,19
 302 437 302 437 351 373 c 1,20,-1
 354 374 l 1,21,22
 326 470 326 470 267 536 c 1,23,-1
 169 486 l 1,0,-1
152.5 357 m 128,-1,25
 116 305 116 305 116 213 c 128,-1,26
 116 121 116 121 152.5 65.5 c 128,-1,27
 189 10 189 10 244.5 10 c 128,-1,28
 300 10 300 10 337 65.5 c 128,-1,29
 374 121 374 121 374 213 c 128,-1,30
 374 305 374 305 337 357 c 128,-1,31
 300 409 300 409 244.5 409 c 128,-1,24
 189 409 189 409 152.5 357 c 128,-1,25
EndSplineSet
EndChar

StartChar: Thorn
Encoding: 222 222 221
Width: 486
Flags: HMW
HStem: 0 21G<35 239 35 35> 125 28<123 264 264 269 123 264> 476 28<123 264 123 269> 610 20G<35 239 239 239>
VStem: 96 82<32 600> 391 80<275 355>
LayerCount: 2
Fore
SplineSet
123 153 m 1,0,-1
 264 153 l 2,1,2
 323 153 323 153 357 201.5 c 128,-1,3
 391 250 391 250 391 315 c 128,-1,4
 391 380 391 380 357.5 428 c 128,-1,5
 324 476 324 476 264 476 c 2,6,-1
 123 476 l 1,7,-1
 123 504 l 1,8,-1
 269 504 l 2,9,10
 354 504 354 504 412.5 453 c 128,-1,11
 471 402 471 402 471 315 c 128,-1,12
 471 228 471 228 412.5 176.5 c 128,-1,13
 354 125 354 125 269 125 c 2,14,-1
 123 125 l 1,15,-1
 123 153 l 1,0,-1
96 32 m 2,16,-1
 96 600 l 2,17,18
 96 612 96 612 82 612 c 2,19,-1
 35 612 l 1,20,-1
 35 630 l 1,21,-1
 239 630 l 1,22,-1
 239 612 l 1,23,-1
 192 612 l 2,24,25
 178 612 178 612 178 600 c 2,26,-1
 178 32 l 2,27,28
 178 18 178 18 192 18 c 2,29,-1
 239 18 l 1,30,-1
 239 0 l 1,31,-1
 35 0 l 1,32,-1
 35 18 l 1,33,-1
 82 18 l 2,34,35
 96 18 96 18 96 32 c 2,16,-1
EndSplineSet
EndChar

StartChar: section
Encoding: 167 167 222
Width: 415
Flags: HMW
HStem: -110 24<171.5 231.5 171.5 255> 615 27<182.5 235>
VStem: 59 60<252.5 265 515.5 533> 307 63<2 23 272.5 286>
LayerCount: 2
Fore
SplineSet
135 124 m 2,0,1
 59 152.756756757 59 152.756756757 59 240.5 c 0,2,3
 59 283 59 283 88.5 322 c 128,-1,4
 118 361 118 361 170 373 c 1,5,-1
 135 387 l 2,6,7
 98 401 98 401 78.5 431 c 128,-1,8
 59 461 59 461 59 498 c 0,9,10
 59 555 59 555 100 598.5 c 128,-1,11
 141 642 141 642 211.5 642 c 0,12,13
 282 642 282 642 340 613 c 1,14,15
 334 591 334 591 334 525 c 2,16,-1
 334 482 l 1,17,-1
 315 482 l 1,18,-1
 307 538 l 2,19,20
 296 615 296 615 210 615 c 0,21,22
 170 615 170 615 144.5 589.5 c 128,-1,23
 119 564 119 564 119 530 c 0,24,25
 119 477 119 477 178 456 c 2,26,-1
 289 415 l 2,27,28
 329 400 329 400 349.5 369 c 128,-1,29
 370 338 370 338 370 297 c 128,-1,30
 370 256 370 256 341 217 c 128,-1,31
 312 178 312 178 260 162 c 1,32,-1
 289 152 l 2,33,34
 329 138 329 138 349.5 107 c 128,-1,35
 370 76 370 76 370 38 c 0,36,37
 370 -20 370 -20 324 -65 c 128,-1,38
 278 -110 278 -110 202 -110 c 128,-1,39
 126 -110 126 -110 55 -81 c 1,40,41
 61 -55 61 -55 61 9 c 2,42,-1
 61 52 l 1,43,-1
 80 52 l 1,44,-1
 88 -4 l 2,45,46
 100 -86 100 -86 200 -86 c 0,47,48
 246 -86 246 -86 276.5 -57 c 128,-1,49
 307 -28 307 -28 307 9 c 0,50,51
 307 59 307 59 246 82 c 2,52,-1
 135 124 l 2,0,1
119 267 m 0,53,54
 119 214 119 214 178 193 c 2,55,-1
 213 180 l 1,56,57
 254 184 254 184 280.5 211 c 128,-1,58
 307 238 307 238 307 272 c 0,59,60
 307 321 307 321 246 344 c 1,61,62
 228 349 228 349 210 349 c 0,63,64
 170 349 170 349 144.5 324.5 c 128,-1,65
 119 300 119 300 119 267 c 0,53,54
EndSplineSet
EndChar

StartChar: AE
Encoding: 198 198 223
Width: 820
Flags: HMW
HStem: -9 21G 0 28<481 669> 276 28<214 399 214 399 199 399 481 682> 602 28<373 373 373 399 481 655 655 683 481 481> 619 20G
VStem: 399 82<32 276 28 276 304 602>
LayerCount: 2
Fore
SplineSet
338 0 m 1,0,-1
 338 18 l 1,1,-1
 385 18 l 2,2,3
 399 18 399 18 399 32 c 2,4,-1
 399 276 l 1,5,-1
 199 276 l 1,6,-1
 62 18 l 1,7,-1
 127 18 l 1,8,-1
 127 0 l 1,9,-1
 -24 0 l 1,10,-1
 -24 18 l 1,11,-1
 13 18 l 2,12,13
 25 18 25 18 32 32 c 2,14,-1
 333 591 l 2,15,16
 337 599 337 599 337 604 c 0,17,18
 337 612 337 612 327 612 c 2,19,-1
 293 612 l 1,20,-1
 293 630 l 1,21,-1
 655 630 l 2,22,23
 734 630 734 630 766 639 c 1,24,25
 757 598 757 598 757 510 c 2,26,-1
 757 463 l 1,27,-1
 734 463 l 1,28,-1
 719 580 l 2,29,30
 717 602 717 602 691 602 c 2,31,-1
 481 602 l 1,32,-1
 481 304 l 1,33,-1
 682 304 l 2,34,35
 694 304 694 304 696 318 c 2,36,-1
 701 380 l 1,37,-1
 719 380 l 1,38,-1
 719 200 l 1,39,-1
 701 200 l 1,40,-1
 696 262 l 2,41,42
 694 276 694 276 682 276 c 2,43,-1
 481 276 l 1,44,-1
 481 28 l 1,45,-1
 705 28 l 2,46,47
 731 28 731 28 733 50 c 2,48,-1
 748 167 l 1,49,-1
 771 167 l 1,50,-1
 771 120 l 2,51,52
 771 32 771 32 780 -9 c 1,53,54
 748 0 748 0 669 0 c 2,55,-1
 338 0 l 1,0,-1
373 602 m 1,56,-1
 214 304 l 1,57,-1
 399 304 l 1,58,-1
 399 602 l 1,59,-1
 373 602 l 1,56,-1
EndSplineSet
Position2: "'cpsp' Capital Spacing in Latin lookup 0 subtable" dx=7 dy=0 dh=35 dv=0
EndChar

StartChar: mu
Encoding: 181 181 224
Width: 518
Flags: HMW
HStem: -216 21G<110 138.5> -12 39<211.5 234.5> 0 21G<421 439 439 474> 412 20G<54 69 69 87 328 343 343 361> 418 20G<153 153 427 427>
VStem: 81 41<-51 -14 -14 20 -51 362> 81 72<91.5 127 127 362 362 374.5> 355 72<48.5 70 70 129 129 129 277 362 362 374.5>
LayerCount: 2
Fore
SplineSet
355 -6 m 1,0,-1
 355 129 l 1,1,2
 321 -12 321 -12 205 -12 c 0,3,4
 155 -12 155 -12 122 20 c 1,5,-1
 122 -14 l 2,6,7
 122 -131 122 -131 193 -179 c 1,8,9
 183 -195 183 -195 163.5 -205.5 c 128,-1,10
 144 -216 144 -216 130 -216 c 0,11,12
 102 -216 102 -216 91.5 -177.5 c 128,-1,13
 81 -139 81 -139 81 -62 c 2,14,-1
 81 362 l 2,15,16
 81 414 81 414 54 414 c 1,17,-1
 54 432 l 1,18,-1
 69 432 l 2,19,20
 129 432 129 432 153 438 c 1,21,-1
 153 127 l 2,22,23
 153 76 153 76 175.5 51.5 c 128,-1,24
 198 27 198 27 235 27 c 0,25,26
 288 27 288 27 321.5 91.5 c 128,-1,27
 355 156 355 156 355 277 c 2,28,-1
 355 362 l 2,29,30
 355 414 355 414 328 414 c 1,31,-1
 328 432 l 1,32,-1
 343 432 l 2,33,34
 403 432 403 432 427 438 c 1,35,-1
 427 70 l 2,36,37
 427 38 427 38 436 28 c 128,-1,38
 445 18 445 18 474 18 c 1,39,-1
 474 0 l 1,40,-1
 439 0 l 2,41,42
 379 0 379 0 355 -6 c 1,0,-1
EndSplineSet
EndChar

StartChar: breve
Encoding: 728 728 225
Width: 213
Flags: HMW
HStem: 509 58<82.5 132 82.5 140> 597 20G<0 30 30 30 183 213 213 213>
LayerCount: 2
Fore
SplineSet
107 567 m 128,-1,1
 143 567 143 567 163 581 c 128,-1,2
 183 595 183 595 183 617 c 1,3,-1
 213 617 l 1,4,5
 213 570 213 570 184 539.5 c 128,-1,6
 155 509 155 509 106.5 509 c 0,7,8
 58 509 58 509 29 539.5 c 128,-1,9
 0 570 0 570 0 617 c 1,10,-1
 30 617 l 1,11,12
 30 595 30 595 50.5 581 c 128,-1,0
 71 567 71 567 107 567 c 128,-1,1
EndSplineSet
EndChar

StartChar: macron
Encoding: 175 175 226
Width: 312
Flags: HMW
HStem: 534 54<35 277 35 277>
LayerCount: 2
Fore
SplineSet
35 534 m 1,0,-1
 35 588 l 1,1,-1
 277 588 l 1,2,-1
 277 534 l 1,3,-1
 35 534 l 1,0,-1
EndSplineSet
EndChar

StartChar: asciicircum
Encoding: 94 94 227
Width: 532
Flags: HMW
HStem: 270 21G<71 126 71 71 403 458 403 403> 624 20G<238 291 291 291>
LayerCount: 2
Fore
SplineSet
291 644 m 1,0,-1
 458 270 l 1,1,-1
 403 270 l 1,2,-1
 264 584 l 1,3,-1
 126 270 l 1,4,-1
 71 270 l 1,5,-1
 238 644 l 1,6,-1
 291 644 l 1,0,-1
EndSplineSet
EndChar

StartChar: ordmasculine
Encoding: 186 186 228
Width: 291
Flags: HMW
HStem: 375 21G<109 181> 615 20G<125 165> 628 20G<109 181>
VStem: 20 54<472.5 551 472.5 555.5> 217 54<472.5 551>
LayerCount: 2
Fore
SplineSet
20 512 m 128,-1,1
 20 576 20 576 55 612 c 128,-1,2
 90 648 90 648 145.5 648 c 128,-1,3
 201 648 201 648 236 612 c 128,-1,4
 271 576 271 576 271 512 c 128,-1,5
 271 448 271 448 235.5 411.5 c 128,-1,6
 200 375 200 375 145 375 c 128,-1,7
 90 375 90 375 55 411.5 c 128,-1,0
 20 448 20 448 20 512 c 128,-1,1
94 602 m 128,-1,9
 74 569 74 569 74 511.5 c 128,-1,10
 74 454 74 454 94 421 c 128,-1,11
 114 388 114 388 145 388 c 128,-1,12
 176 388 176 388 196.5 421 c 128,-1,13
 217 454 217 454 217 511.5 c 128,-1,14
 217 569 217 569 196.5 602 c 128,-1,15
 176 635 176 635 145 635 c 128,-1,8
 114 635 114 635 94 602 c 128,-1,9
EndSplineSet
EndChar

StartChar: apple
Encoding: 65537 -1 229
Width: 923
Flags: HMW
HStem: -114 21G<406 423.5> -6 21G<456 467.5> 360 57<415 509 415 557 366 509> 509 77 588 20G<405 422.5 498 518>
VStem: 100 100<207.5 211 282.5 286 207.5 300.5> 124 91 707 93<106 160.5> 707 105<145 250.5 236.5 345.5>
LayerCount: 2
Fore
SplineSet
589 -89 m 2,0,-1
 566 -88 l 2,1,2
 552.428571429 -88 552.428571429 -88 534.714285714 -100 c 128,-1,3
 517 -112 517 -112 508 -112 c 1,4,-1
 462 -102 l 1,5,6
 454 -102 454 -102 438.5 -108 c 128,-1,7
 423 -114 423 -114 414.5 -114 c 128,-1,8
 406 -114 406 -114 390 -101.5 c 128,-1,9
 374 -89 374 -89 361 -89 c 1,10,-1
 337 -91 l 1,11,12
 322 -91 322 -91 304.5 -73.5 c 2,13,-1
 286 -55 l 1,14,15
 274 -49 274 -49 261 -48 c 128,-1,16
 248 -47 248 -47 239 -41.5 c 128,-1,17
 230 -36 230 -36 223 -18.5 c 128,-1,18
 216 -1 216 -1 210.5 3.5 c 128,-1,19
 205 8 205 8 191 13.5 c 128,-1,20
 177 19 177 19 171 28 c 0,21,22
 166 37 166 37 164 51.5 c 128,-1,23
 162 66 162 66 158 72.5 c 128,-1,24
 154 79 154 79 144.5 86.5 c 0,25,26
 122 104.263157895 122 104.263157895 122 124 c 1,27,-1
 125 149 l 1,28,29
 125 158 125 158 112.5 175.5 c 128,-1,30
 100 193 100 193 100 202 c 128,-1,31
 100 211 100 211 106 225.5 c 128,-1,32
 112 240 112 240 112 248.5 c 128,-1,33
 112 257 112 257 106 270 c 128,-1,34
 100 283 100 283 100 292 c 128,-1,35
 100 301 100 301 112.5 321.5 c 128,-1,36
 125 342 125 342 125 351 c 2,37,-1
 124 376 l 2,38,39
 124 391 124 391 140.5 405.5 c 128,-1,40
 157 420 157 420 159.5 425 c 128,-1,41
 162 430 162 430 164 446 c 128,-1,42
 166 462 166 462 170 468 c 128,-1,43
 174 474 174 474 189.5 480 c 128,-1,44
 205 486 205 486 210 491 c 128,-1,45
 215 496 215 496 222 511.5 c 128,-1,46
 229 527 229 527 235.5 532.5 c 128,-1,47
 242 538 242 538 261 542 c 128,-1,48
 280 546 280 546 285.5 549 c 128,-1,49
 291 552 291 552 306 569 c 128,-1,50
 321 586 321 586 335 587 c 1,51,-1
 361 585 l 2,52,53
 374 585 374 585 389.5 596.5 c 128,-1,54
 405 608 405 608 416 608 c 1,55,-1
 460 596 l 1,56,-1
 505 608 l 1,57,58
 518 608 518 608 534 595.5 c 128,-1,59
 550 583 550 583 562 583 c 1,60,-1
 590 586 l 1,61,62
 606 586 606 586 619 569.5 c 128,-1,63
 632 553 632 553 638.5 549.5 c 128,-1,64
 645 546 645 546 660 543 c 128,-1,65
 675 540 675 540 682.5 535 c 128,-1,66
 690 530 690 530 695 516 c 128,-1,67
 700 502 700 502 705.5 497 c 128,-1,68
 711 492 711 492 731 481.5 c 128,-1,69
 751 471 751 471 755.5 463 c 128,-1,70
 760 455 760 455 760.5 439 c 128,-1,71
 761 423 761 423 763.5 418.5 c 128,-1,72
 766 414 766 414 783 399.5 c 128,-1,73
 800 385 800 385 800 369 c 2,74,-1
 799 344 l 2,75,76
 799 331 799 331 811 312.5 c 128,-1,77
 823 294 823 294 823 285 c 128,-1,78
 823 276 823 276 817.5 263 c 128,-1,79
 812 250 812 250 812 243 c 128,-1,80
 812 236 812 236 817.5 221.5 c 128,-1,81
 823 207 823 207 822.5 199 c 128,-1,82
 822 191 822 191 810 178.5 c 128,-1,83
 798 166 798 166 798 152 c 2,84,-1
 800 120 l 2,85,86
 800 104 800 104 784 91 c 128,-1,87
 768 78 768 78 765.5 73 c 128,-1,88
 763 68 763 68 758.5 49 c 128,-1,89
 754 30 754 30 748.5 23.5 c 128,-1,90
 743 17 743 17 730.5 11.5 c 128,-1,91
 718 6 718 6 713 1 c 128,-1,92
 708 -4 708 -4 699 -20.5 c 128,-1,93
 690 -37 690 -37 683 -42 c 128,-1,94
 676 -47 676 -47 658.5 -51.5 c 128,-1,95
 641 -56 641 -56 636 -59 c 128,-1,96
 631 -62 631 -62 617.5 -75.5 c 128,-1,97
 604 -89 604 -89 589 -89 c 2,0,-1
462 -6 m 1,98,-1
 495 -13 l 1,99,100
 501 -13 501 -13 514.033333333 -4.5 c 0,101,102
 527.066666667 4 527.066666667 4 539 4 c 2,103,-1
 554 3 l 2,104,105
 566 3 566 3 575 13 c 128,-1,106
 584 23 584 23 587.5 25 c 128,-1,107
 591 27 591 27 604 30.5 c 128,-1,108
 617 34 617 34 622.5 38 c 128,-1,109
 628 42 628 42 634.5 53.5 c 128,-1,110
 641 65 641 65 644.5 68.5 c 128,-1,111
 648 72 648 72 657 76 c 128,-1,112
 666 80 666 80 670 84.5 c 128,-1,113
 674 89 674 89 677 103 c 128,-1,114
 680 117 680 117 682.5 121 c 128,-1,115
 685 125 685 125 696 134 c 128,-1,116
 707 143 707 143 707 157 c 2,117,-1
 706 177 l 2,118,119
 706 188 706 188 714.5 197.5 c 128,-1,120
 723 207 723 207 724 213 c 1,121,-1
 716 245 l 1,122,-1
 724 273 l 1,123,124
 724 281 724 281 715 295 c 128,-1,125
 706 309 706 309 706 318 c 2,126,-1
 707 335 l 2,127,128
 707 347 707 347 695 357 c 128,-1,129
 683 367 683 367 681 371 c 128,-1,130
 679 375 679 375 678.5 386.5 c 128,-1,131
 678 398 678 398 675 403.5 c 128,-1,132
 672 409 672 409 657.5 416.5 c 128,-1,133
 643 424 643 424 639 428 c 128,-1,134
 635 432 635 432 631 442 c 128,-1,135
 627 452 627 452 622 456 c 128,-1,136
 617 460 617 460 606 462 c 128,-1,137
 595 464 595 464 590 466.5 c 128,-1,138
 585 469 585 469 576 481 c 128,-1,139
 567 493 567 493 555 493 c 1,140,-1
 535 491 l 2,141,142
 526 491 526 491 515 500 c 128,-1,143
 504 509 504 509 494 509 c 1,144,-1
 461 500 l 1,145,-1
 429 509 l 1,146,147
 421 509 421 509 409 500.5 c 128,-1,148
 397 492 397 492 387 492 c 2,149,-1
 370 493 l 2,150,151
 359 493 359 493 348.5 480.5 c 128,-1,152
 338 468 338 468 333.5 465.5 c 128,-1,153
 329 463 329 463 316 460.5 c 128,-1,154
 303 458 303 458 298 454 c 128,-1,155
 293 450 293 450 288 439 c 128,-1,156
 283 428 283 428 279 424 c 128,-1,157
 275 420 275 420 264.5 416 c 128,-1,158
 254 412 254 412 250 407 c 0,159,160
 248 403 248 403 246 391.5 c 128,-1,161
 244 380 244 380 242 376 c 128,-1,162
 240 372 240 372 228 361.5 c 128,-1,163
 216 351 216 351 216 340 c 2,164,-1
 217 324 l 2,165,166
 217 316 217 316 208.5 301 c 128,-1,167
 200 286 200 286 200 278 c 1,168,-1
 208 248 l 1,169,-1
 200 215 l 1,170,171
 200 207 200 207 208.5 194.5 c 128,-1,172
 217 182 217 182 217 174 c 2,173,-1
 215 158 l 1,174,175
 215 147 215 147 227.5 135.5 c 128,-1,176
 240 124 240 124 242 120 c 128,-1,177
 244 116 244 116 245.5 105.5 c 128,-1,178
 247 95 247 95 251 88.5 c 128,-1,179
 255 82 255 82 265 78 c 128,-1,180
 275 74 275 74 279 70.5 c 128,-1,181
 283 67 283 67 288.5 54 c 128,-1,182
 294 41 294 41 300 37 c 128,-1,183
 306 33 306 33 315.5 33 c 128,-1,184
 325 33 325 33 331 30 c 128,-1,185
 337 27 337 27 348.5 14.5 c 128,-1,186
 360 2 360 2 371 2 c 2,187,-1
 386 3 l 2,188,189
 396 3 396 3 408 -5.5 c 128,-1,190
 420 -14 420 -14 426 -15 c 1,191,-1
 462 -6 l 1,98,-1
462 417 m 128,-1,193
 532 417 532 417 582 367.5 c 128,-1,194
 632 318 632 318 632 247 c 128,-1,195
 632 176 632 176 582 126.5 c 128,-1,196
 532 77 532 77 462 77 c 128,-1,197
 392 77 392 77 342 126.5 c 128,-1,198
 292 176 292 176 292 247 c 128,-1,199
 292 318 292 318 342 367.5 c 128,-1,192
 392 417 392 417 462 417 c 128,-1,193
505 292 m 1,200,-1
 557 292 l 1,201,-1
 557 360 l 1,202,-1
 366 360 l 1,203,-1
 366 292 l 1,204,-1
 420 292 l 1,205,-1
 420 117 l 1,206,-1
 505 117 l 1,207,-1
 505 292 l 1,200,-1
EndSplineSet
EndChar

StartChar: pi
Encoding: 960 960 230
Width: 532
Flags: HMW
HStem: 0 21G<116 187 116 116 350 483 350 350> 399 33<45 116 45 493 187 350 187 187 422 422 422 493>
VStem: 116 71<0 399 0 399> 350 72<28 32 32 399>
LayerCount: 2
Fore
SplineSet
350 0 m 1,0,-1
 350 399 l 1,1,-1
 187 399 l 1,2,-1
 187 0 l 1,3,-1
 116 0 l 1,4,-1
 116 399 l 1,5,-1
 45 399 l 1,6,-1
 45 432 l 1,7,-1
 493 432 l 1,8,-1
 493 399 l 1,9,-1
 422 399 l 1,10,-1
 422 32 l 2,11,12
 422 18 422 18 436 18 c 2,13,-1
 483 18 l 1,14,-1
 483 0 l 1,15,-1
 350 0 l 1,0,-1
EndSplineSet
EndChar

StartChar: product
Encoding: 8719 8719 231
Width: 680
Flags: HMW
HStem: -73 21G<139 214 139 139 466 603 466 466> 667 33<65 139 65 616 214 466 214 214 542 616 542 542>
VStem: 139 75<-73 667 -73 667> 466 76<-45 -41 -41 667>
LayerCount: 2
Fore
SplineSet
542 667 m 1,0,-1
 542 -41 l 2,1,2
 542 -55 542 -55 556 -55 c 2,3,-1
 603 -55 l 1,4,-1
 603 -73 l 1,5,-1
 466 -73 l 1,6,-1
 466 667 l 1,7,-1
 214 667 l 1,8,-1
 214 -73 l 1,9,-1
 139 -73 l 1,10,-1
 139 667 l 1,11,-1
 65 667 l 1,12,-1
 65 700 l 1,13,-1
 616 700 l 1,14,-1
 616 667 l 1,15,-1
 542 667 l 1,0,-1
EndSplineSet
EndChar

StartChar: Delta
Encoding: 8710 8710 232
Width: 653
Flags: HMW
HStem: 0 58<113 502 113 605> 680 20G<296 356 356 356>
LayerCount: 2
Fore
SplineSet
296 700 m 1,0,-1
 356 700 l 1,1,-1
 605 0 l 1,2,-1
 48 0 l 1,3,-1
 296 700 l 1,0,-1
305 619 m 1,4,-1
 113 58 l 1,5,-1
 502 58 l 1,6,-1
 305 619 l 1,4,-1
EndSplineSet
EndChar

StartChar: summation
Encoding: 8721 8721 233
Width: 508
Flags: HMW
HStem: -73 66<132 478 132 478 87 478> 667 33<50 485 131 131 131 485>
LayerCount: 2
Fore
SplineSet
34 -22 m 1,0,-1
 270 318 l 1,1,-1
 50 667 l 1,2,-1
 50 700 l 1,3,-1
 485 700 l 1,4,-1
 485 667 l 1,5,-1
 131 667 l 1,6,-1
 354 313 l 1,7,-1
 132 -7 l 1,8,-1
 478 -7 l 1,9,-1
 478 -73 l 1,10,-1
 87 -73 l 1,11,-1
 34 -22 l 1,0,-1
EndSplineSet
EndChar

StartChar: integral
Encoding: 8747 8747 234
Width: 407
Flags: HMW
HStem: -126 25<75 121.5 75 149> 620 20G<396.5 411.5> 727 25<285.5 332>
VStem: 166 75<130 214 214 412 412 496>
LayerCount: 2
Fore
SplineSet
84 -126 m 0,0,1
 28 -126 28 -126 4 -94.5 c 128,-1,2
 -20 -63 -20 -63 -20 -26 c 0,3,4
 -20 -14 -20 -14 -2 -14 c 0,5,6
 16 -14 16 -14 30.5 -19.5 c 128,-1,7
 45 -25 45 -25 49 -34 c 1,8,9
 49 -67 49 -67 58.5 -84 c 128,-1,10
 68 -101 68 -101 94 -101 c 0,11,12
 166 -101 166 -101 166 63 c 2,13,-1
 166 412 l 2,14,15
 166 752 166 752 323 752 c 0,16,17
 379 752 379 752 403 720.5 c 128,-1,18
 427 689 427 689 427 652 c 0,19,20
 427 640 427 640 409 640 c 0,21,22
 391 640 391 640 376.5 645.5 c 128,-1,23
 362 651 362 651 358 660 c 1,24,25
 358 693 358 693 348.5 710 c 128,-1,26
 339 727 339 727 313 727 c 0,27,28
 241 727 241 727 241 563 c 2,29,-1
 241 214 l 2,30,31
 241 -126 241 -126 84 -126 c 0,0,1
EndSplineSet
EndChar

